<svg version="1.1" viewBox="0.0 0.0 600.0 371.0" fill="none" stroke="none" stroke-linecap="square" stroke-miterlimit="10" width="600" height="371" xmlns:xlink="http://www.w3.org/1999/xlink" xmlns="http://www.w3.org/2000/svg"><path fill="#ffffff" d="M0 0L600.0 0L600.0 371.0L0 371.0L0 0Z" fill-rule="nonzero"/><path stroke="#cccccc" stroke-width="1.0" stroke-linecap="butt" d="M105.5 62.5L105.5 298.5" fill-rule="nonzero"/><path stroke="#cccccc" stroke-width="1.0" stroke-linecap="butt" d="M160.5 62.5L160.5 298.5" fill-rule="nonzero"/><path stroke="#cccccc" stroke-width="1.0" stroke-linecap="butt" d="M215.5 62.5L215.5 298.5" fill-rule="nonzero"/><path stroke="#cccccc" stroke-width="1.0" stroke-linecap="butt" d="M271.5 62.5L271.5 298.5" fill-rule="nonzero"/><path stroke="#cccccc" stroke-width="1.0" stroke-linecap="butt" d="M326.5 62.5L326.5 298.5" fill-rule="nonzero"/><path stroke="#cccccc" stroke-width="1.0" stroke-linecap="butt" d="M381.5 62.5L381.5 298.5" fill-rule="nonzero"/><path stroke="#cccccc" stroke-width="1.0" stroke-linecap="butt" d="M52.5 296.5L412.5 296.5" fill-rule="nonzero"/><path stroke="#cccccc" stroke-width="1.0" stroke-linecap="butt" d="M52.5 267.5L412.5 267.5" fill-rule="nonzero"/><path stroke="#cccccc" stroke-width="1.0" stroke-linecap="butt" d="M52.5 199.5L412.5 199.5" fill-rule="nonzero"/><path stroke="#cccccc" stroke-width="1.0" stroke-linecap="butt" d="M52.5 170.5L412.5 170.5" fill-rule="nonzero"/><path stroke="#cccccc" stroke-width="1.0" stroke-linecap="butt" d="M52.5 102.5L412.5 102.5" fill-rule="nonzero"/><path stroke="#cccccc" stroke-width="1.0" stroke-linecap="butt" d="M52.5 73.5L412.5 73.5" fill-rule="nonzero"/><clipPath id="id_0"><path d="M52.55 62.416668L412.58 62.416668L412.58 298.45L52.55 298.45L52.55 62.416668Z" clip-rule="nonzero"/></clipPath><path stroke="#4285f4" stroke-width="2.0" stroke-linecap="butt" clip-path="url(#id_0)" d="M52.55 65.05769C52.55 65.05769 58.219765 112.433815 61.054646 124.221466C63.889526 136.00911 113.97244 210.92532 140.43134 232.1345C166.89024 253.34367 412.58 298.45 412.58 298.45" fill-rule="nonzero"/><path stroke="#db4437" stroke-width="2.0" stroke-linecap="butt" clip-path="url(#id_0)" d="M52.55 65.19444C52.55 65.19444 58.219765 112.77924 61.054646 124.52796C63.889526 136.27667 113.97244 208.5734 140.43134 228.67662C166.89024 248.77985 412.58 285.1476 412.58 285.1476" fill-rule="nonzero"/><path stroke="#f4b400" stroke-width="2.0" stroke-linecap="butt" clip-path="url(#id_0)" d="M52.55 65.365715C52.55 65.365715 58.219765 112.76348 61.054646 124.47559C63.889526 136.1877 113.97244 208.5692 140.43134 228.66151C166.89024 248.75383 412.58 284.78027 412.58 284.78027" fill-rule="nonzero"/><path stroke="#0f9d58" stroke-width="2.0" stroke-linecap="butt" clip-path="url(#id_0)" d="M52.55 65.13624C52.55 65.13624 58.219765 112.87208 61.054646 124.61775C63.889526 136.36343 113.97244 207.81816 140.43134 227.21492C166.89024 246.61166 412.58 274.47208 412.58 274.47208" fill-rule="nonzero"/><path stroke="#ff6d00" stroke-width="2.0" stroke-linecap="butt" clip-path="url(#id_0)" d="M52.55 62.644238C52.55 62.644238 58.219765 109.7115 61.054646 121.05546C63.889526 132.39941 113.97244 193.47786 140.43134 211.14581C166.89024 228.81377 412.58 265.71967 412.58 265.71967" fill-rule="nonzero"/><path stroke="#46bdc6" stroke-width="2.0" stroke-linecap="butt" clip-path="url(#id_0)" d="M52.55 62.416668C52.55 62.416668 58.219765 109.037384 61.054646 120.30443C63.889526 131.57147 113.97244 193.20894 140.43134 210.973C166.89024 228.73708 412.58 265.54156 412.58 265.54156" fill-rule="nonzero"/><path fill="#000000" fill-opacity="0.0" clip-path="url(#id_0)" d="M55.55 65.05769C55.55 66.71455 54.206856 68.05769 52.55 68.05769C50.893147 68.05769 49.55 66.71455 49.55 65.05769C49.55 63.40084 50.893147 62.057697 52.55 62.057697C54.206856 62.057697 55.55 63.40084 55.55 65.05769Z" fill-rule="nonzero"/><path fill="#000000" fill-opacity="0.0" clip-path="url(#id_0)" d="M64.05465 124.221466C64.05465 125.87832 62.7115 127.221466 61.054646 127.221466C59.397793 127.221466 58.054646 125.87832 58.054646 124.221466C58.054646 122.564606 59.397793 121.221466 61.054646 121.221466C62.7115 121.221466 64.05465 122.564606 64.05465 124.221466Z" fill-rule="nonzero"/><path fill="#000000" fill-opacity="0.0" clip-path="url(#id_0)" d="M143.43134 232.1345C143.43134 233.79135 142.0882 235.1345 140.43134 235.1345C138.77449 235.1345 137.43134 233.79135 137.43134 232.1345C137.43134 230.47765 138.77449 229.1345 140.43134 229.1345C142.0882 229.1345 143.43134 230.47765 143.43134 232.1345Z" fill-rule="nonzero"/><path fill="#000000" fill-opacity="0.0" clip-path="url(#id_0)" d="M415.58 298.45C415.58 300.10684 414.23685 301.45 412.58 301.45C410.92316 301.45 409.58 300.10684 409.58 298.45C409.58 296.79315 410.92316 295.45 412.58 295.45C414.23685 295.45 415.58 296.79315 415.58 298.45Z" fill-rule="nonzero"/><path fill="#000000" fill-opacity="0.0" clip-path="url(#id_0)" d="M55.55 65.19444C55.55 66.851295 54.206856 68.19444 52.55 68.19444C50.893147 68.19444 49.55 66.851295 49.55 65.19444C49.55 63.53759 50.893147 62.194447 52.55 62.194447C54.206856 62.194447 55.55 63.53759 55.55 65.19444Z" fill-rule="nonzero"/><path fill="#000000" fill-opacity="0.0" clip-path="url(#id_0)" d="M64.05465 124.52796C64.05465 126.184814 62.7115 127.52796 61.054646 127.52796C59.397793 127.52796 58.054646 126.184814 58.054646 124.52796C58.054646 122.87111 59.397793 121.52796 61.054646 121.52796C62.7115 121.52796 64.05465 122.87111 64.05465 124.52796Z" fill-rule="nonzero"/><path fill="#000000" fill-opacity="0.0" clip-path="url(#id_0)" d="M143.43134 228.67662C143.43134 230.33347 142.0882 231.67662 140.43134 231.67662C138.77449 231.67662 137.43134 230.33347 137.43134 228.67662C137.43134 227.01976 138.77449 225.67662 140.43134 225.67662C142.0882 225.67662 143.43134 227.01976 143.43134 228.67662Z" fill-rule="nonzero"/><path fill="#000000" fill-opacity="0.0" clip-path="url(#id_0)" d="M415.58 285.1476C415.58 286.80447 414.23685 288.1476 412.58 288.1476C410.92316 288.1476 409.58 286.80447 409.58 285.1476C409.58 283.49075 410.92316 282.1476 412.58 282.1476C414.23685 282.1476 415.58 283.49075 415.58 285.1476Z" fill-rule="nonzero"/><path fill="#000000" fill-opacity="0.0" clip-path="url(#id_0)" d="M55.55 65.365715C55.55 67.02257 54.206856 68.365715 52.55 68.365715C50.893147 68.365715 49.55 67.02257 49.55 65.365715C49.55 63.708862 50.893147 62.365715 52.55 62.365715C54.206856 62.365715 55.55 63.708862 55.55 65.365715Z" fill-rule="nonzero"/><path fill="#000000" fill-opacity="0.0" clip-path="url(#id_0)" d="M64.05465 124.47559C64.05465 126.13245 62.7115 127.47559 61.054646 127.47559C59.397793 127.47559 58.054646 126.13245 58.054646 124.47559C58.054646 122.81874 59.397793 121.47559 61.054646 121.47559C62.7115 121.47559 64.05465 122.81874 64.05465 124.47559Z" fill-rule="nonzero"/><path fill="#000000" fill-opacity="0.0" clip-path="url(#id_0)" d="M143.43134 228.66151C143.43134 230.31837 142.0882 231.66151 140.43134 231.66151C138.77449 231.66151 137.43134 230.31837 137.43134 228.66151C137.43134 227.00467 138.77449 225.66151 140.43134 225.66151C142.0882 225.66151 143.43134 227.00467 143.43134 228.66151Z" fill-rule="nonzero"/><path fill="#000000" fill-opacity="0.0" clip-path="url(#id_0)" d="M415.58 284.78027C415.58 286.43713 414.23685 287.78027 412.58 287.78027C410.92316 287.78027 409.58 286.43713 409.58 284.78027C409.58 283.1234 410.92316 281.78027 412.58 281.78027C414.23685 281.78027 415.58 283.1234 415.58 284.78027Z" fill-rule="nonzero"/><path fill="#000000" fill-opacity="0.0" clip-path="url(#id_0)" d="M55.55 65.13624C55.55 66.79309 54.206856 68.13624 52.55 68.13624C50.893147 68.13624 49.55 66.79309 49.55 65.13624C49.55 63.479385 50.893147 62.136242 52.55 62.136242C54.206856 62.136242 55.55 63.479385 55.55 65.13624Z" fill-rule="nonzero"/><path fill="#000000" fill-opacity="0.0" clip-path="url(#id_0)" d="M64.05465 124.61775C64.05465 126.27461 62.7115 127.61775 61.054646 127.61775C59.397793 127.61775 58.054646 126.27461 58.054646 124.61775C58.054646 122.9609 59.397793 121.61775 61.054646 121.61775C62.7115 121.61775 64.05465 122.9609 64.05465 124.61775Z" fill-rule="nonzero"/><path fill="#000000" fill-opacity="0.0" clip-path="url(#id_0)" d="M143.43134 227.21492C143.43134 228.87177 142.0882 230.21492 140.43134 230.21492C138.77449 230.21492 137.43134 228.87177 137.43134 227.21492C137.43134 225.55806 138.77449 224.21492 140.43134 224.21492C142.0882 224.21492 143.43134 225.55806 143.43134 227.21492Z" fill-rule="nonzero"/><path fill="#000000" fill-opacity="0.0" clip-path="url(#id_0)" d="M415.58 274.47208C415.58 276.12894 414.23685 277.47208 412.58 277.47208C410.92316 277.47208 409.58 276.12894 409.58 274.47208C409.58 272.81522 410.92316 271.47208 412.58 271.47208C414.23685 271.47208 415.58 272.81522 415.58 274.47208Z" fill-rule="nonzero"/><path fill="#000000" fill-opacity="0.0" clip-path="url(#id_0)" d="M55.55 62.644238C55.55 64.301094 54.206856 65.64423 52.55 65.64423C50.893147 65.64423 49.55 64.301094 49.55 62.644238C49.55 60.98738 50.893147 59.644238 52.55 59.644238C54.206856 59.644238 55.55 60.98738 55.55 62.644238Z" fill-rule="nonzero"/><path fill="#000000" fill-opacity="0.0" clip-path="url(#id_0)" d="M64.05465 121.05546C64.05465 122.71231 62.7115 124.05546 61.054646 124.05546C59.397793 124.05546 58.054646 122.71231 58.054646 121.05546C58.054646 119.398605 59.397793 118.05546 61.054646 118.05546C62.7115 118.05546 64.05465 119.398605 64.05465 121.05546Z" fill-rule="nonzero"/><path fill="#000000" fill-opacity="0.0" clip-path="url(#id_0)" d="M143.43134 211.14581C143.43134 212.80267 142.0882 214.14581 140.43134 214.14581C138.77449 214.14581 137.43134 212.80267 137.43134 211.14581C137.43134 209.48895 138.77449 208.14581 140.43134 208.14581C142.0882 208.14581 143.43134 209.48895 143.43134 211.14581Z" fill-rule="nonzero"/><path fill="#000000" fill-opacity="0.0" clip-path="url(#id_0)" d="M415.58 265.71967C415.58 267.37653 414.23685 268.71967 412.58 268.71967C410.92316 268.71967 409.58 267.37653 409.58 265.71967C409.58 264.0628 410.92316 262.71967 412.58 262.71967C414.23685 262.71967 415.58 264.0628 415.58 265.71967Z" fill-rule="nonzero"/><path fill="#000000" fill-opacity="0.0" clip-path="url(#id_0)" d="M55.55 62.416668C55.55 64.073524 54.206856 65.416664 52.55 65.416664C50.893147 65.416664 49.55 64.073524 49.55 62.416668C49.55 60.75981 50.893147 59.416668 52.55 59.416668C54.206856 59.416668 55.55 60.75981 55.55 62.416668Z" fill-rule="nonzero"/><path fill="#000000" fill-opacity="0.0" clip-path="url(#id_0)" d="M64.05465 120.30443C64.05465 121.96128 62.7115 123.30443 61.054646 123.30443C59.397793 123.30443 58.054646 121.96128 58.054646 120.30443C58.054646 118.64757 59.397793 117.30443 61.054646 117.30443C62.7115 117.30443 64.05465 118.64757 64.05465 120.30443Z" fill-rule="nonzero"/><path fill="#000000" fill-opacity="0.0" clip-path="url(#id_0)" d="M143.43134 210.973C143.43134 212.62985 142.0882 213.973 140.43134 213.973C138.77449 213.973 137.43134 212.62985 137.43134 210.973C137.43134 209.31615 138.77449 207.973 140.43134 207.973C142.0882 207.973 143.43134 209.31615 143.43134 210.973Z" fill-rule="nonzero"/><path fill="#000000" fill-opacity="0.0" clip-path="url(#id_0)" d="M415.58 265.54156C415.58 267.1984 414.23685 268.54156 412.58 268.54156C410.92316 268.54156 409.58 267.1984 409.58 265.54156C409.58 263.8847 410.92316 262.54156 412.58 262.54156C414.23685 262.54156 415.58 263.8847 415.58 265.54156Z" fill-rule="nonzero"/><path fill="#424242" d="M216.26813 345.6844L212.67438 345.6844L212.67438 349.45L211.54938 349.45L211.54938 340.91876L216.84625 340.91876L216.84625 341.84064L212.67438 341.84064L212.67438 344.7625L216.26813 344.7625L216.26813 345.6844ZM219.565 349.45L218.48688 349.45L218.48688 343.10626L219.565 343.10626L219.565 349.45ZM218.39313 341.4344Q218.39313 341.16876 218.54938 340.98126Q218.72125 340.79376 219.03375 340.79376Q219.34625 340.79376 219.5025 340.98126Q219.67438 341.16876 219.67438 341.4344Q219.67438 341.6844 219.5025 341.8719Q219.34625 342.04376 219.03375 342.04376Q218.72125 342.04376 218.54938 341.8719Q218.39313 341.6844 218.39313 341.4344ZM222.565 349.45L221.48688 349.45L221.48688 340.45L222.565 340.45L222.565 349.45ZM227.01813 349.575Q225.72125 349.575 224.90875 348.73126Q224.11188 347.8719 224.11188 346.45L224.11188 346.2625Q224.11188 345.3094 224.47125 344.575Q224.83063 343.825 225.47125 343.41876Q226.1275 342.9969 226.8775 342.9969Q228.11188 342.9969 228.79938 343.8094Q229.48688 344.6219 229.48688 346.1375L229.48688 346.59064L225.19 346.59064Q225.22125 347.52814 225.73688 348.10626Q226.26813 348.6844 227.08063 348.6844Q227.64313 348.6844 228.03375 348.45Q228.44 348.21564 228.7525 347.825L229.40875 348.34064Q228.61188 349.575 227.01813 349.575ZM226.8775 343.8875Q226.22125 343.8875 225.76813 344.3719Q225.33063 344.84064 225.23688 345.7L228.40875 345.7L228.40875 345.6219Q228.36188 344.79376 227.95563 344.34064Q227.565 343.8875 226.8775 343.8875ZM236.065 345.65314Q234.6275 345.23126 233.95563 344.6219Q233.29938 344.0125 233.29938 343.1219Q233.29938 342.1219 234.09625 341.46564Q234.90875 340.79376 236.20563 340.79376Q237.08063 340.79376 237.76813 341.1375Q238.45563 341.48126 238.83063 342.075Q239.22125 342.66876 239.22125 343.3875L238.08063 343.3875Q238.08063 342.60626 237.58063 342.16876Q237.09625 341.73126 236.20563 341.73126Q235.3775 341.73126 234.90875 342.10626Q234.44 342.46564 234.44 343.10626Q234.44 343.6375 234.8775 343.9969Q235.33063 344.35626 236.39313 344.65314Q237.45563 344.95 238.04938 345.3094Q238.65875 345.66876 238.94 346.15314Q239.23688 346.6375 239.23688 347.27814Q239.23688 348.325 238.42438 348.95Q237.61188 349.575 236.26813 349.575Q235.3775 349.575 234.61188 349.23126Q233.86188 348.8875 233.44 348.3094Q233.03375 347.71564 233.03375 346.98126L234.15875 346.98126Q234.15875 347.7469 234.73688 348.2Q235.315 348.65314 236.26813 348.65314Q237.15875 348.65314 237.6275 348.29376Q238.09625 347.91876 238.09625 347.29376Q238.09625 346.66876 237.65875 346.325Q237.22125 345.98126 236.065 345.65314ZM241.565 349.45L240.48688 349.45L240.48688 343.10626L241.565 343.10626L241.565 349.45ZM240.39313 341.4344Q240.39313 341.16876 240.54938 340.98126Q240.72125 340.79376 241.03375 340.79376Q241.34625 340.79376 241.5025 340.98126Q241.67438 341.16876 241.67438 341.4344Q241.67438 341.6844 241.5025 341.8719Q241.34625 342.04376 241.03375 342.04376Q240.72125 342.04376 240.54938 341.8719Q240.39313 341.6844 240.39313 341.4344ZM244.40875 348.5594L248.11188 348.5594L248.11188 349.45L243.08063 349.45L243.08063 348.65314L246.58063 344.0125L243.1275 344.0125L243.1275 343.10626L247.94 343.10626L247.94 343.8719L244.40875 348.5594ZM252.01813 349.575Q250.72125 349.575 249.90875 348.73126Q249.11188 347.8719 249.11188 346.45L249.11188 346.2625Q249.11188 345.3094 249.47125 344.575Q249.83063 343.825 250.47125 343.41876Q251.1275 342.9969 251.8775 342.9969Q253.11188 342.9969 253.79938 343.8094Q254.48688 344.6219 254.48688 346.1375L254.48688 346.59064L250.19 346.59064Q250.22125 347.52814 250.73688 348.10626Q251.26813 348.6844 252.08063 348.6844Q252.64313 348.6844 253.03375 348.45Q253.44 348.21564 253.7525 347.825L254.40875 348.34064Q253.61188 349.575 252.01813 349.575ZM251.8775 343.8875Q251.22125 343.8875 250.76813 344.3719Q250.33063 344.84064 250.23688 345.7L253.40875 345.7L253.40875 345.6219Q253.36188 344.79376 252.95563 344.34064Q252.565 343.8875 251.8775 343.8875Z" fill-rule="nonzero"/><path fill="#757575" d="M40.753124 296.5617L41.190624 292.3117L45.565624 292.3117L45.565624 293.3117L42.1125 293.3117L41.846874 295.63983Q42.4875 295.26483 43.284374 295.26483Q44.440624 295.26483 45.128124 296.04608Q45.815624 296.8117 45.815624 298.1242Q45.815624 299.4367 45.096874 300.20233Q44.39375 300.96796 43.1125 300.96796Q41.9875 300.96796 41.26875 300.34296Q40.55 299.70233 40.45625 298.59296L41.471874 298.59296Q41.58125 299.32733 42.003124 299.70233Q42.425 300.07733 43.1125 300.07733Q43.8625 300.07733 44.3 299.5617Q44.7375 299.04608 44.7375 298.13983Q44.7375 297.28046 44.26875 296.76483Q43.8 296.2492 43.01875 296.2492Q42.315624 296.2492 41.909374 296.54608L41.628124 296.78046L40.753124 296.5617Z" fill-rule="nonzero"/><path fill="#757575" d="M36.815624 271.64398L35.7375 271.64398L35.7375 264.42523L33.55 265.2221L33.55 264.23773L36.659374 263.06586L36.815624 263.06586L36.815624 271.64398ZM45.6125 268.00336Q45.6125 269.9096 44.95625 270.8471Q44.315624 271.76898 42.925 271.76898Q41.565624 271.76898 40.909374 270.86273Q40.253124 269.95648 40.221874 268.14398L40.221874 266.70648Q40.221874 264.81586 40.8625 263.9096Q41.51875 262.98773 42.909374 262.98773Q44.284374 262.98773 44.940624 263.87836Q45.596874 264.75336 45.6125 266.5971L45.6125 268.00336ZM44.51875 266.51898Q44.51875 265.14398 44.128124 264.51898Q43.753124 263.87836 42.909374 263.87836Q42.08125 263.87836 41.690624 264.51898Q41.315624 265.14398 41.315624 266.44086L41.315624 268.17523Q41.315624 269.55023 41.70625 270.2221Q42.1125 270.87836 42.925 270.87836Q43.721874 270.87836 44.1125 270.25336Q44.503124 269.62836 44.51875 268.30023L44.51875 266.51898Z" fill-rule="nonzero"/><path fill="#757575" d="M33.753124 199.56476L34.190624 195.31476L38.565624 195.31476L38.565624 196.31476L35.1125 196.31476L34.846874 198.64288Q35.4875 198.26788 36.284374 198.26788Q37.440624 198.26788 38.128124 199.04913Q38.815624 199.81476 38.815624 201.12726Q38.815624 202.43976 38.096874 203.20538Q37.39375 203.97101 36.1125 203.97101Q34.9875 203.97101 34.26875 203.34601Q33.55 202.70538 33.45625 201.59601L34.471874 201.59601Q34.58125 202.33038 35.003124 202.70538Q35.425 203.08038 36.1125 203.08038Q36.8625 203.08038 37.3 202.56476Q37.7375 202.04913 37.7375 201.14288Q37.7375 200.28351 37.26875 199.76788Q36.8 199.25226 36.01875 199.25226Q35.315624 199.25226 34.909374 199.54913L34.628124 199.78351L33.753124 199.56476ZM45.6125 200.20538Q45.6125 202.11163 44.95625 203.04913Q44.315624 203.97101 42.925 203.97101Q41.565624 203.97101 40.909374 203.06476Q40.253124 202.15851 40.221874 200.34601L40.221874 198.90851Q40.221874 197.01788 40.8625 196.11163Q41.51875 195.18976 42.909374 195.18976Q44.284374 195.18976 44.940624 196.08038Q45.596874 196.95538 45.6125 198.79913L45.6125 200.20538ZM44.51875 198.72101Q44.51875 197.34601 44.128124 196.72101Q43.753124 196.08038 42.909374 196.08038Q42.08125 196.08038 41.690624 196.72101Q41.315624 197.34601 41.315624 198.64288L41.315624 200.37726Q41.315624 201.75226 41.70625 202.42413Q42.1125 203.08038 42.925 203.08038Q43.721874 203.08038 44.1125 202.45538Q44.503124 201.83038 44.51875 200.50226L44.51875 198.72101Z" fill-rule="nonzero"/><path fill="#757575" d="M29.815624 174.64702L28.7375 174.64702L28.7375 167.42827L26.55 168.22514L26.55 167.24077L29.659374 166.0689L29.815624 166.0689L29.815624 174.64702ZM38.6125 171.0064Q38.6125 172.91264 37.95625 173.85014Q37.315624 174.77202 35.925 174.77202Q34.565624 174.77202 33.909374 173.86577Q33.253124 172.95952 33.221874 171.14702L33.221874 169.70952Q33.221874 167.8189 33.8625 166.91264Q34.51875 165.99077 35.909374 165.99077Q37.284374 165.99077 37.940624 166.8814Q38.596874 167.7564 38.6125 169.60014L38.6125 171.0064ZM37.51875 169.52202Q37.51875 168.14702 37.128124 167.52202Q36.753124 166.8814 35.909374 166.8814Q35.08125 166.8814 34.690624 167.52202Q34.315624 168.14702 34.315624 169.4439L34.315624 171.17827Q34.315624 172.55327 34.70625 173.22514Q35.1125 173.8814 35.925 173.8814Q36.721874 173.8814 37.1125 173.2564Q37.503124 172.6314 37.51875 171.30327L37.51875 169.52202ZM45.6125 171.0064Q45.6125 172.91264 44.95625 173.85014Q44.315624 174.77202 42.925 174.77202Q41.565624 174.77202 40.909374 173.86577Q40.253124 172.95952 40.221874 171.14702L40.221874 169.70952Q40.221874 167.8189 40.8625 166.91264Q41.51875 165.99077 42.909374 165.99077Q44.284374 165.99077 44.940624 166.8814Q45.596874 167.7564 45.6125 169.60014L45.6125 171.0064ZM44.51875 169.52202Q44.51875 168.14702 44.128124 167.52202Q43.753124 166.8814 42.909374 166.8814Q42.08125 166.8814 41.690624 167.52202Q41.315624 168.14702 41.315624 169.4439L41.315624 171.17827Q41.315624 172.55327 41.70625 173.22514Q42.1125 173.8814 42.925 173.8814Q43.721874 173.8814 44.1125 173.2564Q44.503124 172.6314 44.51875 171.30327L44.51875 169.52202Z" fill-rule="nonzero"/><path fill="#757575" d="M26.753124 102.56781L27.190624 98.31781L31.565624 98.31781L31.565624 99.31781L28.1125 99.31781L27.846874 101.645935Q28.4875 101.270935 29.284374 101.270935Q30.440624 101.270935 31.128124 102.052185Q31.815624 102.81781 31.815624 104.13031Q31.815624 105.44281 31.096874 106.208435Q30.39375 106.97406 29.1125 106.97406Q27.9875 106.97406 27.26875 106.34906Q26.55 105.708435 26.45625 104.59906L27.471874 104.59906Q27.58125 105.333435 28.003124 105.708435Q28.425 106.083435 29.1125 106.083435Q29.8625 106.083435 30.3 105.56781Q30.7375 105.052185 30.7375 104.145935Q30.7375 103.28656 30.26875 102.770935Q29.8 102.25531 29.01875 102.25531Q28.315624 102.25531 27.909374 102.552185L27.628124 102.78656L26.753124 102.56781ZM38.6125 103.208435Q38.6125 105.114685 37.95625 106.052185Q37.315624 106.97406 35.925 106.97406Q34.565624 106.97406 33.909374 106.06781Q33.253124 105.16156 33.221874 103.34906L33.221874 101.91156Q33.221874 100.020935 33.8625 99.114685Q34.51875 98.19281 35.909374 98.19281Q37.284374 98.19281 37.940624 99.083435Q38.596874 99.958435 38.6125 101.802185L38.6125 103.208435ZM37.51875 101.72406Q37.51875 100.34906 37.128124 99.72406Q36.753124 99.083435 35.909374 99.083435Q35.08125 99.083435 34.690624 99.72406Q34.315624 100.34906 34.315624 101.645935L34.315624 103.38031Q34.315624 104.75531 34.70625 105.427185Q35.1125 106.083435 35.925 106.083435Q36.721874 106.083435 37.1125 105.458435Q37.503124 104.833435 37.51875 103.50531L37.51875 101.72406ZM45.6125 103.208435Q45.6125 105.114685 44.95625 106.052185Q44.315624 106.97406 42.925 106.97406Q41.565624 106.97406 40.909374 106.06781Q40.253124 105.16156 40.221874 103.34906L40.221874 101.91156Q40.221874 100.020935 40.8625 99.114685Q41.51875 98.19281 42.909374 98.19281Q44.284374 98.19281 44.940624 99.083435Q45.596874 99.958435 45.6125 101.802185L45.6125 103.208435ZM44.51875 101.72406Q44.51875 100.34906 44.128124 99.72406Q43.753124 99.083435 42.909374 99.083435Q42.08125 99.083435 41.690624 99.72406Q41.315624 100.34906 41.315624 101.645935L41.315624 103.38031Q41.315624 104.75531 41.70625 105.427185Q42.1125 106.083435 42.925 106.083435Q43.721874 106.083435 44.1125 105.458435Q44.503124 104.833435 44.51875 103.50531L44.51875 101.72406Z" fill-rule="nonzero"/><path fill="#757575" d="M22.815624 77.65006L21.7375 77.65006L21.7375 70.43131L19.55 71.22819L19.55 70.24381L22.659374 69.07194L22.815624 69.07194L22.815624 77.65006ZM31.6125 74.00944Q31.6125 75.91569 30.95625 76.85319Q30.315624 77.77506 28.925 77.77506Q27.565624 77.77506 26.909374 76.86881Q26.253124 75.96256 26.221874 74.15006L26.221874 72.71256Q26.221874 70.82194 26.8625 69.91569Q27.51875 68.99381 28.909374 68.99381Q30.284374 68.99381 30.940624 69.88444Q31.596874 70.75944 31.6125 72.60319L31.6125 74.00944ZM30.51875 72.52506Q30.51875 71.15006 30.128124 70.52506Q29.753124 69.88444 28.909374 69.88444Q28.08125 69.88444 27.690624 70.52506Q27.315624 71.15006 27.315624 72.44694L27.315624 74.18131Q27.315624 75.55631 27.70625 76.22819Q28.1125 76.88444 28.925 76.88444Q29.721874 76.88444 30.1125 76.25944Q30.503124 75.63444 30.51875 74.30631L30.51875 72.52506ZM38.6125 74.00944Q38.6125 75.91569 37.95625 76.85319Q37.315624 77.77506 35.925 77.77506Q34.565624 77.77506 33.909374 76.86881Q33.253124 75.96256 33.221874 74.15006L33.221874 72.71256Q33.221874 70.82194 33.8625 69.91569Q34.51875 68.99381 35.909374 68.99381Q37.284374 68.99381 37.940624 69.88444Q38.596874 70.75944 38.6125 72.60319L38.6125 74.00944ZM37.51875 72.52506Q37.51875 71.15006 37.128124 70.52506Q36.753124 69.88444 35.909374 69.88444Q35.08125 69.88444 34.690624 70.52506Q34.315624 71.15006 34.315624 72.44694L34.315624 74.18131Q34.315624 75.55631 34.70625 76.22819Q35.1125 76.88444 35.925 76.88444Q36.721874 76.88444 37.1125 76.25944Q37.503124 75.63444 37.51875 74.30631L37.51875 72.52506ZM45.6125 74.00944Q45.6125 75.91569 44.95625 76.85319Q44.315624 77.77506 42.925 77.77506Q41.565624 77.77506 40.909374 76.86881Q40.253124 75.96256 40.221874 74.15006L40.221874 72.71256Q40.221874 70.82194 40.8625 69.91569Q41.51875 68.99381 42.909374 68.99381Q44.284374 68.99381 44.940624 69.88444Q45.596874 70.75944 45.6125 72.60319L45.6125 74.00944ZM44.51875 72.52506Q44.51875 71.15006 44.128124 70.52506Q43.753124 69.88444 42.909374 69.88444Q42.08125 69.88444 41.690624 70.52506Q41.315624 71.15006 41.315624 72.44694L41.315624 74.18131Q41.315624 75.55631 41.70625 76.22819Q42.1125 76.88444 42.925 76.88444Q43.721874 76.88444 44.1125 76.25944Q44.503124 75.63444 44.51875 74.30631L44.51875 72.52506Z" fill-rule="nonzero"/><path fill="#757575" d="M92.28703 312.16876L92.72453 307.91876L97.09953 307.91876L97.09953 308.91876L93.64641 308.91876L93.38078 311.2469Q94.02141 310.8719 94.81828 310.8719Q95.97453 310.8719 96.66203 311.65314Q97.34953 312.41876 97.34953 313.73126Q97.34953 315.04376 96.63078 315.8094Q95.92766 316.575 94.64641 316.575Q93.52141 316.575 92.80266 315.95Q92.08391 315.3094 91.99016 314.2L93.00578 314.2Q93.11516 314.9344 93.53703 315.3094Q93.95891 315.6844 94.64641 315.6844Q95.39641 315.6844 95.83391 315.16876Q96.27141 314.65314 96.27141 313.7469Q96.27141 312.8875 95.80266 312.3719Q95.33391 311.85626 94.55266 311.85626Q93.84953 311.85626 93.44328 312.15314L93.16203 312.3875L92.28703 312.16876ZM104.14641 312.8094Q104.14641 314.71564 103.49016 315.65314Q102.84953 316.575 101.45891 316.575Q100.09953 316.575 99.44328 315.66876Q98.78703 314.7625 98.75578 312.95L98.75578 311.5125Q98.75578 309.6219 99.39641 308.71564Q100.05266 307.79376 101.44328 307.79376Q102.81828 307.79376 103.47453 308.6844Q104.13078 309.5594 104.14641 311.40314L104.14641 312.8094ZM103.05266 311.325Q103.05266 309.95 102.66203 309.325Q102.28703 308.6844 101.44328 308.6844Q100.61516 308.6844 100.22453 309.325Q99.84953 309.95 99.84953 311.2469L99.84953 312.98126Q99.84953 314.35626 100.24016 315.02814Q100.64641 315.6844 101.45891 315.6844Q102.25578 315.6844 102.64641 315.0594Q103.03703 314.4344 103.05266 313.10626L103.05266 311.325ZM111.14641 312.8094Q111.14641 314.71564 110.49016 315.65314Q109.84953 316.575 108.45891 316.575Q107.09953 316.575 106.44328 315.66876Q105.78703 314.7625 105.75578 312.95L105.75578 311.5125Q105.75578 309.6219 106.39641 308.71564Q107.05266 307.79376 108.44328 307.79376Q109.81828 307.79376 110.47453 308.6844Q111.13078 309.5594 111.14641 311.40314L111.14641 312.8094ZM110.05266 311.325Q110.05266 309.95 109.66203 309.325Q109.28703 308.6844 108.44328 308.6844Q107.61516 308.6844 107.22453 309.325Q106.84953 309.95 106.84953 311.2469L106.84953 312.98126Q106.84953 314.35626 107.24016 315.02814Q107.64641 315.6844 108.45891 315.6844Q109.25578 315.6844 109.64641 315.0594Q110.03703 314.4344 110.05266 313.10626L110.05266 311.325ZM118.14641 312.8094Q118.14641 314.71564 117.49016 315.65314Q116.84953 316.575 115.45891 316.575Q114.09953 316.575 113.44328 315.66876Q112.78703 314.7625 112.75578 312.95L112.75578 311.5125Q112.75578 309.6219 113.39641 308.71564Q114.05266 307.79376 115.44328 307.79376Q116.81828 307.79376 117.47453 308.6844Q118.13078 309.5594 118.14641 311.40314L118.14641 312.8094ZM117.05266 311.325Q117.05266 309.95 116.66203 309.325Q116.28703 308.6844 115.44328 308.6844Q114.61516 308.6844 114.22453 309.325Q113.84953 309.95 113.84953 311.2469L113.84953 312.98126Q113.84953 314.35626 114.24016 315.02814Q114.64641 315.6844 115.45891 315.6844Q116.25578 315.6844 116.64641 315.0594Q117.03703 314.4344 117.05266 313.10626L117.05266 311.325Z" fill-rule="nonzero"/><path fill="#757575" d="M147.21832 316.45L146.1402 316.45L146.1402 309.23126L143.9527 310.02814L143.9527 309.04376L147.06207 307.8719L147.21832 307.8719L147.21832 316.45ZM156.0152 312.8094Q156.0152 314.71564 155.35895 315.65314Q154.71832 316.575 153.3277 316.575Q151.96832 316.575 151.31207 315.66876Q150.65582 314.7625 150.62457 312.95L150.62457 311.5125Q150.62457 309.6219 151.2652 308.71564Q151.92145 307.79376 153.31207 307.79376Q154.68707 307.79376 155.34332 308.6844Q155.99957 309.5594 156.0152 311.40314L156.0152 312.8094ZM154.92145 311.325Q154.92145 309.95 154.53082 309.325Q154.15582 308.6844 153.31207 308.6844Q152.48395 308.6844 152.09332 309.325Q151.71832 309.95 151.71832 311.2469L151.71832 312.98126Q151.71832 314.35626 152.10895 315.02814Q152.5152 315.6844 153.3277 315.6844Q154.12457 315.6844 154.5152 315.0594Q154.90582 314.4344 154.92145 313.10626L154.92145 311.325ZM163.0152 312.8094Q163.0152 314.71564 162.35895 315.65314Q161.71832 316.575 160.3277 316.575Q158.96832 316.575 158.31207 315.66876Q157.65582 314.7625 157.62457 312.95L157.62457 311.5125Q157.62457 309.6219 158.2652 308.71564Q158.92145 307.79376 160.31207 307.79376Q161.68707 307.79376 162.34332 308.6844Q162.99957 309.5594 163.0152 311.40314L163.0152 312.8094ZM161.92145 311.325Q161.92145 309.95 161.53082 309.325Q161.15582 308.6844 160.31207 308.6844Q159.48395 308.6844 159.09332 309.325Q158.71832 309.95 158.71832 311.2469L158.71832 312.98126Q158.71832 314.35626 159.10895 315.02814Q159.5152 315.6844 160.3277 315.6844Q161.12457 315.6844 161.5152 315.0594Q161.90582 314.4344 161.92145 313.10626L161.92145 311.325ZM170.0152 312.8094Q170.0152 314.71564 169.35895 315.65314Q168.71832 316.575 167.3277 316.575Q165.96832 316.575 165.31207 315.66876Q164.65582 314.7625 164.62457 312.95L164.62457 311.5125Q164.62457 309.6219 165.2652 308.71564Q165.92145 307.79376 167.31207 307.79376Q168.68707 307.79376 169.34332 308.6844Q169.99957 309.5594 170.0152 311.40314L170.0152 312.8094ZM168.92145 311.325Q168.92145 309.95 168.53082 309.325Q168.15582 308.6844 167.31207 308.6844Q166.48395 308.6844 166.09332 309.325Q165.71832 309.95 165.71832 311.2469L165.71832 312.98126Q165.71832 314.35626 166.10895 315.02814Q166.5152 315.6844 167.3277 315.6844Q168.12457 315.6844 168.5152 315.0594Q168.90582 314.4344 168.92145 313.10626L168.92145 311.325ZM177.0152 312.8094Q177.0152 314.71564 176.35895 315.65314Q175.71832 316.575 174.3277 316.575Q172.96832 316.575 172.31207 315.66876Q171.65582 314.7625 171.62457 312.95L171.62457 311.5125Q171.62457 309.6219 172.2652 308.71564Q172.92145 307.79376 174.31207 307.79376Q175.68707 307.79376 176.34332 308.6844Q176.99957 309.5594 177.0152 311.40314L177.0152 312.8094ZM175.92145 311.325Q175.92145 309.95 175.53082 309.325Q175.15582 308.6844 174.31207 308.6844Q173.48395 308.6844 173.09332 309.325Q172.71832 309.95 172.71832 311.2469L172.71832 312.98126Q172.71832 314.35626 173.10895 315.02814Q173.5152 315.6844 174.3277 315.6844Q175.12457 315.6844 175.5152 315.0594Q175.90582 314.4344 175.92145 313.10626L175.92145 311.325Z" fill-rule="nonzero"/><path fill="#757575" d="M202.5871 316.45L201.50897 316.45L201.50897 309.23126L199.32147 310.02814L199.32147 309.04376L202.43085 307.8719L202.5871 307.8719L202.5871 316.45ZM206.5246 312.16876L206.9621 307.91876L211.3371 307.91876L211.3371 308.91876L207.88397 308.91876L207.61835 311.2469Q208.25897 310.8719 209.05585 310.8719Q210.2121 310.8719 210.8996 311.65314Q211.5871 312.41876 211.5871 313.73126Q211.5871 315.04376 210.86835 315.8094Q210.16522 316.575 208.88397 316.575Q207.75897 316.575 207.04022 315.95Q206.32147 315.3094 206.22772 314.2L207.24335 314.2Q207.35272 314.9344 207.7746 315.3094Q208.19647 315.6844 208.88397 315.6844Q209.63397 315.6844 210.07147 315.16876Q210.50897 314.65314 210.50897 313.7469Q210.50897 312.8875 210.04022 312.3719Q209.57147 311.85626 208.79022 311.85626Q208.0871 311.85626 207.68085 312.15314L207.3996 312.3875L206.5246 312.16876ZM218.38397 312.8094Q218.38397 314.71564 217.72772 315.65314Q217.0871 316.575 215.69647 316.575Q214.3371 316.575 213.68085 315.66876Q213.0246 314.7625 212.99335 312.95L212.99335 311.5125Q212.99335 309.6219 213.63397 308.71564Q214.29022 307.79376 215.68085 307.79376Q217.05585 307.79376 217.7121 308.6844Q218.36835 309.5594 218.38397 311.40314L218.38397 312.8094ZM217.29022 311.325Q217.29022 309.95 216.8996 309.325Q216.5246 308.6844 215.68085 308.6844Q214.85272 308.6844 214.4621 309.325Q214.0871 309.95 214.0871 311.2469L214.0871 312.98126Q214.0871 314.35626 214.47772 315.02814Q214.88397 315.6844 215.69647 315.6844Q216.49335 315.6844 216.88397 315.0594Q217.2746 314.4344 217.29022 313.10626L217.29022 311.325ZM225.38397 312.8094Q225.38397 314.71564 224.72772 315.65314Q224.0871 316.575 222.69647 316.575Q221.3371 316.575 220.68085 315.66876Q220.0246 314.7625 219.99335 312.95L219.99335 311.5125Q219.99335 309.6219 220.63397 308.71564Q221.29022 307.79376 222.68085 307.79376Q224.05585 307.79376 224.7121 308.6844Q225.36835 309.5594 225.38397 311.40314L225.38397 312.8094ZM224.29022 311.325Q224.29022 309.95 223.8996 309.325Q223.5246 308.6844 222.68085 308.6844Q221.85272 308.6844 221.4621 309.325Q221.0871 309.95 221.0871 311.2469L221.0871 312.98126Q221.0871 314.35626 221.47772 315.02814Q221.88397 315.6844 222.69647 315.6844Q223.49335 315.6844 223.88397 315.0594Q224.2746 314.4344 224.29022 313.10626L224.29022 311.325ZM232.38397 312.8094Q232.38397 314.71564 231.72772 315.65314Q231.0871 316.575 229.69647 316.575Q228.3371 316.575 227.68085 315.66876Q227.0246 314.7625 226.99335 312.95L226.99335 311.5125Q226.99335 309.6219 227.63397 308.71564Q228.29022 307.79376 229.68085 307.79376Q231.05585 307.79376 231.7121 308.6844Q232.36835 309.5594 232.38397 311.40314L232.38397 312.8094ZM231.29022 311.325Q231.29022 309.95 230.8996 309.325Q230.5246 308.6844 229.68085 308.6844Q228.85272 308.6844 228.4621 309.325Q228.0871 309.95 228.0871 311.2469L228.0871 312.98126Q228.0871 314.35626 228.47772 315.02814Q228.88397 315.6844 229.69647 315.6844Q230.49335 315.6844 230.88397 315.0594Q231.2746 314.4344 231.29022 313.10626L231.29022 311.325Z" fill-rule="nonzero"/><path fill="#757575" d="M259.98712 316.45L254.39339 316.45L254.39339 315.66876L257.3465 312.3875Q258.00275 311.6375 258.25275 311.1844Q258.50275 310.71564 258.50275 310.21564Q258.50275 309.54376 258.0965 309.1219Q257.70587 308.6844 257.01837 308.6844Q256.2215 308.6844 255.76839 309.15314Q255.31526 309.60626 255.31526 310.4344L254.23714 310.4344Q254.23714 309.2469 254.98714 308.52814Q255.75276 307.79376 257.01837 307.79376Q258.2215 307.79376 258.909 308.41876Q259.5965 309.04376 259.5965 310.09064Q259.5965 311.34064 257.98712 313.09064L255.70589 315.5594L259.98712 315.5594L259.98712 316.45ZM266.75275 312.8094Q266.75275 314.71564 266.0965 315.65314Q265.45587 316.575 264.06525 316.575Q262.70587 316.575 262.04962 315.66876Q261.39337 314.7625 261.36212 312.95L261.36212 311.5125Q261.36212 309.6219 262.00275 308.71564Q262.659 307.79376 264.04962 307.79376Q265.42462 307.79376 266.08087 308.6844Q266.73712 309.5594 266.75275 311.40314L266.75275 312.8094ZM265.659 311.325Q265.659 309.95 265.26837 309.325Q264.89337 308.6844 264.04962 308.6844Q263.2215 308.6844 262.83087 309.325Q262.45587 309.95 262.45587 311.2469L262.45587 312.98126Q262.45587 314.35626 262.8465 315.02814Q263.25275 315.6844 264.06525 315.6844Q264.86212 315.6844 265.25275 315.0594Q265.64337 314.4344 265.659 313.10626L265.659 311.325ZM273.75275 312.8094Q273.75275 314.71564 273.0965 315.65314Q272.45587 316.575 271.06525 316.575Q269.70587 316.575 269.04962 315.66876Q268.39337 314.7625 268.36212 312.95L268.36212 311.5125Q268.36212 309.6219 269.00275 308.71564Q269.659 307.79376 271.04962 307.79376Q272.42462 307.79376 273.08087 308.6844Q273.73712 309.5594 273.75275 311.40314L273.75275 312.8094ZM272.659 311.325Q272.659 309.95 272.26837 309.325Q271.89337 308.6844 271.04962 308.6844Q270.2215 308.6844 269.83087 309.325Q269.45587 309.95 269.45587 311.2469L269.45587 312.98126Q269.45587 314.35626 269.8465 315.02814Q270.25275 315.6844 271.06525 315.6844Q271.86212 315.6844 272.25275 315.0594Q272.64337 314.4344 272.659 313.10626L272.659 311.325ZM280.75275 312.8094Q280.75275 314.71564 280.0965 315.65314Q279.45587 316.575 278.06525 316.575Q276.70587 316.575 276.04962 315.66876Q275.39337 314.7625 275.36212 312.95L275.36212 311.5125Q275.36212 309.6219 276.00275 308.71564Q276.659 307.79376 278.04962 307.79376Q279.42462 307.79376 280.08087 308.6844Q280.73712 309.5594 280.75275 311.40314L280.75275 312.8094ZM279.659 311.325Q279.659 309.95 279.26837 309.325Q278.89337 308.6844 278.04962 308.6844Q277.2215 308.6844 276.83087 309.325Q276.45587 309.95 276.45587 311.2469L276.45587 312.98126Q276.45587 314.35626 276.8465 315.02814Q277.25275 315.6844 278.06525 315.6844Q278.86212 315.6844 279.25275 315.0594Q279.64337 314.4344 279.659 313.10626L279.659 311.325ZM287.75275 312.8094Q287.75275 314.71564 287.0965 315.65314Q286.45587 316.575 285.06525 316.575Q283.70587 316.575 283.04962 315.66876Q282.39337 314.7625 282.36212 312.95L282.36212 311.5125Q282.36212 309.6219 283.00275 308.71564Q283.659 307.79376 285.04962 307.79376Q286.42462 307.79376 287.08087 308.6844Q287.73712 309.5594 287.75275 311.40314L287.75275 312.8094ZM286.659 311.325Q286.659 309.95 286.26837 309.325Q285.89337 308.6844 285.04962 308.6844Q284.2215 308.6844 283.83087 309.325Q283.45587 309.95 283.45587 311.2469L283.45587 312.98126Q283.45587 314.35626 283.8465 315.02814Q284.25275 315.6844 285.06525 315.6844Q285.86212 315.6844 286.25275 315.0594Q286.64337 314.4344 286.659 313.10626L286.659 311.325Z" fill-rule="nonzero"/><path fill="#757575" d="M315.35593 316.45L309.76218 316.45L309.76218 315.66876L312.7153 312.3875Q313.37155 311.6375 313.62155 311.1844Q313.87155 310.71564 313.87155 310.21564Q313.87155 309.54376 313.4653 309.1219Q313.07468 308.6844 312.38718 308.6844Q311.5903 308.6844 311.13718 309.15314Q310.68405 309.60626 310.68405 310.4344L309.60593 310.4344Q309.60593 309.2469 310.35593 308.52814Q311.12155 307.79376 312.38718 307.79376Q313.5903 307.79376 314.2778 308.41876Q314.9653 309.04376 314.9653 310.09064Q314.9653 311.34064 313.35593 313.09064L311.07468 315.5594L315.35593 315.5594L315.35593 316.45ZM317.26218 312.16876L317.69968 307.91876L322.07468 307.91876L322.07468 308.91876L318.62155 308.91876L318.35593 311.2469Q318.99655 310.8719 319.79343 310.8719Q320.94968 310.8719 321.63718 311.65314Q322.32468 312.41876 322.32468 313.73126Q322.32468 315.04376 321.60593 315.8094Q320.9028 316.575 319.62155 316.575Q318.49655 316.575 317.7778 315.95Q317.05905 315.3094 316.9653 314.2L317.98093 314.2Q318.0903 314.9344 318.51218 315.3094Q318.93405 315.6844 319.62155 315.6844Q320.37155 315.6844 320.80905 315.16876Q321.24655 314.65314 321.24655 313.7469Q321.24655 312.8875 320.7778 312.3719Q320.30905 311.85626 319.5278 311.85626Q318.82468 311.85626 318.41843 312.15314L318.13718 312.3875L317.26218 312.16876ZM329.12155 312.8094Q329.12155 314.71564 328.4653 315.65314Q327.82468 316.575 326.43405 316.575Q325.07468 316.575 324.41843 315.66876Q323.76218 314.7625 323.73093 312.95L323.73093 311.5125Q323.73093 309.6219 324.37155 308.71564Q325.0278 307.79376 326.41843 307.79376Q327.79343 307.79376 328.44968 308.6844Q329.10593 309.5594 329.12155 311.40314L329.12155 312.8094ZM328.0278 311.325Q328.0278 309.95 327.63718 309.325Q327.26218 308.6844 326.41843 308.6844Q325.5903 308.6844 325.19968 309.325Q324.82468 309.95 324.82468 311.2469L324.82468 312.98126Q324.82468 314.35626 325.2153 315.02814Q325.62155 315.6844 326.43405 315.6844Q327.23093 315.6844 327.62155 315.0594Q328.01218 314.4344 328.0278 313.10626L328.0278 311.325ZM336.12155 312.8094Q336.12155 314.71564 335.4653 315.65314Q334.82468 316.575 333.43405 316.575Q332.07468 316.575 331.41843 315.66876Q330.76218 314.7625 330.73093 312.95L330.73093 311.5125Q330.73093 309.6219 331.37155 308.71564Q332.0278 307.79376 333.41843 307.79376Q334.79343 307.79376 335.44968 308.6844Q336.10593 309.5594 336.12155 311.40314L336.12155 312.8094ZM335.0278 311.325Q335.0278 309.95 334.63718 309.325Q334.26218 308.6844 333.41843 308.6844Q332.5903 308.6844 332.19968 309.325Q331.82468 309.95 331.82468 311.2469L331.82468 312.98126Q331.82468 314.35626 332.2153 315.02814Q332.62155 315.6844 333.43405 315.6844Q334.23093 315.6844 334.62155 315.0594Q335.01218 314.4344 335.0278 313.10626L335.0278 311.325ZM343.12155 312.8094Q343.12155 314.71564 342.4653 315.65314Q341.82468 316.575 340.43405 316.575Q339.07468 316.575 338.41843 315.66876Q337.76218 314.7625 337.73093 312.95L337.73093 311.5125Q337.73093 309.6219 338.37155 308.71564Q339.0278 307.79376 340.41843 307.79376Q341.79343 307.79376 342.44968 308.6844Q343.10593 309.5594 343.12155 311.40314L343.12155 312.8094ZM342.0278 311.325Q342.0278 309.95 341.63718 309.325Q341.26218 308.6844 340.41843 308.6844Q339.5903 308.6844 339.19968 309.325Q338.82468 309.95 338.82468 311.2469L338.82468 312.98126Q338.82468 314.35626 339.2153 315.02814Q339.62155 315.6844 340.43405 315.6844Q341.23093 315.6844 341.62155 315.0594Q342.01218 314.4344 342.0278 313.10626L342.0278 311.325Z" fill-rule="nonzero"/><path fill="#757575" d="M366.70908 311.65314L367.52158 311.65314Q368.30283 311.6375 368.74033 311.2469Q369.17783 310.85626 369.17783 310.1844Q369.17783 308.6844 367.67783 308.6844Q366.9747 308.6844 366.55283 309.09064Q366.14658 309.4969 366.14658 310.15314L365.05283 310.15314Q365.05283 309.1375 365.7872 308.46564Q366.5372 307.79376 367.67783 307.79376Q368.88095 307.79376 369.56845 308.4344Q370.25595 309.075 370.25595 310.21564Q370.25595 310.77814 369.89658 311.29376Q369.5372 311.8094 368.9122 312.075Q369.61533 312.29376 369.99033 312.8094Q370.38095 313.325 370.38095 314.075Q370.38095 315.21564 369.63095 315.90314Q368.88095 316.575 367.67783 316.575Q366.49033 316.575 365.7247 315.91876Q364.9747 315.2625 364.9747 314.2L366.06845 314.2Q366.06845 314.8719 366.50595 315.27814Q366.94345 315.6844 367.69345 315.6844Q368.4747 315.6844 368.88095 315.27814Q369.30283 314.85626 369.30283 314.09064Q369.30283 313.35626 368.8497 312.96564Q368.39658 312.5594 367.52158 312.54376L366.70908 312.54376L366.70908 311.65314ZM377.49033 312.8094Q377.49033 314.71564 376.83408 315.65314Q376.19345 316.575 374.80283 316.575Q373.44345 316.575 372.7872 315.66876Q372.13095 314.7625 372.0997 312.95L372.0997 311.5125Q372.0997 309.6219 372.74033 308.71564Q373.39658 307.79376 374.7872 307.79376Q376.1622 307.79376 376.81845 308.6844Q377.4747 309.5594 377.49033 311.40314L377.49033 312.8094ZM376.39658 311.325Q376.39658 309.95 376.00595 309.325Q375.63095 308.6844 374.7872 308.6844Q373.95908 308.6844 373.56845 309.325Q373.19345 309.95 373.19345 311.2469L373.19345 312.98126Q373.19345 314.35626 373.58408 315.02814Q373.99033 315.6844 374.80283 315.6844Q375.5997 315.6844 375.99033 315.0594Q376.38095 314.4344 376.39658 313.10626L376.39658 311.325ZM384.49033 312.8094Q384.49033 314.71564 383.83408 315.65314Q383.19345 316.575 381.80283 316.575Q380.44345 316.575 379.7872 315.66876Q379.13095 314.7625 379.0997 312.95L379.0997 311.5125Q379.0997 309.6219 379.74033 308.71564Q380.39658 307.79376 381.7872 307.79376Q383.1622 307.79376 383.81845 308.6844Q384.4747 309.5594 384.49033 311.40314L384.49033 312.8094ZM383.39658 311.325Q383.39658 309.95 383.00595 309.325Q382.63095 308.6844 381.7872 308.6844Q380.95908 308.6844 380.56845 309.325Q380.19345 309.95 380.19345 311.2469L380.19345 312.98126Q380.19345 314.35626 380.58408 315.02814Q380.99033 315.6844 381.80283 315.6844Q382.5997 315.6844 382.99033 315.0594Q383.38095 314.4344 383.39658 313.10626L383.39658 311.325ZM391.49033 312.8094Q391.49033 314.71564 390.83408 315.65314Q390.19345 316.575 388.80283 316.575Q387.44345 316.575 386.7872 315.66876Q386.13095 314.7625 386.0997 312.95L386.0997 311.5125Q386.0997 309.6219 386.74033 308.71564Q387.39658 307.79376 388.7872 307.79376Q390.1622 307.79376 390.81845 308.6844Q391.4747 309.5594 391.49033 311.40314L391.49033 312.8094ZM390.39658 311.325Q390.39658 309.95 390.00595 309.325Q389.63095 308.6844 388.7872 308.6844Q387.95908 308.6844 387.56845 309.325Q387.19345 309.95 387.19345 311.2469L387.19345 312.98126Q387.19345 314.35626 387.58408 315.02814Q387.99033 315.6844 388.80283 315.6844Q389.5997 315.6844 389.99033 315.0594Q390.38095 314.4344 390.39658 313.10626L390.39658 311.325ZM398.49033 312.8094Q398.49033 314.71564 397.83408 315.65314Q397.19345 316.575 395.80283 316.575Q394.44345 316.575 393.7872 315.66876Q393.13095 314.7625 393.0997 312.95L393.0997 311.5125Q393.0997 309.6219 393.74033 308.71564Q394.39658 307.79376 395.7872 307.79376Q397.1622 307.79376 397.81845 308.6844Q398.4747 309.5594 398.49033 311.40314L398.49033 312.8094ZM397.39658 311.325Q397.39658 309.95 397.00595 309.325Q396.63095 308.6844 395.7872 308.6844Q394.95908 308.6844 394.56845 309.325Q394.19345 309.95 394.19345 311.2469L394.19345 312.98126Q394.19345 314.35626 394.58408 315.02814Q394.99033 315.6844 395.80283 315.6844Q396.5997 315.6844 396.99033 315.0594Q397.38095 314.4344 397.39658 313.10626L397.39658 311.325Z" fill-rule="nonzero"/><path stroke="#4285f4" stroke-width="4.0" stroke-linecap="butt" d="M432.41556 62.416668L444.41556 62.416668" fill-rule="nonzero"/><path fill="#757575" d="M453.39993 66.916664L453.39993 58.385414L456.1968 58.385414Q457.58743 58.385414 458.27493 58.96354Q458.97806 59.52604 458.97806 60.65104Q458.97806 61.260414 458.6343 61.729164Q458.30618 62.18229 457.71243 62.43229Q458.41556 62.61979 458.80618 63.166664Q459.21243 63.697914 459.21243 64.447914Q459.21243 65.604164 458.46243 66.260414Q457.72806 66.916664 456.36868 66.916664L453.39993 66.916664ZM454.52493 62.93229L454.52493 65.99479L456.3843 65.99479Q457.18118 65.99479 457.6343 65.58854Q458.08743 65.18229 458.08743 64.46354Q458.08743 62.93229 456.39993 62.93229L454.52493 62.93229ZM454.52493 62.02604L456.22806 62.02604Q456.96243 62.02604 457.39993 61.666664Q457.85306 61.291664 457.85306 60.65104Q457.85306 59.947914 457.4468 59.635414Q457.04056 59.30729 456.1968 59.30729L454.52493 59.30729L454.52493 62.02604ZM462.86868 67.041664Q461.5718 67.041664 460.7593 66.197914Q459.96243 65.33854 459.96243 63.916664L459.96243 63.729164Q459.96243 62.77604 460.3218 62.041664Q460.68118 61.291664 461.3218 60.885414Q461.97806 60.46354 462.72806 60.46354Q463.96243 60.46354 464.64993 61.27604Q465.33743 62.08854 465.33743 63.604164L465.33743 64.05729L461.04056 64.05729Q461.0718 64.99479 461.58743 65.572914Q462.11868 66.15104 462.93118 66.15104Q463.49368 66.15104 463.8843 65.916664Q464.29056 65.68229 464.60306 65.291664L465.2593 65.80729Q464.46243 67.041664 462.86868 67.041664ZM462.72806 61.354164Q462.0718 61.354164 461.61868 61.83854Q461.18118 62.30729 461.08743 63.166664L464.2593 63.166664L464.2593 63.08854Q464.21243 62.260414 463.80618 61.80729Q463.41556 61.354164 462.72806 61.354164ZM467.2593 60.572914L467.29056 61.36979Q468.02493 60.46354 469.1968 60.46354Q471.21243 60.46354 471.22806 62.729164L471.22806 66.916664L470.1343 66.916664L470.1343 62.71354Q470.1343 62.041664 469.8218 61.71354Q469.52493 61.385414 468.86868 61.385414Q468.33743 61.385414 467.93118 61.666664Q467.54056 61.947914 467.3218 62.40104L467.3218 66.916664L466.24368 66.916664L466.24368 60.572914L467.2593 60.572914ZM475.77493 66.15104Q476.35306 66.15104 476.79056 65.80729Q477.22806 65.447914 477.27493 64.916664L478.30618 64.916664Q478.27493 65.46354 477.91556 65.96354Q477.5718 66.447914 476.99368 66.74479Q476.43118 67.041664 475.77493 67.041664Q474.47806 67.041664 473.71243 66.18229Q472.96243 65.30729 472.96243 63.80729L472.96243 63.61979Q472.96243 62.697914 473.29056 61.979164Q473.6343 61.260414 474.2593 60.86979Q474.89993 60.46354 475.77493 60.46354Q476.83743 60.46354 477.54056 61.104164Q478.2593 61.729164 478.30618 62.760414L477.27493 62.760414Q477.22806 62.135414 476.80618 61.74479Q476.3843 61.354164 475.77493 61.354164Q474.9468 61.354164 474.49368 61.947914Q474.04056 62.541664 474.04056 63.666664L474.04056 63.86979Q474.04056 64.96354 474.49368 65.55729Q474.9468 66.15104 475.77493 66.15104ZM480.3218 61.33854Q481.04056 60.46354 482.1968 60.46354Q484.21243 60.46354 484.22806 62.729164L484.22806 66.916664L483.1343 66.916664L483.1343 62.71354Q483.1343 62.041664 482.8218 61.71354Q482.52493 61.385414 481.86868 61.385414Q481.33743 61.385414 480.93118 61.666664Q480.54056 61.947914 480.3218 62.40104L480.3218 66.916664L479.24368 66.916664L479.24368 57.916664L480.3218 57.916664L480.3218 61.33854ZM487.2593 60.572914L487.29056 61.27604Q487.97806 60.46354 489.16556 60.46354Q490.49368 60.46354 490.97806 61.479164Q491.29056 61.02604 491.79056 60.74479Q492.30618 60.46354 492.99368 60.46354Q495.08743 60.46354 495.11868 62.666664L495.11868 66.916664L494.04056 66.916664L494.04056 62.729164Q494.04056 62.05729 493.72806 61.729164Q493.41556 61.385414 492.68118 61.385414Q492.0718 61.385414 491.66556 61.74479Q491.27493 62.104164 491.21243 62.71354L491.21243 66.916664L490.1343 66.916664L490.1343 62.760414Q490.1343 61.385414 488.77493 61.385414Q487.71243 61.385414 487.3218 62.291664L487.3218 66.916664L486.22806 66.916664L486.22806 60.572914L487.2593 60.572914ZM501.14993 66.916664Q501.05618 66.729164 500.99368 66.24479Q500.24368 67.041664 499.1968 67.041664Q498.2593 67.041664 497.64993 66.510414Q497.05618 65.979164 497.05618 65.15104Q497.05618 64.166664 497.80618 63.61979Q498.55618 63.072914 499.93118 63.072914L500.97806 63.072914L500.97806 62.572914Q500.97806 62.010414 500.6343 61.68229Q500.30618 61.33854 499.6343 61.33854Q499.05618 61.33854 498.66556 61.635414Q498.27493 61.916664 498.27493 62.33854L497.18118 62.33854Q497.18118 61.854164 497.5093 61.416664Q497.85306 60.979164 498.43118 60.729164Q499.0093 60.46354 499.6968 60.46354Q500.80618 60.46354 501.41556 61.010414Q502.04056 61.55729 502.0718 62.510414L502.0718 65.43229Q502.0718 66.30729 502.29056 66.822914L502.29056 66.916664L501.14993 66.916664ZM499.35306 66.08854Q499.86868 66.08854 500.3218 65.822914Q500.77493 65.55729 500.97806 65.135414L500.97806 63.83854L500.1343 63.83854Q498.1343 63.83854 498.1343 65.010414Q498.1343 65.510414 498.47806 65.80729Q498.8218 66.08854 499.35306 66.08854ZM507.30618 61.541664Q507.05618 61.510414 506.77493 61.510414Q505.6968 61.510414 505.3218 62.416664L505.3218 66.916664L504.24368 66.916664L504.24368 60.572914L505.29056 60.572914L505.30618 61.30729Q505.83743 60.46354 506.8218 60.46354Q507.1343 60.46354 507.30618 60.541664L507.30618 61.541664ZM510.0093 63.979164L509.3218 64.68229L509.3218 66.916664L508.24368 66.916664L508.24368 57.916664L509.3218 57.916664L509.3218 63.354164L509.89993 62.666664L511.8843 60.572914L513.1968 60.572914L510.72806 63.229164L513.49365 66.916664L512.2124 66.916664L510.0093 63.979164Z" fill-rule="nonzero"/><path stroke="#db4437" stroke-width="4.0" stroke-linecap="butt" d="M432.41556 87.416664L444.41556 87.416664" fill-rule="nonzero"/><path fill="#757575" d="M459.96243 87.93229Q459.96243 89.18229 459.54056 90.11979Q459.11868 91.041664 458.33743 91.541664Q457.5718 92.041664 456.54056 92.041664Q455.54056 92.041664 454.7593 91.541664Q453.97806 91.041664 453.54056 90.135414Q453.11868 89.21354 453.10306 87.99479L453.10306 87.385414Q453.10306 86.15104 453.52493 85.21354Q453.96243 84.27604 454.74368 83.77604Q455.52493 83.260414 456.54056 83.260414Q457.55618 83.260414 458.33743 83.760414Q459.11868 84.260414 459.54056 85.197914Q459.96243 86.135414 459.96243 87.385414L459.96243 87.93229ZM458.85306 87.36979Q458.85306 85.854164 458.24368 85.041664Q457.6343 84.229164 456.54056 84.229164Q455.46243 84.229164 454.85306 85.041664Q454.24368 85.854164 454.22806 87.291664L454.22806 87.93229Q454.22806 89.40104 454.83743 90.24479Q455.46243 91.072914 456.54056 91.072914Q457.6343 91.072914 458.22806 90.291664Q458.83743 89.49479 458.85306 88.010414L458.85306 87.36979ZM467.30618 84.30729L464.55618 84.30729L464.55618 91.916664L463.4468 91.916664L463.4468 84.30729L460.6968 84.30729L460.6968 83.385414L467.30618 83.385414L467.30618 84.30729ZM473.11868 88.15104L469.52493 88.15104L469.52493 91.916664L468.39993 91.916664L468.39993 83.385414L473.6968 83.385414L473.6968 84.30729L469.52493 84.30729L469.52493 87.229164L473.11868 87.229164L473.11868 88.15104ZM483.85306 90.416664L485.0718 85.572914L486.14993 85.572914L484.30618 91.916664L483.43118 91.916664L481.8843 87.104164L480.3843 91.916664L479.5093 91.916664L477.66556 85.572914L478.74368 85.572914L479.99368 90.322914L481.47806 85.572914L482.33743 85.572914L483.85306 90.416664ZM488.41556 91.916664L487.33743 91.916664L487.33743 85.572914L488.41556 85.572914L488.41556 91.916664ZM487.24368 83.90104Q487.24368 83.635414 487.39993 83.447914Q487.5718 83.260414 487.8843 83.260414Q488.1968 83.260414 488.35306 83.447914Q488.52493 83.635414 488.52493 83.90104Q488.52493 84.15104 488.35306 84.33854Q488.1968 84.510414 487.8843 84.510414Q487.5718 84.510414 487.39993 84.33854Q487.24368 84.15104 487.24368 83.90104ZM491.71243 84.041664L491.71243 85.572914L492.8843 85.572914L492.8843 86.416664L491.71243 86.416664L491.71243 90.33854Q491.71243 90.729164 491.86868 90.916664Q492.02493 91.104164 492.39993 91.104164Q492.58743 91.104164 492.91556 91.041664L492.91556 91.916664Q492.49368 92.041664 492.08743 92.041664Q491.36868 92.041664 490.99368 91.604164Q490.61868 91.15104 490.61868 90.33854L490.61868 86.416664L489.46243 86.416664L489.46243 85.572914L490.61868 85.572914L490.61868 84.041664L491.71243 84.041664ZM495.3218 86.33854Q496.04056 85.46354 497.1968 85.46354Q499.21243 85.46354 499.22806 87.729164L499.22806 91.916664L498.1343 91.916664L498.1343 87.71354Q498.1343 87.041664 497.8218 86.71354Q497.52493 86.385414 496.86868 86.385414Q496.33743 86.385414 495.93118 86.666664Q495.54056 86.947914 495.3218 87.40104L495.3218 91.916664L494.24368 91.916664L494.24368 82.916664L495.3218 82.916664L495.3218 86.33854ZM510.68118 89.21354Q510.52493 90.55729 509.68118 91.30729Q508.83743 92.041664 507.4468 92.041664Q505.93118 92.041664 505.02493 90.96354Q504.11868 89.86979 504.11868 88.041664L504.11868 87.229164Q504.11868 86.041664 504.54056 85.135414Q504.96243 84.229164 505.74368 83.74479Q506.52493 83.260414 507.54056 83.260414Q508.89993 83.260414 509.71243 84.02604Q510.54056 84.791664 510.68118 86.11979L509.55618 86.11979Q509.39993 85.104164 508.91556 84.65104Q508.43118 84.197914 507.54056 84.197914Q506.46243 84.197914 505.85306 84.99479Q505.24368 85.791664 505.24368 87.260414L505.24368 88.08854Q505.24368 89.479164 505.8218 90.30729Q506.39993 91.11979 507.4468 91.11979Q508.3843 91.11979 508.8843 90.697914Q509.3843 90.260414 509.55618 89.21354L510.68118 89.21354ZM512.3999 91.916664L512.3999 83.385414L515.1968 83.385414Q516.5874 83.385414 517.2749 83.96354Q517.978 84.52604 517.978 85.65104Q517.978 86.260414 517.6343 86.729164Q517.30615 87.18229 516.7124 87.43229Q517.4155 87.61979 517.80615 88.166664Q518.2124 88.697914 518.2124 89.447914Q518.2124 90.604164 517.4624 91.260414Q516.728 91.916664 515.36865 91.916664L512.3999 91.916664ZM513.5249 87.93229L513.5249 90.99479L515.3843 90.99479Q516.18115 90.99479 516.6343 90.58854Q517.0874 90.18229 517.0874 89.46354Q517.0874 87.93229 515.3999 87.93229L513.5249 87.93229ZM513.5249 87.02604L515.228 87.02604Q515.9624 87.02604 516.3999 86.666664Q516.853 86.291664 516.853 85.65104Q516.853 84.947914 516.4468 84.635414Q516.0405 84.30729 515.1968 84.30729L513.5249 84.30729L513.5249 87.02604ZM525.68115 89.21354Q525.5249 90.55729 524.68115 91.30729Q523.8374 92.041664 522.4468 92.041664Q520.93115 92.041664 520.0249 90.96354Q519.11865 89.86979 519.11865 88.041664L519.11865 87.229164Q519.11865 86.041664 519.5405 85.135414Q519.9624 84.229164 520.74365 83.74479Q521.5249 83.260414 522.5405 83.260414Q523.8999 83.260414 524.7124 84.02604Q525.5405 84.791664 525.68115 86.11979L524.55615 86.11979Q524.3999 85.104164 523.9155 84.65104Q523.43115 84.197914 522.5405 84.197914Q521.4624 84.197914 520.853 84.99479Q520.24365 85.791664 520.24365 87.260414L520.24365 88.08854Q520.24365 89.479164 520.8218 90.30729Q521.3999 91.11979 522.4468 91.11979Q523.3843 91.11979 523.8843 90.697914Q524.3843 90.260414 524.55615 89.21354L525.68115 89.21354Z" fill-rule="nonzero"/><path stroke="#f4b400" stroke-width="4.0" stroke-linecap="butt" d="M432.41556 112.416664L444.41556 112.416664" fill-rule="nonzero"/><path fill="#757575" d="M459.96243 112.93229Q459.96243 114.18229 459.54056 115.11979Q459.11868 116.041664 458.33743 116.541664Q457.5718 117.041664 456.54056 117.041664Q455.54056 117.041664 454.7593 116.541664Q453.97806 116.041664 453.54056 115.135414Q453.11868 114.21354 453.10306 112.99479L453.10306 112.385414Q453.10306 111.15104 453.52493 110.21354Q453.96243 109.27604 454.74368 108.77604Q455.52493 108.260414 456.54056 108.260414Q457.55618 108.260414 458.33743 108.760414Q459.11868 109.260414 459.54056 110.197914Q459.96243 111.135414 459.96243 112.385414L459.96243 112.93229ZM458.85306 112.36979Q458.85306 110.854164 458.24368 110.041664Q457.6343 109.229164 456.54056 109.229164Q455.46243 109.229164 454.85306 110.041664Q454.24368 110.854164 454.22806 112.291664L454.22806 112.93229Q454.22806 114.40104 454.83743 115.24479Q455.46243 116.072914 456.54056 116.072914Q457.6343 116.072914 458.22806 115.291664Q458.83743 114.49479 458.85306 113.010414L458.85306 112.36979ZM467.30618 109.30729L464.55618 109.30729L464.55618 116.916664L463.4468 116.916664L463.4468 109.30729L460.6968 109.30729L460.6968 108.385414L467.30618 108.385414L467.30618 109.30729ZM473.11868 113.15104L469.52493 113.15104L469.52493 116.916664L468.39993 116.916664L468.39993 108.385414L473.6968 108.385414L473.6968 109.30729L469.52493 109.30729L469.52493 112.229164L473.11868 112.229164L473.11868 113.15104ZM483.85306 115.416664L485.0718 110.572914L486.14993 110.572914L484.30618 116.916664L483.43118 116.916664L481.8843 112.104164L480.3843 116.916664L479.5093 116.916664L477.66556 110.572914L478.74368 110.572914L479.99368 115.322914L481.47806 110.572914L482.33743 110.572914L483.85306 115.416664ZM488.41556 116.916664L487.33743 116.916664L487.33743 110.572914L488.41556 110.572914L488.41556 116.916664ZM487.24368 108.90104Q487.24368 108.635414 487.39993 108.447914Q487.5718 108.260414 487.8843 108.260414Q488.1968 108.260414 488.35306 108.447914Q488.52493 108.635414 488.52493 108.90104Q488.52493 109.15104 488.35306 109.33854Q488.1968 109.510414 487.8843 109.510414Q487.5718 109.510414 487.39993 109.33854Q487.24368 109.15104 487.24368 108.90104ZM491.71243 109.041664L491.71243 110.572914L492.8843 110.572914L492.8843 111.416664L491.71243 111.416664L491.71243 115.33854Q491.71243 115.729164 491.86868 115.916664Q492.02493 116.104164 492.39993 116.104164Q492.58743 116.104164 492.91556 116.041664L492.91556 116.916664Q492.49368 117.041664 492.08743 117.041664Q491.36868 117.041664 490.99368 116.604164Q490.61868 116.15104 490.61868 115.33854L490.61868 111.416664L489.46243 111.416664L489.46243 110.572914L490.61868 110.572914L490.61868 109.041664L491.71243 109.041664ZM495.3218 111.33854Q496.04056 110.46354 497.1968 110.46354Q499.21243 110.46354 499.22806 112.729164L499.22806 116.916664L498.1343 116.916664L498.1343 112.71354Q498.1343 112.041664 497.8218 111.71354Q497.52493 111.385414 496.86868 111.385414Q496.33743 111.385414 495.93118 111.666664Q495.54056 111.947914 495.3218 112.40104L495.3218 116.916664L494.24368 116.916664L494.24368 107.916664L495.3218 107.916664L495.3218 111.33854ZM509.22806 112.979164L505.52493 112.979164L505.52493 115.99479L509.8218 115.99479L509.8218 116.916664L504.39993 116.916664L504.39993 108.385414L509.77493 108.385414L509.77493 109.30729L505.52493 109.30729L505.52493 112.05729L509.22806 112.05729L509.22806 112.979164ZM511.39993 116.916664L511.39993 108.385414L514.1968 108.385414Q515.5874 108.385414 516.2749 108.96354Q516.978 109.52604 516.978 110.65104Q516.978 111.260414 516.6343 111.729164Q516.30615 112.18229 515.7124 112.43229Q516.4155 112.61979 516.80615 113.166664Q517.2124 113.697914 517.2124 114.447914Q517.2124 115.604164 516.4624 116.260414Q515.728 116.916664 514.36865 116.916664L511.39993 116.916664ZM512.5249 112.93229L512.5249 115.99479L514.3843 115.99479Q515.18115 115.99479 515.6343 115.58854Q516.0874 115.18229 516.0874 114.46354Q516.0874 112.93229 514.3999 112.93229L512.5249 112.93229ZM512.5249 112.02604L514.228 112.02604Q514.9624 112.02604 515.3999 111.666664Q515.853 111.291664 515.853 110.65104Q515.853 109.947914 515.4468 109.635414Q515.0405 109.30729 514.1968 109.30729L512.5249 109.30729L512.5249 112.02604ZM524.68115 114.21354Q524.5249 115.55729 523.68115 116.30729Q522.8374 117.041664 521.4468 117.041664Q519.93115 117.041664 519.0249 115.96354Q518.11865 114.86979 518.11865 113.041664L518.11865 112.229164Q518.11865 111.041664 518.5405 110.135414Q518.9624 109.229164 519.74365 108.74479Q520.5249 108.260414 521.5405 108.260414Q522.8999 108.260414 523.7124 109.02604Q524.5405 109.791664 524.68115 111.11979L523.55615 111.11979Q523.3999 110.104164 522.9155 109.65104Q522.43115 109.197914 521.5405 109.197914Q520.4624 109.197914 519.853 109.99479Q519.24365 110.791664 519.24365 112.260414L519.24365 113.08854Q519.24365 114.479164 519.8218 115.30729Q520.3999 116.11979 521.4468 116.11979Q522.3843 116.11979 522.8843 115.697914Q523.3843 115.260414 523.55615 114.21354L524.68115 114.21354Z" fill-rule="nonzero"/><path stroke="#0f9d58" stroke-width="4.0" stroke-linecap="butt" d="M432.41556 137.41667L444.41556 137.41667" fill-rule="nonzero"/><path fill="#757575" d="M458.11868 138.15105L454.52493 138.15105L454.52493 141.91667L453.39993 141.91667L453.39993 133.38542L458.6968 133.38542L458.6968 134.3073L454.52493 134.3073L454.52493 137.22917L458.11868 137.22917L458.11868 138.15105ZM464.14993 141.29167Q463.52493 142.04167 462.29056 142.04167Q461.27493 142.04167 460.74368 141.44792Q460.21243 140.85417 460.21243 139.69792L460.21243 135.57292L461.29056 135.57292L461.29056 139.66667Q461.29056 141.1198 462.46243 141.1198Q463.71243 141.1198 464.11868 140.1823L464.11868 135.57292L465.21243 135.57292L465.21243 141.91667L464.18118 141.91667L464.14993 141.29167ZM468.41556 141.91667L467.33743 141.91667L467.33743 132.91667L468.41556 132.91667L468.41556 141.91667ZM471.41556 141.91667L470.33743 141.91667L470.33743 132.91667L471.41556 132.91667L471.41556 141.91667ZM476.39993 141.91667L476.39993 133.38542L478.8218 133.38542Q479.93118 133.38542 480.77493 133.88542Q481.6343 134.3698 482.10306 135.27605Q482.5718 136.1823 482.5718 137.3698L482.5718 137.90105Q482.5718 139.1198 482.10306 140.02605Q481.64993 140.9323 480.77493 141.41667Q479.91556 141.90105 478.77493 141.91667L476.39993 141.91667ZM477.52493 134.3073L477.52493 140.9948L478.71243 140.9948Q480.0093 140.9948 480.72806 140.19792Q481.46243 139.38542 481.46243 137.88542L481.46243 137.38542Q481.46243 135.9323 480.77493 135.13542Q480.10306 134.32292 478.83743 134.3073L477.52493 134.3073ZM485.41556 141.91667L484.33743 141.91667L484.33743 135.57292L485.41556 135.57292L485.41556 141.91667ZM484.24368 133.90105Q484.24368 133.63542 484.39993 133.44792Q484.5718 133.26042 484.8843 133.26042Q485.1968 133.26042 485.35306 133.44792Q485.52493 133.63542 485.52493 133.90105Q485.52493 134.15105 485.35306 134.33855Q485.1968 134.51042 484.8843 134.51042Q484.5718 134.51042 484.39993 134.33855Q484.24368 134.15105 484.24368 133.90105ZM490.93118 140.22917Q490.93118 139.79167 490.58743 139.5573Q490.2593 139.3073 489.43118 139.13542Q488.61868 138.96355 488.1343 138.71355Q487.64993 138.46355 487.41556 138.13542Q487.1968 137.79167 487.1968 137.32292Q487.1968 136.54167 487.85306 136.01042Q488.5093 135.46355 489.54056 135.46355Q490.61868 135.46355 491.27493 136.02605Q491.9468 136.57292 491.9468 137.4323L490.86868 137.4323Q490.86868 136.9948 490.47806 136.6823Q490.10306 136.35417 489.54056 136.35417Q488.9468 136.35417 488.60306 136.6198Q488.27493 136.8698 488.27493 137.27605Q488.27493 137.66667 488.58743 137.8698Q488.89993 138.07292 489.71243 138.26042Q490.52493 138.4323 491.02493 138.6823Q491.52493 138.9323 491.7593 139.29167Q492.0093 139.65105 492.0093 140.15105Q492.0093 141.01042 491.3218 141.52605Q490.64993 142.04167 489.5718 142.04167Q488.80618 142.04167 488.21243 141.77605Q487.6343 141.4948 487.30618 141.01042Q486.97806 140.52605 486.97806 139.96355L488.05618 139.96355Q488.08743 140.51042 488.49368 140.83855Q488.89993 141.15105 489.5718 141.15105Q490.18118 141.15105 490.55618 140.90105Q490.93118 140.65105 490.93118 140.22917ZM495.0093 138.97917L494.3218 139.6823L494.3218 141.91667L493.24368 141.91667L493.24368 132.91667L494.3218 132.91667L494.3218 138.35417L494.89993 137.66667L496.8843 135.57292L498.1968 135.57292L495.72806 138.22917L498.49368 141.91667L497.21243 141.91667L495.0093 138.97917ZM507.22806 137.97917L503.52493 137.97917L503.52493 140.9948L507.8218 140.9948L507.8218 141.91667L502.39993 141.91667L502.39993 133.38542L507.77493 133.38542L507.77493 134.3073L503.52493 134.3073L503.52493 137.0573L507.22806 137.0573L507.22806 137.97917ZM515.68115 139.21355Q515.5249 140.5573 514.68115 141.3073Q513.8374 142.04167 512.4468 142.04167Q510.93118 142.04167 510.02493 140.96355Q509.11868 139.8698 509.11868 138.04167L509.11868 137.22917Q509.11868 136.04167 509.54056 135.13542Q509.96243 134.22917 510.74368 133.7448Q511.52493 133.26042 512.5405 133.26042Q513.8999 133.26042 514.7124 134.02605Q515.5405 134.79167 515.68115 136.1198L514.55615 136.1198Q514.3999 135.10417 513.9155 134.65105Q513.43115 134.19792 512.5405 134.19792Q511.46243 134.19792 510.85306 134.9948Q510.24368 135.79167 510.24368 137.26042L510.24368 138.08855Q510.24368 139.47917 510.8218 140.3073Q511.39993 141.1198 512.4468 141.1198Q513.3843 141.1198 513.8843 140.69792Q514.3843 140.26042 514.55615 139.21355L515.68115 139.21355ZM517.3999 141.91667L517.3999 133.38542L520.1968 133.38542Q521.5874 133.38542 522.2749 133.96355Q522.978 134.52605 522.978 135.65105Q522.978 136.26042 522.6343 136.72917Q522.30615 137.1823 521.7124 137.4323Q522.4155 137.6198 522.80615 138.16667Q523.2124 138.69792 523.2124 139.44792Q523.2124 140.60417 522.4624 141.26042Q521.728 141.91667 520.36865 141.91667L517.3999 141.91667ZM518.5249 137.9323L518.5249 140.9948L520.3843 140.9948Q521.18115 140.9948 521.6343 140.58855Q522.0874 140.1823 522.0874 139.46355Q522.0874 137.9323 520.3999 137.9323L518.5249 137.9323ZM518.5249 137.02605L520.228 137.02605Q520.9624 137.02605 521.3999 136.66667Q521.853 136.29167 521.853 135.65105Q521.853 134.94792 521.4468 134.63542Q521.0405 134.3073 520.1968 134.3073L518.5249 134.3073L518.5249 137.02605Z" fill-rule="nonzero"/><path stroke="#ff6d00" stroke-width="4.0" stroke-linecap="butt" d="M432.41556 162.41667L444.41556 162.41667" fill-rule="nonzero"/><path fill="#757575" d="M458.11868 163.15105L454.52493 163.15105L454.52493 166.91667L453.39993 166.91667L453.39993 158.38542L458.6968 158.38542L458.6968 159.3073L454.52493 159.3073L454.52493 162.22917L458.11868 162.22917L458.11868 163.15105ZM464.14993 166.29167Q463.52493 167.04167 462.29056 167.04167Q461.27493 167.04167 460.74368 166.44792Q460.21243 165.85417 460.21243 164.69792L460.21243 160.57292L461.29056 160.57292L461.29056 164.66667Q461.29056 166.1198 462.46243 166.1198Q463.71243 166.1198 464.11868 165.1823L464.11868 160.57292L465.21243 160.57292L465.21243 166.91667L464.18118 166.91667L464.14993 166.29167ZM468.41556 166.91667L467.33743 166.91667L467.33743 157.91667L468.41556 157.91667L468.41556 166.91667ZM471.41556 166.91667L470.33743 166.91667L470.33743 157.91667L471.41556 157.91667L471.41556 166.91667ZM476.39993 166.91667L476.39993 158.38542L478.8218 158.38542Q479.93118 158.38542 480.77493 158.88542Q481.6343 159.3698 482.10306 160.27605Q482.5718 161.1823 482.5718 162.3698L482.5718 162.90105Q482.5718 164.1198 482.10306 165.02605Q481.64993 165.9323 480.77493 166.41667Q479.91556 166.90105 478.77493 166.91667L476.39993 166.91667ZM477.52493 159.3073L477.52493 165.9948L478.71243 165.9948Q480.0093 165.9948 480.72806 165.19792Q481.46243 164.38542 481.46243 162.88542L481.46243 162.38542Q481.46243 160.9323 480.77493 160.13542Q480.10306 159.32292 478.83743 159.3073L477.52493 159.3073ZM485.41556 166.91667L484.33743 166.91667L484.33743 160.57292L485.41556 160.57292L485.41556 166.91667ZM484.24368 158.90105Q484.24368 158.63542 484.39993 158.44792Q484.5718 158.26042 484.8843 158.26042Q485.1968 158.26042 485.35306 158.44792Q485.52493 158.63542 485.52493 158.90105Q485.52493 159.15105 485.35306 159.33855Q485.1968 159.51042 484.8843 159.51042Q484.5718 159.51042 484.39993 159.33855Q484.24368 159.15105 484.24368 158.90105ZM490.93118 165.22917Q490.93118 164.79167 490.58743 164.5573Q490.2593 164.3073 489.43118 164.13542Q488.61868 163.96355 488.1343 163.71355Q487.64993 163.46355 487.41556 163.13542Q487.1968 162.79167 487.1968 162.32292Q487.1968 161.54167 487.85306 161.01042Q488.5093 160.46355 489.54056 160.46355Q490.61868 160.46355 491.27493 161.02605Q491.9468 161.57292 491.9468 162.4323L490.86868 162.4323Q490.86868 161.9948 490.47806 161.6823Q490.10306 161.35417 489.54056 161.35417Q488.9468 161.35417 488.60306 161.6198Q488.27493 161.8698 488.27493 162.27605Q488.27493 162.66667 488.58743 162.8698Q488.89993 163.07292 489.71243 163.26042Q490.52493 163.4323 491.02493 163.6823Q491.52493 163.9323 491.7593 164.29167Q492.0093 164.65105 492.0093 165.15105Q492.0093 166.01042 491.3218 166.52605Q490.64993 167.04167 489.5718 167.04167Q488.80618 167.04167 488.21243 166.77605Q487.6343 166.4948 487.30618 166.01042Q486.97806 165.52605 486.97806 164.96355L488.05618 164.96355Q488.08743 165.51042 488.49368 165.83855Q488.89993 166.15105 489.5718 166.15105Q490.18118 166.15105 490.55618 165.90105Q490.93118 165.65105 490.93118 165.22917ZM495.0093 163.97917L494.3218 164.6823L494.3218 166.91667L493.24368 166.91667L493.24368 157.91667L494.3218 157.91667L494.3218 163.35417L494.89993 162.66667L496.8843 160.57292L498.1968 160.57292L495.72806 163.22917L498.49368 166.91667L497.21243 166.91667L495.0093 163.97917ZM507.22806 162.97917L503.52493 162.97917L503.52493 165.9948L507.8218 165.9948L507.8218 166.91667L502.39993 166.91667L502.39993 158.38542L507.77493 158.38542L507.77493 159.3073L503.52493 159.3073L503.52493 162.0573L507.22806 162.0573L507.22806 162.97917ZM515.68115 164.21355Q515.5249 165.5573 514.68115 166.3073Q513.8374 167.04167 512.4468 167.04167Q510.93118 167.04167 510.02493 165.96355Q509.11868 164.8698 509.11868 163.04167L509.11868 162.22917Q509.11868 161.04167 509.54056 160.13542Q509.96243 159.22917 510.74368 158.7448Q511.52493 158.26042 512.5405 158.26042Q513.8999 158.26042 514.7124 159.02605Q515.5405 159.79167 515.68115 161.1198L514.55615 161.1198Q514.3999 160.10417 513.9155 159.65105Q513.43115 159.19792 512.5405 159.19792Q511.46243 159.19792 510.85306 159.9948Q510.24368 160.79167 510.24368 162.26042L510.24368 163.08855Q510.24368 164.47917 510.8218 165.3073Q511.39993 166.1198 512.4468 166.1198Q513.3843 166.1198 513.8843 165.69792Q514.3843 165.26042 514.55615 164.21355L515.68115 164.21355ZM517.3999 166.91667L517.3999 158.38542L520.1968 158.38542Q521.5874 158.38542 522.2749 158.96355Q522.978 159.52605 522.978 160.65105Q522.978 161.26042 522.6343 161.72917Q522.30615 162.1823 521.7124 162.4323Q522.4155 162.6198 522.80615 163.16667Q523.2124 163.69792 523.2124 164.44792Q523.2124 165.60417 522.4624 166.26042Q521.728 166.91667 520.36865 166.91667L517.3999 166.91667ZM518.5249 162.9323L518.5249 165.9948L520.3843 165.9948Q521.18115 165.9948 521.6343 165.58855Q522.0874 165.1823 522.0874 164.46355Q522.0874 162.9323 520.3999 162.9323L518.5249 162.9323ZM518.5249 162.02605L520.228 162.02605Q520.9624 162.02605 521.3999 161.66667Q521.853 161.29167 521.853 160.65105Q521.853 159.94792 521.4468 159.63542Q521.0405 159.3073 520.1968 159.3073L518.5249 159.3073L518.5249 162.02605ZM531.1499 166.91667Q531.05615 166.72917 530.99365 166.2448Q530.24365 167.04167 529.1968 167.04167Q528.2593 167.04167 527.6499 166.51042Q527.05615 165.97917 527.05615 165.15105Q527.05615 164.16667 527.80615 163.6198Q528.55615 163.07292 529.93115 163.07292L530.978 163.07292L530.978 162.57292Q530.978 162.01042 530.6343 161.6823Q530.30615 161.33855 529.6343 161.33855Q529.05615 161.33855 528.6655 161.63542Q528.2749 161.91667 528.2749 162.33855L527.18115 162.33855Q527.18115 161.85417 527.5093 161.41667Q527.853 160.97917 528.43115 160.72917Q529.0093 160.46355 529.6968 160.46355Q530.80615 160.46355 531.4155 161.01042Q532.0405 161.5573 532.0718 162.51042L532.0718 165.4323Q532.0718 166.3073 532.2905 166.82292L532.2905 166.91667L531.1499 166.91667ZM529.353 166.08855Q529.86865 166.08855 530.3218 165.82292Q530.7749 165.5573 530.978 165.13542L530.978 163.83855L530.1343 163.83855Q528.1343 163.83855 528.1343 165.01042Q528.1343 165.51042 528.478 165.8073Q528.8218 166.08855 529.353 166.08855ZM535.2593 160.57292L535.2905 161.3698Q536.0249 160.46355 537.1968 160.46355Q539.2124 160.46355 539.228 162.72917L539.228 166.91667L538.1343 166.91667L538.1343 162.71355Q538.1343 162.04167 537.8218 161.71355Q537.5249 161.38542 536.86865 161.38542Q536.3374 161.38542 535.93115 161.66667Q535.5405 161.94792 535.3218 162.40105L535.3218 166.91667L534.24365 166.91667L534.24365 160.57292L535.2593 160.57292ZM540.978 163.69792Q540.978 162.22917 541.6655 161.35417Q542.353 160.46355 543.478 160.46355Q544.5874 160.46355 545.24365 161.21355L545.24365 157.91667L546.3218 157.91667L546.3218 166.91667L545.3218 166.91667L545.2749 166.22917Q544.61865 167.04167 543.4624 167.04167Q542.36865 167.04167 541.6655 166.13542Q540.978 165.22917 540.978 163.77605L540.978 163.69792ZM542.05615 163.82292Q542.05615 164.90105 542.49365 165.51042Q542.9468 166.1198 543.728 166.1198Q544.7593 166.1198 545.24365 165.1823L545.24365 162.27605Q544.7593 161.38542 543.74365 161.38542Q542.9468 161.38542 542.49365 161.9948Q542.05615 162.60417 542.05615 163.82292ZM557.9624 162.9323Q557.9624 164.1823 557.5405 165.1198Q557.11865 166.04167 556.3374 166.54167Q555.5718 167.04167 554.5405 167.04167Q553.5405 167.04167 552.7593 166.54167Q551.978 166.04167 551.5405 165.13542Q551.11865 164.21355 551.103 162.9948L551.103 162.38542Q551.103 161.15105 551.5249 160.21355Q551.9624 159.27605 552.74365 158.77605Q553.5249 158.26042 554.5405 158.26042Q555.55615 158.26042 556.3374 158.76042Q557.11865 159.26042 557.5405 160.19792Q557.9624 161.13542 557.9624 162.38542L557.9624 162.9323ZM556.853 162.3698Q556.853 160.85417 556.24365 160.04167Q555.6343 159.22917 554.5405 159.22917Q553.4624 159.22917 552.853 160.04167Q552.24365 160.85417 552.228 162.29167L552.228 162.9323Q552.228 164.40105 552.8374 165.2448Q553.4624 166.07292 554.5405 166.07292Q555.6343 166.07292 556.228 165.29167Q556.8374 164.4948 556.853 163.01042L556.853 162.3698ZM565.30615 159.3073L562.55615 159.3073L562.55615 166.91667L561.4468 166.91667L561.4468 159.3073L558.6968 159.3073L558.6968 158.38542L565.30615 158.38542L565.30615 159.3073ZM571.11865 163.15105L567.5249 163.15105L567.5249 166.91667L566.3999 166.91667L566.3999 158.38542L571.6968 158.38542L571.6968 159.3073L567.5249 159.3073L567.5249 162.22917L571.11865 162.22917L571.11865 163.15105Z" fill-rule="nonzero"/><path fill="#757575" d="M459.68118 179.21355Q459.52493 180.5573 458.68118 181.3073Q457.83743 182.04167 456.4468 182.04167Q454.93118 182.04167 454.02493 180.96355Q453.11868 179.8698 453.11868 178.04167L453.11868 177.22917Q453.11868 176.04167 453.54056 175.13542Q453.96243 174.22917 454.74368 173.7448Q455.52493 173.26042 456.54056 173.26042Q457.89993 173.26042 458.71243 174.02605Q459.54056 174.79167 459.68118 176.1198L458.55618 176.1198Q458.39993 175.10417 457.91556 174.65105Q457.43118 174.19792 456.54056 174.19792Q455.46243 174.19792 454.85306 174.9948Q454.24368 175.79167 454.24368 177.26042L454.24368 178.08855Q454.24368 179.47917 454.8218 180.3073Q455.39993 181.1198 456.4468 181.1198Q457.3843 181.1198 457.8843 180.69792Q458.3843 180.26042 458.55618 179.21355L459.68118 179.21355ZM461.39993 181.91667L461.39993 173.38542L464.1968 173.38542Q465.58743 173.38542 466.27493 173.96355Q466.97806 174.52605 466.97806 175.65105Q466.97806 176.26042 466.6343 176.72917Q466.30618 177.1823 465.71243 177.4323Q466.41556 177.6198 466.80618 178.16667Q467.21243 178.69792 467.21243 179.44792Q467.21243 180.60417 466.46243 181.26042Q465.72806 181.91667 464.36868 181.91667L461.39993 181.91667ZM462.52493 177.9323L462.52493 180.9948L464.3843 180.9948Q465.18118 180.9948 465.6343 180.58855Q466.08743 180.1823 466.08743 179.46355Q466.08743 177.9323 464.39993 177.9323L462.52493 177.9323ZM462.52493 177.02605L464.22806 177.02605Q464.96243 177.02605 465.39993 176.66667Q465.85306 176.29167 465.85306 175.65105Q465.85306 174.94792 465.4468 174.63542Q465.04056 174.3073 464.1968 174.3073L462.52493 174.3073L462.52493 177.02605ZM474.68118 179.21355Q474.52493 180.5573 473.68118 181.3073Q472.83743 182.04167 471.4468 182.04167Q469.93118 182.04167 469.02493 180.96355Q468.11868 179.8698 468.11868 178.04167L468.11868 177.22917Q468.11868 176.04167 468.54056 175.13542Q468.96243 174.22917 469.74368 173.7448Q470.52493 173.26042 471.54056 173.26042Q472.89993 173.26042 473.71243 174.02605Q474.54056 174.79167 474.68118 176.1198L473.55618 176.1198Q473.39993 175.10417 472.91556 174.65105Q472.43118 174.19792 471.54056 174.19792Q470.46243 174.19792 469.85306 174.9948Q469.24368 175.79167 469.24368 177.26042L469.24368 178.08855Q469.24368 179.47917 469.8218 180.3073Q470.39993 181.1198 471.4468 181.1198Q472.3843 181.1198 472.8843 180.69792Q473.3843 180.26042 473.55618 179.21355L474.68118 179.21355Z" fill-rule="nonzero"/><path stroke="#46bdc6" stroke-width="4.0" stroke-linecap="butt" d="M432.41556 202.41667L444.41556 202.41667" fill-rule="nonzero"/><path fill="#757575" d="M458.11868 203.15105L454.52493 203.15105L454.52493 206.91667L453.39993 206.91667L453.39993 198.38542L458.6968 198.38542L458.6968 199.3073L454.52493 199.3073L454.52493 202.22917L458.11868 202.22917L458.11868 203.15105ZM464.14993 206.29167Q463.52493 207.04167 462.29056 207.04167Q461.27493 207.04167 460.74368 206.44792Q460.21243 205.85417 460.21243 204.69792L460.21243 200.57292L461.29056 200.57292L461.29056 204.66667Q461.29056 206.1198 462.46243 206.1198Q463.71243 206.1198 464.11868 205.1823L464.11868 200.57292L465.21243 200.57292L465.21243 206.91667L464.18118 206.91667L464.14993 206.29167ZM468.41556 206.91667L467.33743 206.91667L467.33743 197.91667L468.41556 197.91667L468.41556 206.91667ZM471.41556 206.91667L470.33743 206.91667L470.33743 197.91667L471.41556 197.91667L471.41556 206.91667ZM476.39993 206.91667L476.39993 198.38542L478.8218 198.38542Q479.93118 198.38542 480.77493 198.88542Q481.6343 199.3698 482.10306 200.27605Q482.5718 201.1823 482.5718 202.3698L482.5718 202.90105Q482.5718 204.1198 482.10306 205.02605Q481.64993 205.9323 480.77493 206.41667Q479.91556 206.90105 478.77493 206.91667L476.39993 206.91667ZM477.52493 199.3073L477.52493 205.9948L478.71243 205.9948Q480.0093 205.9948 480.72806 205.19792Q481.46243 204.38542 481.46243 202.88542L481.46243 202.38542Q481.46243 200.9323 480.77493 200.13542Q480.10306 199.32292 478.83743 199.3073L477.52493 199.3073ZM485.41556 206.91667L484.33743 206.91667L484.33743 200.57292L485.41556 200.57292L485.41556 206.91667ZM484.24368 198.90105Q484.24368 198.63542 484.39993 198.44792Q484.5718 198.26042 484.8843 198.26042Q485.1968 198.26042 485.35306 198.44792Q485.52493 198.63542 485.52493 198.90105Q485.52493 199.15105 485.35306 199.33855Q485.1968 199.51042 484.8843 199.51042Q484.5718 199.51042 484.39993 199.33855Q484.24368 199.15105 484.24368 198.90105ZM490.93118 205.22917Q490.93118 204.79167 490.58743 204.5573Q490.2593 204.3073 489.43118 204.13542Q488.61868 203.96355 488.1343 203.71355Q487.64993 203.46355 487.41556 203.13542Q487.1968 202.79167 487.1968 202.32292Q487.1968 201.54167 487.85306 201.01042Q488.5093 200.46355 489.54056 200.46355Q490.61868 200.46355 491.27493 201.02605Q491.9468 201.57292 491.9468 202.4323L490.86868 202.4323Q490.86868 201.9948 490.47806 201.6823Q490.10306 201.35417 489.54056 201.35417Q488.9468 201.35417 488.60306 201.6198Q488.27493 201.8698 488.27493 202.27605Q488.27493 202.66667 488.58743 202.8698Q488.89993 203.07292 489.71243 203.26042Q490.52493 203.4323 491.02493 203.6823Q491.52493 203.9323 491.7593 204.29167Q492.0093 204.65105 492.0093 205.15105Q492.0093 206.01042 491.3218 206.52605Q490.64993 207.04167 489.5718 207.04167Q488.80618 207.04167 488.21243 206.77605Q487.6343 206.4948 487.30618 206.01042Q486.97806 205.52605 486.97806 204.96355L488.05618 204.96355Q488.08743 205.51042 488.49368 205.83855Q488.89993 206.15105 489.5718 206.15105Q490.18118 206.15105 490.55618 205.90105Q490.93118 205.65105 490.93118 205.22917ZM495.0093 203.97917L494.3218 204.6823L494.3218 206.91667L493.24368 206.91667L493.24368 197.91667L494.3218 197.91667L494.3218 203.35417L494.89993 202.66667L496.8843 200.57292L498.1968 200.57292L495.72806 203.22917L498.49368 206.91667L497.21243 206.91667L495.0093 203.97917ZM506.14993 206.91667Q506.05618 206.72917 505.99368 206.2448Q505.24368 207.04167 504.1968 207.04167Q503.2593 207.04167 502.64993 206.51042Q502.05618 205.97917 502.05618 205.15105Q502.05618 204.16667 502.80618 203.6198Q503.55618 203.07292 504.93118 203.07292L505.97806 203.07292L505.97806 202.57292Q505.97806 202.01042 505.6343 201.6823Q505.30618 201.33855 504.6343 201.33855Q504.05618 201.33855 503.66556 201.63542Q503.27493 201.91667 503.27493 202.33855L502.18118 202.33855Q502.18118 201.85417 502.5093 201.41667Q502.85306 200.97917 503.43118 200.72917Q504.0093 200.46355 504.6968 200.46355Q505.80618 200.46355 506.41556 201.01042Q507.04056 201.5573 507.0718 202.51042L507.0718 205.4323Q507.0718 206.3073 507.29056 206.82292L507.29056 206.91667L506.14993 206.91667ZM504.35306 206.08855Q504.86868 206.08855 505.3218 205.82292Q505.77493 205.5573 505.97806 205.13542L505.97806 203.83855L505.1343 203.83855Q503.1343 203.83855 503.1343 205.01042Q503.1343 205.51042 503.47806 205.8073Q503.8218 206.08855 504.35306 206.08855ZM510.2593 200.57292L510.29056 201.3698Q511.02493 200.46355 512.1968 200.46355Q514.2124 200.46355 514.228 202.72917L514.228 206.91667L513.1343 206.91667L513.1343 202.71355Q513.1343 202.04167 512.8218 201.71355Q512.5249 201.38542 511.86868 201.38542Q511.33743 201.38542 510.93118 201.66667Q510.54056 201.94792 510.3218 202.40105L510.3218 206.91667L509.24368 206.91667L509.24368 200.57292L510.2593 200.57292ZM515.978 203.69792Q515.978 202.22917 516.6655 201.35417Q517.353 200.46355 518.478 200.46355Q519.5874 200.46355 520.24365 201.21355L520.24365 197.91667L521.3218 197.91667L521.3218 206.91667L520.3218 206.91667L520.2749 206.22917Q519.61865 207.04167 518.4624 207.04167Q517.36865 207.04167 516.6655 206.13542Q515.978 205.22917 515.978 203.77605L515.978 203.69792ZM517.05615 203.82292Q517.05615 204.90105 517.49365 205.51042Q517.9468 206.1198 518.728 206.1198Q519.7593 206.1198 520.24365 205.1823L520.24365 202.27605Q519.7593 201.38542 518.74365 201.38542Q517.9468 201.38542 517.49365 201.9948Q517.05615 202.60417 517.05615 203.82292ZM532.9624 202.9323Q532.9624 204.1823 532.5405 205.1198Q532.11865 206.04167 531.3374 206.54167Q530.5718 207.04167 529.5405 207.04167Q528.5405 207.04167 527.7593 206.54167Q526.978 206.04167 526.5405 205.13542Q526.11865 204.21355 526.103 202.9948L526.103 202.38542Q526.103 201.15105 526.5249 200.21355Q526.9624 199.27605 527.74365 198.77605Q528.5249 198.26042 529.5405 198.26042Q530.55615 198.26042 531.3374 198.76042Q532.11865 199.26042 532.5405 200.19792Q532.9624 201.13542 532.9624 202.38542L532.9624 202.9323ZM531.853 202.3698Q531.853 200.85417 531.24365 200.04167Q530.6343 199.22917 529.5405 199.22917Q528.4624 199.22917 527.853 200.04167Q527.24365 200.85417 527.228 202.29167L527.228 202.9323Q527.228 204.40105 527.8374 205.2448Q528.4624 206.07292 529.5405 206.07292Q530.6343 206.07292 531.228 205.29167Q531.8374 204.4948 531.853 203.01042L531.853 202.3698ZM540.30615 199.3073L537.55615 199.3073L537.55615 206.91667L536.4468 206.91667L536.4468 199.3073L533.6968 199.3073L533.6968 198.38542L540.30615 198.38542L540.30615 199.3073ZM546.11865 203.15105L542.5249 203.15105L542.5249 206.91667L541.3999 206.91667L541.3999 198.38542L546.6968 198.38542L546.6968 199.3073L542.5249 199.3073L542.5249 202.22917L546.11865 202.22917L546.11865 203.15105ZM557.68115 204.21355Q557.5249 205.5573 556.68115 206.3073Q555.8374 207.04167 554.4468 207.04167Q552.93115 207.04167 552.0249 205.96355Q551.11865 204.8698 551.11865 203.04167L551.11865 202.22917Q551.11865 201.04167 551.5405 200.13542Q551.9624 199.22917 552.74365 198.7448Q553.5249 198.26042 554.5405 198.26042Q555.8999 198.26042 556.7124 199.02605Q557.5405 199.79167 557.68115 201.1198L556.55615 201.1198Q556.3999 200.10417 555.9155 199.65105Q555.43115 199.19792 554.5405 199.19792Q553.4624 199.19792 552.853 199.9948Q552.24365 200.79167 552.24365 202.26042L552.24365 203.08855Q552.24365 204.47917 552.8218 205.3073Q553.3999 206.1198 554.4468 206.1198Q555.3843 206.1198 555.8843 205.69792Q556.3843 205.26042 556.55615 204.21355L557.68115 204.21355ZM559.3999 206.91667L559.3999 198.38542L562.1968 198.38542Q563.5874 198.38542 564.2749 198.96355Q564.978 199.52605 564.978 200.65105Q564.978 201.26042 564.6343 201.72917Q564.30615 202.1823 563.7124 202.4323Q564.4155 202.6198 564.80615 203.16667Q565.2124 203.69792 565.2124 204.44792Q565.2124 205.60417 564.4624 206.26042Q563.728 206.91667 562.36865 206.91667L559.3999 206.91667ZM560.5249 202.9323L560.5249 205.9948L562.3843 205.9948Q563.18115 205.9948 563.6343 205.58855Q564.0874 205.1823 564.0874 204.46355Q564.0874 202.9323 562.3999 202.9323L560.5249 202.9323ZM560.5249 202.02605L562.228 202.02605Q562.9624 202.02605 563.3999 201.66667Q563.853 201.29167 563.853 200.65105Q563.853 199.94792 563.4468 199.63542Q563.0405 199.3073 562.1968 199.3073L560.5249 199.3073L560.5249 202.02605ZM572.68115 204.21355Q572.5249 205.5573 571.68115 206.3073Q570.8374 207.04167 569.4468 207.04167Q567.93115 207.04167 567.0249 205.96355Q566.11865 204.8698 566.11865 203.04167L566.11865 202.22917Q566.11865 201.04167 566.5405 200.13542Q566.9624 199.22917 567.74365 198.7448Q568.5249 198.26042 569.5405 198.26042Q570.8999 198.26042 571.7124 199.02605Q572.5405 199.79167 572.68115 201.1198L571.55615 201.1198Q571.3999 200.10417 570.9155 199.65105Q570.43115 199.19792 569.5405 199.19792Q568.4624 199.19792 567.853 199.9948Q567.24365 200.79167 567.24365 202.26042L567.24365 203.08855Q567.24365 204.47917 567.8218 205.3073Q568.3999 206.1198 569.4468 206.1198Q570.3843 206.1198 570.8843 205.69792Q571.3843 205.26042 571.55615 204.21355L572.68115 204.21355Z" fill-rule="nonzero"/><path fill="#757575" d="M20.20625 37.55L20.20625 23.33125L24.221874 23.33125Q26.065624 23.33125 27.4875 24.159374Q28.925 24.971874 29.690624 26.4875Q30.471874 28.003124 30.4875 29.95625L30.4875 30.8625Q30.4875 32.878124 29.70625 34.39375Q28.925 35.909374 27.4875 36.721874Q26.05 37.534374 24.14375 37.55L20.20625 37.55ZM22.08125 24.878124L22.08125 36.01875L24.05 36.01875Q26.221874 36.01875 27.425 34.675Q28.628124 33.315624 28.628124 30.83125L28.628124 30.003124Q28.628124 27.58125 27.4875 26.2375Q26.346874 24.89375 24.26875 24.878124L22.08125 24.878124ZM37.3 37.753124Q35.159374 37.753124 33.8 36.346874Q32.45625 34.925 32.45625 32.565624L32.45625 32.221874Q32.45625 30.659374 33.05 29.425Q33.659374 28.190624 34.7375 27.4875Q35.815624 26.784374 37.08125 26.784374Q39.14375 26.784374 40.284374 28.14375Q41.425 29.503124 41.425 32.034374L41.425 32.784374L34.26875 32.784374Q34.3 34.346874 35.175 35.315624Q36.05 36.26875 37.39375 36.26875Q38.3625 36.26875 39.01875 35.878124Q39.690624 35.4875 40.190624 34.846874L41.284374 35.70625Q39.95625 37.753124 37.3 37.753124ZM37.08125 28.26875Q35.9875 28.26875 35.2375 29.065624Q34.503124 29.8625 34.33125 31.3L39.6125 31.3L39.6125 31.159374Q39.534374 29.784374 38.8625 29.034374Q38.20625 28.26875 37.08125 28.26875ZM45.628124 26.9875L45.690624 28.315624Q46.89375 26.784374 48.846874 26.784374Q52.20625 26.784374 52.221874 30.565624L52.221874 37.55L50.425 37.55L50.425 30.55Q50.409374 29.409374 49.89375 28.8625Q49.39375 28.315624 48.3 28.315624Q47.425 28.315624 46.753124 28.784374Q46.096874 29.253124 45.721874 30.01875L45.721874 37.55L43.925 37.55L43.925 26.9875L45.628124 26.9875ZM61.065624 34.753124Q61.065624 34.01875 60.51875 33.6125Q59.971874 33.20625 58.596874 32.909374Q57.221874 32.6125 56.409374 32.20625Q55.6125 31.8 55.221874 31.2375Q54.846874 30.659374 54.846874 29.878124Q54.846874 28.58125 55.940624 27.690624Q57.034374 26.784374 58.753124 26.784374Q60.55 26.784374 61.659374 27.721874Q62.784374 28.64375 62.784374 30.08125L60.95625 30.08125Q60.95625 29.346874 60.33125 28.815624Q59.70625 28.26875 58.753124 28.26875Q57.753124 28.26875 57.190624 28.70625Q56.64375 29.128124 56.64375 29.83125Q56.64375 30.471874 57.159374 30.815624Q57.675 31.14375 59.034374 31.45625Q60.39375 31.753124 61.221874 32.175Q62.065624 32.58125 62.471874 33.175Q62.878124 33.76875 62.878124 34.6125Q62.878124 36.034374 61.7375 36.89375Q60.6125 37.753124 58.8 37.753124Q57.534374 37.753124 56.55 37.3Q55.58125 36.846874 55.01875 36.05Q54.471874 35.2375 54.471874 34.3L56.284374 34.3Q56.33125 35.20625 57.003124 35.7375Q57.690624 36.26875 58.8 36.26875Q59.83125 36.26875 60.440624 35.8625Q61.065624 35.440624 61.065624 34.753124ZM69.3 37.753124Q67.15938 37.753124 65.8 36.346874Q64.45625 34.925 64.45625 32.565624L64.45625 32.221874Q64.45625 30.659374 65.05 29.425Q65.65938 28.190624 66.7375 27.4875Q67.81563 26.784374 69.08125 26.784374Q71.14375 26.784374 72.28438 28.14375Q73.425 29.503124 73.425 32.034374L73.425 32.784374L66.26875 32.784374Q66.3 34.346874 67.175 35.315624Q68.05 36.26875 69.39375 36.26875Q70.3625 36.26875 71.01875 35.878124Q71.69063 35.4875 72.19063 34.846874L73.28438 35.70625Q71.95625 37.753124 69.3 37.753124ZM69.08125 28.26875Q67.9875 28.26875 67.2375 29.065624Q66.50313 29.8625 66.33125 31.3L71.6125 31.3L71.6125 31.159374Q71.53438 29.784374 70.8625 29.034374Q70.20625 28.26875 69.08125 28.26875ZM83.3625 29.565624L84.72188 29.565624Q86.00313 29.534374 86.72188 28.89375Q87.45625 28.2375 87.45625 27.1125Q87.45625 24.6125 84.97188 24.6125Q83.8 24.6125 83.09688 25.284374Q82.40938 25.95625 82.40938 27.065624L80.59688 27.065624Q80.59688 25.378124 81.83125 24.253124Q83.06563 23.128124 84.97188 23.128124Q86.9875 23.128124 88.12813 24.20625Q89.26875 25.26875 89.26875 27.159374Q89.26875 28.08125 88.65938 28.95625Q88.06563 29.83125 87.03438 30.253124Q88.20625 30.628124 88.84688 31.4875Q89.4875 32.346874 89.4875 33.58125Q89.4875 35.503124 88.2375 36.628124Q86.9875 37.753124 84.97188 37.753124Q82.97188 37.753124 81.72188 36.675Q80.47188 35.58125 80.47188 33.8L82.28438 33.8Q82.28438 34.925 83.01875 35.596874Q83.75313 36.26875 84.9875 36.26875Q86.28438 36.26875 86.97188 35.596874Q87.675 34.909374 87.675 33.628124Q87.675 32.378124 86.90938 31.721874Q86.15938 31.05 84.72188 31.034374L83.3625 31.034374L83.3625 29.565624ZM101.05 37.55L91.7375 37.55L91.7375 36.253124L96.65938 30.784374Q97.75313 29.534374 98.15938 28.76875Q98.58125 27.9875 98.58125 27.159374Q98.58125 26.05 97.90938 25.33125Q97.2375 24.6125 96.1125 24.6125Q94.75313 24.6125 94.00313 25.39375Q93.26875 26.159374 93.26875 27.51875L91.45625 27.51875Q91.45625 25.55 92.72188 24.346874Q93.9875 23.128124 96.1125 23.128124Q98.09688 23.128124 99.2375 24.175Q100.39375 25.221874 100.39375 26.940624Q100.39375 29.05 97.72188 31.940624L93.90938 36.08125L101.05 36.08125L101.05 37.55ZM105.62813 23.33125L110.26875 34.925L114.925 23.33125L117.34688 23.33125L117.34688 37.55L115.47188 37.55L115.47188 32.01875L115.65938 26.034374L110.9875 37.55L109.55 37.55L104.89375 26.065624L105.08125 32.01875L105.08125 37.55L103.20625 37.55L103.20625 23.33125L105.62813 23.33125ZM120.20625 37.55L120.20625 23.33125L124.84688 23.33125Q127.15938 23.33125 128.33125 24.284374Q129.50313 25.2375 129.50313 27.1125Q129.50313 28.1125 128.925 28.878124Q128.3625 29.64375 127.39375 30.065624Q128.53438 30.39375 129.20625 31.3Q129.87813 32.190624 129.87813 33.440624Q129.87813 35.3625 128.62813 36.45625Q127.39375 37.55 125.12813 37.55L120.20625 37.55ZM122.08125 30.89375L122.08125 36.01875L125.175 36.01875Q126.4875 36.01875 127.2375 35.346874Q127.9875 34.659374 127.9875 33.471874Q127.9875 30.89375 125.20625 30.89375L122.08125 30.89375ZM122.08125 29.39375L124.90938 29.39375Q126.14375 29.39375 126.87813 28.784374Q127.6125 28.159374 127.6125 27.1125Q127.6125 25.940624 126.925 25.409374Q126.25313 24.878124 124.84688 24.878124L122.08125 24.878124L122.08125 29.39375ZM145.05 31.26875L139.08125 31.26875L139.08125 37.55L137.20625 37.55L137.20625 23.33125L146.00313 23.33125L146.00313 24.878124L139.08125 24.878124L139.08125 29.7375L145.05 29.7375L145.05 31.26875ZM149.87813 37.55L148.08125 37.55L148.08125 26.9875L149.87813 26.9875L149.87813 37.55ZM147.925 24.175Q147.925 23.7375 148.19063 23.440624Q148.47188 23.128124 148.9875 23.128124Q149.51875 23.128124 149.78438 23.440624Q150.06563 23.7375 150.06563 24.175Q150.06563 24.6125 149.78438 24.909374Q149.51875 25.20625 148.9875 25.20625Q148.47188 25.20625 148.19063 24.909374Q147.925 24.6125 147.925 24.175ZM154.87813 37.55L153.08125 37.55L153.08125 22.55L154.87813 22.55L154.87813 37.55ZM162.3 37.753124Q160.15938 37.753124 158.8 36.346874Q157.45625 34.925 157.45625 32.565624L157.45625 32.221874Q157.45625 30.659374 158.05 29.425Q158.65938 28.190624 159.7375 27.4875Q160.81563 26.784374 162.08125 26.784374Q164.14375 26.784374 165.28438 28.14375Q166.425 29.503124 166.425 32.034374L166.425 32.784374L159.26875 32.784374Q159.3 34.346874 160.175 35.315624Q161.05 36.26875 162.39375 36.26875Q163.3625 36.26875 164.01875 35.878124Q164.69063 35.4875 165.19063 34.846874L166.28438 35.70625Q164.95625 37.753124 162.3 37.753124ZM162.08125 28.26875Q160.9875 28.26875 160.2375 29.065624Q159.50313 29.8625 159.33125 31.3L164.6125 31.3L164.6125 31.159374Q164.53438 29.784374 163.8625 29.034374Q163.20625 28.26875 162.08125 28.26875ZM175.06563 34.753124Q175.06563 34.01875 174.51875 33.6125Q173.97188 33.20625 172.59688 32.909374Q171.22188 32.6125 170.40938 32.20625Q169.6125 31.8 169.22188 31.2375Q168.84688 30.659374 168.84688 29.878124Q168.84688 28.58125 169.94063 27.690624Q171.03438 26.784374 172.75313 26.784374Q174.55 26.784374 175.65938 27.721874Q176.78438 28.64375 176.78438 30.08125L174.95625 30.08125Q174.95625 29.346874 174.33125 28.815624Q173.70625 28.26875 172.75313 28.26875Q171.75313 28.26875 171.19063 28.70625Q170.64375 29.128124 170.64375 29.83125Q170.64375 30.471874 171.15938 30.815624Q171.675 31.14375 173.03438 31.45625Q174.39375 31.753124 175.22188 32.175Q176.06563 32.58125 176.47188 33.175Q176.87813 33.76875 176.87813 34.6125Q176.87813 36.034374 175.7375 36.89375Q174.6125 37.753124 172.8 37.753124Q171.53438 37.753124 170.55 37.3Q169.58125 36.846874 169.01875 36.05Q168.47188 35.2375 168.47188 34.3L170.28438 34.3Q170.33125 35.20625 171.00313 35.7375Q171.69063 36.26875 172.8 36.26875Q173.83125 36.26875 174.44063 35.8625Q175.06563 35.440624 175.06563 34.753124ZM182.37813 34.909374L184.83125 26.9875L186.76875 26.9875L182.51875 39.175Q181.53438 41.815624 179.39375 41.815624L179.05 41.784374L178.37813 41.659374L178.37813 40.190624L178.8625 40.2375Q179.78438 40.2375 180.28438 39.8625Q180.8 39.4875 181.12813 38.503124L181.53438 37.425L177.76875 26.9875L179.7375 26.9875L182.37813 34.909374ZM194.06563 34.753124Q194.06563 34.01875 193.51875 33.6125Q192.97188 33.20625 191.59688 32.909374Q190.22188 32.6125 189.40938 32.20625Q188.6125 31.8 188.22188 31.2375Q187.84688 30.659374 187.84688 29.878124Q187.84688 28.58125 188.94063 27.690624Q190.03438 26.784374 191.75313 26.784374Q193.55 26.784374 194.65938 27.721874Q195.78438 28.64375 195.78438 30.08125L193.95625 30.08125Q193.95625 29.346874 193.33125 28.815624Q192.70625 28.26875 191.75313 28.26875Q190.75313 28.26875 190.19063 28.70625Q189.64375 29.128124 189.64375 29.83125Q189.64375 30.471874 190.15938 30.815624Q190.675 31.14375 192.03438 31.45625Q193.39375 31.753124 194.22188 32.175Q195.06563 32.58125 195.47188 33.175Q195.87813 33.76875 195.87813 34.6125Q195.87813 36.034374 194.7375 36.89375Q193.6125 37.753124 191.8 37.753124Q190.53438 37.753124 189.55 37.3Q188.58125 36.846874 188.01875 36.05Q187.47188 35.2375 187.47188 34.3L189.28438 34.3Q189.33125 35.20625 190.00313 35.7375Q190.69063 36.26875 191.8 36.26875Q192.83125 36.26875 193.44063 35.8625Q194.06563 35.440624 194.06563 34.753124ZM200.3625 24.425L200.3625 26.9875L202.34688 26.9875L202.34688 28.378124L200.3625 28.378124L200.3625 34.925Q200.3625 35.565624 200.62813 35.89375Q200.89375 36.20625 201.53438 36.20625Q201.84688 36.20625 202.39375 36.08125L202.39375 37.55Q201.675 37.753124 201.00313 37.753124Q199.8 37.753124 199.175 37.01875Q198.56563 36.284374 198.56563 34.925L198.56563 28.378124L196.64375 28.378124L196.64375 26.9875L198.56563 26.9875L198.56563 24.425L200.3625 24.425ZM209.3 37.753124Q207.15938 37.753124 205.8 36.346874Q204.45625 34.925 204.45625 32.565624L204.45625 32.221874Q204.45625 30.659374 205.05 29.425Q205.65938 28.190624 206.7375 27.4875Q207.81563 26.784374 209.08125 26.784374Q211.14375 26.784374 212.28438 28.14375Q213.425 29.503124 213.425 32.034374L213.425 32.784374L206.26875 32.784374Q206.3 34.346874 207.175 35.315624Q208.05 36.26875 209.39375 36.26875Q210.3625 36.26875 211.01875 35.878124Q211.69063 35.4875 212.19063 34.846874L213.28438 35.70625Q211.95625 37.753124 209.3 37.753124ZM209.08125 28.26875Q207.9875 28.26875 207.2375 29.065624Q206.50313 29.8625 206.33125 31.3L211.6125 31.3L211.6125 31.159374Q211.53438 29.784374 210.8625 29.034374Q210.20625 28.26875 209.08125 28.26875ZM217.6125 26.9875L217.65938 28.159374Q218.83125 26.784374 220.8 26.784374Q223.01875 26.784374 223.81563 28.4875Q224.34688 27.721874 225.19063 27.253124Q226.03438 26.784374 227.19063 26.784374Q230.65938 26.784374 230.72188 30.471874L230.72188 37.55L228.90938 37.55L228.90938 30.58125Q228.90938 29.440624 228.39375 28.878124Q227.87813 28.315624 226.65938 28.315624Q225.65938 28.315624 224.9875 28.925Q224.33125 29.51875 224.22188 30.534374L224.22188 37.55L222.40938 37.55L222.40938 30.628124Q222.40938 28.315624 220.14375 28.315624Q218.3625 28.315624 217.72188 29.83125L217.72188 37.55L215.90938 37.55L215.90938 26.9875L217.6125 26.9875Z" fill-rule="nonzero"/></svg>