<svg version="1.1" viewBox="0.0 0.0 600.0 371.0" fill="none" stroke="none" stroke-linecap="square" stroke-miterlimit="10" width="600" height="371" xmlns:xlink="http://www.w3.org/1999/xlink" xmlns="http://www.w3.org/2000/svg"><path fill="#ffffff" d="M0 0L600.0 0L600.0 371.0L0 371.0L0 0Z" fill-rule="nonzero"/><path stroke="#cccccc" stroke-width="1.0" stroke-linecap="butt" d="M101.5 62.5L101.5 298.5" fill-rule="nonzero"/><path stroke="#cccccc" stroke-width="1.0" stroke-linecap="butt" d="M157.5 62.5L157.5 298.5" fill-rule="nonzero"/><path stroke="#cccccc" stroke-width="1.0" stroke-linecap="butt" d="M213.5 62.5L213.5 298.5" fill-rule="nonzero"/><path stroke="#cccccc" stroke-width="1.0" stroke-linecap="butt" d="M269.5 62.5L269.5 298.5" fill-rule="nonzero"/><path stroke="#cccccc" stroke-width="1.0" stroke-linecap="butt" d="M325.5 62.5L325.5 298.5" fill-rule="nonzero"/><path stroke="#cccccc" stroke-width="1.0" stroke-linecap="butt" d="M381.5 62.5L381.5 298.5" fill-rule="nonzero"/><path stroke="#cccccc" stroke-width="1.0" stroke-linecap="butt" d="M48.5 253.5L412.5 253.5" fill-rule="nonzero"/><path stroke="#cccccc" stroke-width="1.0" stroke-linecap="butt" d="M48.5 225.5L412.5 225.5" fill-rule="nonzero"/><path stroke="#cccccc" stroke-width="1.0" stroke-linecap="butt" d="M48.5 160.5L412.5 160.5" fill-rule="nonzero"/><path stroke="#cccccc" stroke-width="1.0" stroke-linecap="butt" d="M48.5 132.5L412.5 132.5" fill-rule="nonzero"/><path stroke="#cccccc" stroke-width="1.0" stroke-linecap="butt" d="M48.5 67.5L412.5 67.5" fill-rule="nonzero"/><clipPath id="id_0"><path d="M48.55 62.416668L412.58 62.416668L412.58 298.45L48.55 298.45L48.55 62.416668Z" clip-rule="nonzero"/></clipPath><path stroke="#4285f4" stroke-width="2.0" stroke-linecap="butt" clip-path="url(#id_0)" d="M48.55 68.06332C48.55 68.06332 54.282757 127.00857 57.149136 141.1039C60.01551 155.19922 110.654854 228.37552 137.40771 248.73018C164.16058 269.08484 412.58 298.45 412.58 298.45" fill-rule="nonzero"/><path stroke="#db4437" stroke-width="2.0" stroke-linecap="butt" clip-path="url(#id_0)" d="M48.55 66.77647C48.55 66.77647 54.282757 121.76446 57.149136 134.94708C60.01551 148.1297 110.654854 218.05684 137.40771 236.91476C164.16058 255.77267 412.58 275.24564 412.58 275.24564" fill-rule="nonzero"/><path stroke="#f4b400" stroke-width="2.0" stroke-linecap="butt" clip-path="url(#id_0)" d="M48.55 67.154655C48.55 67.154655 54.282757 124.95943 57.149136 138.56958C60.01551 152.17973 110.654854 216.1092 137.40771 234.19875C164.16058 252.28828 412.58 278.455 412.58 278.455" fill-rule="nonzero"/><path stroke="#0f9d58" stroke-width="2.0" stroke-linecap="butt" clip-path="url(#id_0)" d="M48.55 66.5792C48.55 66.5792 54.282757 122.22544 57.149136 134.887C60.01551 147.54854 110.654854 193.90431 137.40771 206.3943C164.16058 218.88431 412.58 218.16342 412.58 218.16342" fill-rule="nonzero"/><path stroke="#ff6d00" stroke-width="2.0" stroke-linecap="butt" clip-path="url(#id_0)" d="M48.55 62.416668C48.55 62.416668 54.282757 106.050575 57.149136 116.48255C60.01551 126.91452 110.654854 181.96004 137.40771 196.05804C164.16058 210.15605 412.58 213.24387 412.58 213.24387" fill-rule="nonzero"/><path stroke="#46bdc6" stroke-width="2.0" stroke-linecap="butt" clip-path="url(#id_0)" d="M48.55 67.16568C48.55 67.16568 54.282757 119.09226 57.149136 130.9628C60.01551 142.83333 110.654854 188.08005 137.40771 200.27272C164.16058 212.4654 412.58 213.45938 412.58 213.45938" fill-rule="nonzero"/><path fill="#000000" fill-opacity="0.0" clip-path="url(#id_0)" d="M51.55 68.06332C51.55 69.72018 50.206856 71.06332 48.55 71.06332C46.893147 71.06332 45.55 69.72018 45.55 68.06332C45.55 66.40646 46.893147 65.06332 48.55 65.06332C50.206856 65.06332 51.55 66.40646 51.55 68.06332Z" fill-rule="nonzero"/><path fill="#000000" fill-opacity="0.0" clip-path="url(#id_0)" d="M60.149136 141.1039C60.149136 142.76074 58.80599 144.1039 57.149136 144.1039C55.49228 144.1039 54.149136 142.76074 54.149136 141.1039C54.149136 139.44704 55.49228 138.1039 57.149136 138.1039C58.80599 138.1039 60.149136 139.44704 60.149136 141.1039Z" fill-rule="nonzero"/><path fill="#000000" fill-opacity="0.0" clip-path="url(#id_0)" d="M140.40771 248.73018C140.40771 250.38702 139.06458 251.73018 137.40771 251.73018C135.75087 251.73018 134.40771 250.38702 134.40771 248.73018C134.40771 247.07332 135.75087 245.73018 137.40771 245.73018C139.06458 245.73018 140.40771 247.07332 140.40771 248.73018Z" fill-rule="nonzero"/><path fill="#000000" fill-opacity="0.0" clip-path="url(#id_0)" d="M415.58 298.45C415.58 300.10684 414.23685 301.45 412.58 301.45C410.92316 301.45 409.58 300.10684 409.58 298.45C409.58 296.79315 410.92316 295.45 412.58 295.45C414.23685 295.45 415.58 296.79315 415.58 298.45Z" fill-rule="nonzero"/><path fill="#000000" fill-opacity="0.0" clip-path="url(#id_0)" d="M51.55 66.77647C51.55 68.43332 50.206856 69.77647 48.55 69.77647C46.893147 69.77647 45.55 68.43332 45.55 66.77647C45.55 65.11961 46.893147 63.776466 48.55 63.776466C50.206856 63.776466 51.55 65.11961 51.55 66.77647Z" fill-rule="nonzero"/><path fill="#000000" fill-opacity="0.0" clip-path="url(#id_0)" d="M60.149136 134.94708C60.149136 136.60393 58.80599 137.94708 57.149136 137.94708C55.49228 137.94708 54.149136 136.60393 54.149136 134.94708C54.149136 133.29022 55.49228 131.94708 57.149136 131.94708C58.80599 131.94708 60.149136 133.29022 60.149136 134.94708Z" fill-rule="nonzero"/><path fill="#000000" fill-opacity="0.0" clip-path="url(#id_0)" d="M140.40771 236.91476C140.40771 238.57161 139.06458 239.91476 137.40771 239.91476C135.75087 239.91476 134.40771 238.57161 134.40771 236.91476C134.40771 235.2579 135.75087 233.91476 137.40771 233.91476C139.06458 233.91476 140.40771 235.2579 140.40771 236.91476Z" fill-rule="nonzero"/><path fill="#000000" fill-opacity="0.0" clip-path="url(#id_0)" d="M415.58 275.24564C415.58 276.9025 414.23685 278.24564 412.58 278.24564C410.92316 278.24564 409.58 276.9025 409.58 275.24564C409.58 273.58878 410.92316 272.24564 412.58 272.24564C414.23685 272.24564 415.58 273.58878 415.58 275.24564Z" fill-rule="nonzero"/><path fill="#000000" fill-opacity="0.0" clip-path="url(#id_0)" d="M51.55 67.154655C51.55 68.81151 50.206856 70.154655 48.55 70.154655C46.893147 70.154655 45.55 68.81151 45.55 67.154655C45.55 65.4978 46.893147 64.154655 48.55 64.154655C50.206856 64.154655 51.55 65.4978 51.55 67.154655Z" fill-rule="nonzero"/><path fill="#000000" fill-opacity="0.0" clip-path="url(#id_0)" d="M60.149136 138.56958C60.149136 140.22643 58.80599 141.56958 57.149136 141.56958C55.49228 141.56958 54.149136 140.22643 54.149136 138.56958C54.149136 136.91272 55.49228 135.56958 57.149136 135.56958C58.80599 135.56958 60.149136 136.91272 60.149136 138.56958Z" fill-rule="nonzero"/><path fill="#000000" fill-opacity="0.0" clip-path="url(#id_0)" d="M140.40771 234.19875C140.40771 235.8556 139.06458 237.19875 137.40771 237.19875C135.75087 237.19875 134.40771 235.8556 134.40771 234.19875C134.40771 232.5419 135.75087 231.19875 137.40771 231.19875C139.06458 231.19875 140.40771 232.5419 140.40771 234.19875Z" fill-rule="nonzero"/><path fill="#000000" fill-opacity="0.0" clip-path="url(#id_0)" d="M415.58 278.455C415.58 280.11185 414.23685 281.455 412.58 281.455C410.92316 281.455 409.58 280.11185 409.58 278.455C409.58 276.79813 410.92316 275.455 412.58 275.455C414.23685 275.455 415.58 276.79813 415.58 278.455Z" fill-rule="nonzero"/><path fill="#000000" fill-opacity="0.0" clip-path="url(#id_0)" d="M51.55 66.5792C51.55 68.23605 50.206856 69.5792 48.55 69.5792C46.893147 69.5792 45.55 68.23605 45.55 66.5792C45.55 64.92235 46.893147 63.579205 48.55 63.579205C50.206856 63.579205 51.55 64.92235 51.55 66.5792Z" fill-rule="nonzero"/><path fill="#000000" fill-opacity="0.0" clip-path="url(#id_0)" d="M60.149136 134.887C60.149136 136.54384 58.80599 137.887 57.149136 137.887C55.49228 137.887 54.149136 136.54384 54.149136 134.887C54.149136 133.23013 55.49228 131.887 57.149136 131.887C58.80599 131.887 60.149136 133.23013 60.149136 134.887Z" fill-rule="nonzero"/><path fill="#000000" fill-opacity="0.0" clip-path="url(#id_0)" d="M140.40771 206.3943C140.40771 208.05116 139.06458 209.3943 137.40771 209.3943C135.75087 209.3943 134.40771 208.05116 134.40771 206.3943C134.40771 204.73746 135.75087 203.3943 137.40771 203.3943C139.06458 203.3943 140.40771 204.73746 140.40771 206.3943Z" fill-rule="nonzero"/><path fill="#000000" fill-opacity="0.0" clip-path="url(#id_0)" d="M415.58 218.16342C415.58 219.82028 414.23685 221.16342 412.58 221.16342C410.92316 221.16342 409.58 219.82028 409.58 218.16342C409.58 216.50658 410.92316 215.16342 412.58 215.16342C414.23685 215.16342 415.58 216.50658 415.58 218.16342Z" fill-rule="nonzero"/><path fill="#000000" fill-opacity="0.0" clip-path="url(#id_0)" d="M51.55 62.416668C51.55 64.073524 50.206856 65.416664 48.55 65.416664C46.893147 65.416664 45.55 64.073524 45.55 62.416668C45.55 60.75981 46.893147 59.416668 48.55 59.416668C50.206856 59.416668 51.55 60.75981 51.55 62.416668Z" fill-rule="nonzero"/><path fill="#000000" fill-opacity="0.0" clip-path="url(#id_0)" d="M60.149136 116.48255C60.149136 118.139404 58.80599 119.48255 57.149136 119.48255C55.49228 119.48255 54.149136 118.139404 54.149136 116.48255C54.149136 114.82569 55.49228 113.48255 57.149136 113.48255C58.80599 113.48255 60.149136 114.82569 60.149136 116.48255Z" fill-rule="nonzero"/><path fill="#000000" fill-opacity="0.0" clip-path="url(#id_0)" d="M140.40771 196.05804C140.40771 197.7149 139.06458 199.05804 137.40771 199.05804C135.75087 199.05804 134.40771 197.7149 134.40771 196.05804C134.40771 194.4012 135.75087 193.05804 137.40771 193.05804C139.06458 193.05804 140.40771 194.4012 140.40771 196.05804Z" fill-rule="nonzero"/><path fill="#000000" fill-opacity="0.0" clip-path="url(#id_0)" d="M415.58 213.24387C415.58 214.90073 414.23685 216.24387 412.58 216.24387C410.92316 216.24387 409.58 214.90073 409.58 213.24387C409.58 211.58702 410.92316 210.24387 412.58 210.24387C414.23685 210.24387 415.58 211.58702 415.58 213.24387Z" fill-rule="nonzero"/><path fill="#000000" fill-opacity="0.0" clip-path="url(#id_0)" d="M51.55 67.16568C51.55 68.82253 50.206856 70.16568 48.55 70.16568C46.893147 70.16568 45.55 68.82253 45.55 67.16568C45.55 65.50883 46.893147 64.16568 48.55 64.16568C50.206856 64.16568 51.55 65.50883 51.55 67.16568Z" fill-rule="nonzero"/><path fill="#000000" fill-opacity="0.0" clip-path="url(#id_0)" d="M60.149136 130.9628C60.149136 132.61964 58.80599 133.9628 57.149136 133.9628C55.49228 133.9628 54.149136 132.61964 54.149136 130.9628C54.149136 129.30594 55.49228 127.9628 57.149136 127.9628C58.80599 127.9628 60.149136 129.30594 60.149136 130.9628Z" fill-rule="nonzero"/><path fill="#000000" fill-opacity="0.0" clip-path="url(#id_0)" d="M140.40771 200.27272C140.40771 201.92958 139.06458 203.27272 137.40771 203.27272C135.75087 203.27272 134.40771 201.92958 134.40771 200.27272C134.40771 198.61588 135.75087 197.27272 137.40771 197.27272C139.06458 197.27272 140.40771 198.61588 140.40771 200.27272Z" fill-rule="nonzero"/><path fill="#000000" fill-opacity="0.0" clip-path="url(#id_0)" d="M415.58 213.45938C415.58 215.11623 414.23685 216.45938 412.58 216.45938C410.92316 216.45938 409.58 215.11623 409.58 213.45938C409.58 211.80252 410.92316 210.45938 412.58 210.45938C414.23685 210.45938 415.58 211.80252 415.58 213.45938Z" fill-rule="nonzero"/><path fill="#424242" d="M214.26813 345.6844L210.67438 345.6844L210.67438 349.45L209.54938 349.45L209.54938 340.91876L214.84625 340.91876L214.84625 341.84064L210.67438 341.84064L210.67438 344.7625L214.26813 344.7625L214.26813 345.6844ZM217.565 349.45L216.48688 349.45L216.48688 343.10626L217.565 343.10626L217.565 349.45ZM216.39313 341.4344Q216.39313 341.16876 216.54938 340.98126Q216.72125 340.79376 217.03375 340.79376Q217.34625 340.79376 217.5025 340.98126Q217.67438 341.16876 217.67438 341.4344Q217.67438 341.6844 217.5025 341.8719Q217.34625 342.04376 217.03375 342.04376Q216.72125 342.04376 216.54938 341.8719Q216.39313 341.6844 216.39313 341.4344ZM220.565 349.45L219.48688 349.45L219.48688 340.45L220.565 340.45L220.565 349.45ZM225.01813 349.575Q223.72125 349.575 222.90875 348.73126Q222.11188 347.8719 222.11188 346.45L222.11188 346.2625Q222.11188 345.3094 222.47125 344.575Q222.83063 343.825 223.47125 343.41876Q224.1275 342.9969 224.8775 342.9969Q226.11188 342.9969 226.79938 343.8094Q227.48688 344.6219 227.48688 346.1375L227.48688 346.59064L223.19 346.59064Q223.22125 347.52814 223.73688 348.10626Q224.26813 348.6844 225.08063 348.6844Q225.64313 348.6844 226.03375 348.45Q226.44 348.21564 226.7525 347.825L227.40875 348.34064Q226.61188 349.575 225.01813 349.575ZM224.8775 343.8875Q224.22125 343.8875 223.76813 344.3719Q223.33063 344.84064 223.23688 345.7L226.40875 345.7L226.40875 345.6219Q226.36188 344.79376 225.95563 344.34064Q225.565 343.8875 224.8775 343.8875ZM234.065 345.65314Q232.6275 345.23126 231.95563 344.6219Q231.29938 344.0125 231.29938 343.1219Q231.29938 342.1219 232.09625 341.46564Q232.90875 340.79376 234.20563 340.79376Q235.08063 340.79376 235.76813 341.1375Q236.45563 341.48126 236.83063 342.075Q237.22125 342.66876 237.22125 343.3875L236.08063 343.3875Q236.08063 342.60626 235.58063 342.16876Q235.09625 341.73126 234.20563 341.73126Q233.3775 341.73126 232.90875 342.10626Q232.44 342.46564 232.44 343.10626Q232.44 343.6375 232.8775 343.9969Q233.33063 344.35626 234.39313 344.65314Q235.45563 344.95 236.04938 345.3094Q236.65875 345.66876 236.94 346.15314Q237.23688 346.6375 237.23688 347.27814Q237.23688 348.325 236.42438 348.95Q235.61188 349.575 234.26813 349.575Q233.3775 349.575 232.61188 349.23126Q231.86188 348.8875 231.44 348.3094Q231.03375 347.71564 231.03375 346.98126L232.15875 346.98126Q232.15875 347.7469 232.73688 348.2Q233.315 348.65314 234.26813 348.65314Q235.15875 348.65314 235.6275 348.29376Q236.09625 347.91876 236.09625 347.29376Q236.09625 346.66876 235.65875 346.325Q235.22125 345.98126 234.065 345.65314ZM239.565 349.45L238.48688 349.45L238.48688 343.10626L239.565 343.10626L239.565 349.45ZM238.39313 341.4344Q238.39313 341.16876 238.54938 340.98126Q238.72125 340.79376 239.03375 340.79376Q239.34625 340.79376 239.5025 340.98126Q239.67438 341.16876 239.67438 341.4344Q239.67438 341.6844 239.5025 341.8719Q239.34625 342.04376 239.03375 342.04376Q238.72125 342.04376 238.54938 341.8719Q238.39313 341.6844 238.39313 341.4344ZM242.40875 348.5594L246.11188 348.5594L246.11188 349.45L241.08063 349.45L241.08063 348.65314L244.58063 344.0125L241.1275 344.0125L241.1275 343.10626L245.94 343.10626L245.94 343.8719L242.40875 348.5594ZM250.01813 349.575Q248.72125 349.575 247.90875 348.73126Q247.11188 347.8719 247.11188 346.45L247.11188 346.2625Q247.11188 345.3094 247.47125 344.575Q247.83063 343.825 248.47125 343.41876Q249.1275 342.9969 249.8775 342.9969Q251.11188 342.9969 251.79938 343.8094Q252.48688 344.6219 252.48688 346.1375L252.48688 346.59064L248.19 346.59064Q248.22125 347.52814 248.73688 348.10626Q249.26813 348.6844 250.08063 348.6844Q250.64313 348.6844 251.03375 348.45Q251.44 348.21564 251.7525 347.825L252.40875 348.34064Q251.61188 349.575 250.01813 349.575ZM249.8775 343.8875Q249.22125 343.8875 248.76813 344.3719Q248.33063 344.84064 248.23688 345.7L251.40875 345.7L251.40875 345.6219Q251.36188 344.79376 250.95563 344.34064Q250.565 343.8875 249.8775 343.8875Z" fill-rule="nonzero"/><path fill="#757575" d="M24.6125 253.88266Q24.6125 255.78891 23.95625 256.7264Q23.315624 257.6483 21.925 257.6483Q20.565624 257.6483 19.909374 256.74203Q19.253124 255.83578 19.221874 254.02328L19.221874 252.58578Q19.221874 250.69516 19.8625 249.78891Q20.51875 248.86703 21.909374 248.86703Q23.284374 248.86703 23.940624 249.75766Q24.596874 250.63266 24.6125 252.47641L24.6125 253.88266ZM23.51875 252.39828Q23.51875 251.02328 23.128124 250.39828Q22.753124 249.75766 21.909374 249.75766Q21.08125 249.75766 20.690624 250.39828Q20.315624 251.02328 20.315624 252.32016L20.315624 254.05453Q20.315624 255.42953 20.70625 256.1014Q21.1125 256.75766 21.925 256.75766Q22.721874 256.75766 23.1125 256.13266Q23.503124 255.50766 23.51875 254.17953L23.51875 252.39828ZM26.39375 256.9608Q26.39375 256.67953 26.55 256.49203Q26.721874 256.30453 27.05 256.30453Q27.39375 256.30453 27.565624 256.49203Q27.7375 256.67953 27.7375 256.9608Q27.7375 257.2264 27.565624 257.4139Q27.39375 257.5858 27.05 257.5858Q26.721874 257.5858 26.55 257.4139Q26.39375 257.2264 26.39375 256.9608ZM34.6125 253.88266Q34.6125 255.78891 33.95625 256.7264Q33.315624 257.6483 31.925 257.6483Q30.565624 257.6483 29.909374 256.74203Q29.253124 255.83578 29.221874 254.02328L29.221874 252.58578Q29.221874 250.69516 29.8625 249.78891Q30.51875 248.86703 31.909374 248.86703Q33.284374 248.86703 33.940624 249.75766Q34.596874 250.63266 34.6125 252.47641L34.6125 253.88266ZM33.51875 252.39828Q33.51875 251.02328 33.128124 250.39828Q32.753124 249.75766 31.909374 249.75766Q31.08125 249.75766 30.690624 250.39828Q30.315624 251.02328 30.315624 252.32016L30.315624 254.05453Q30.315624 255.42953 30.70625 256.1014Q31.1125 256.75766 31.925 256.75766Q32.721874 256.75766 33.1125 256.13266Q33.503124 255.50766 33.51875 254.17953L33.51875 252.39828ZM36.753124 253.24203L37.190624 248.99203L41.565624 248.99203L41.565624 249.99203L38.1125 249.99203L37.846874 252.32016Q38.4875 251.94516 39.284374 251.94516Q40.440624 251.94516 41.128124 252.72641Q41.815624 253.49203 41.815624 254.80453Q41.815624 256.11703 41.096874 256.88266Q40.39375 257.6483 39.1125 257.6483Q37.9875 257.6483 37.26875 257.0233Q36.55 256.38266 36.45625 255.27328L37.471874 255.27328Q37.58125 256.00766 38.003124 256.38266Q38.425 256.75766 39.1125 256.75766Q39.8625 256.75766 40.3 256.24203Q40.7375 255.72641 40.7375 254.82016Q40.7375 253.96078 40.26875 253.44516Q39.8 252.92953 39.01875 252.92953Q38.315624 252.92953 37.909374 253.22641L37.628124 253.46078L36.753124 253.24203Z" fill-rule="nonzero"/><path fill="#757575" d="M31.6125 225.94298Q31.6125 227.84923 30.95625 228.78673Q30.315624 229.7086 28.925 229.7086Q27.565624 229.7086 26.909374 228.80235Q26.253124 227.8961 26.221874 226.0836L26.221874 224.6461Q26.221874 222.75548 26.8625 221.84923Q27.51875 220.92735 28.909374 220.92735Q30.284374 220.92735 30.940624 221.81798Q31.596874 222.69298 31.6125 224.53673L31.6125 225.94298ZM30.51875 224.4586Q30.51875 223.0836 30.128124 222.4586Q29.753124 221.81798 28.909374 221.81798Q28.08125 221.81798 27.690624 222.4586Q27.315624 223.0836 27.315624 224.38048L27.315624 226.11485Q27.315624 227.48985 27.70625 228.16173Q28.1125 228.81798 28.925 228.81798Q29.721874 228.81798 30.1125 228.19298Q30.503124 227.56798 30.51875 226.23985L30.51875 224.4586ZM33.39375 229.0211Q33.39375 228.73985 33.55 228.55235Q33.721874 228.36485 34.05 228.36485Q34.39375 228.36485 34.565624 228.55235Q34.7375 228.73985 34.7375 229.0211Q34.7375 229.28673 34.565624 229.47423Q34.39375 229.6461 34.05 229.6461Q33.721874 229.6461 33.55 229.47423Q33.39375 229.28673 33.39375 229.0211ZM39.815624 229.5836L38.7375 229.5836L38.7375 222.36485L36.55 223.16173L36.55 222.17735L39.659374 221.00548L39.815624 221.00548L39.815624 229.5836Z" fill-rule="nonzero"/><path fill="#757575" d="M31.6125 161.06905Q31.6125 162.9753 30.95625 163.9128Q30.315624 164.83467 28.925 164.83467Q27.565624 164.83467 26.909374 163.92842Q26.253124 163.02217 26.221874 161.20967L26.221874 159.77217Q26.221874 157.88155 26.8625 156.9753Q27.51875 156.05342 28.909374 156.05342Q30.284374 156.05342 30.940624 156.94405Q31.596874 157.81905 31.6125 159.6628L31.6125 161.06905ZM30.51875 159.58467Q30.51875 158.20967 30.128124 157.58467Q29.753124 156.94405 28.909374 156.94405Q28.08125 156.94405 27.690624 157.58467Q27.315624 158.20967 27.315624 159.50655L27.315624 161.24092Q27.315624 162.61592 27.70625 163.2878Q28.1125 163.94405 28.925 163.94405Q29.721874 163.94405 30.1125 163.31905Q30.503124 162.69405 30.51875 161.36592L30.51875 159.58467ZM33.39375 164.14717Q33.39375 163.86592 33.55 163.67842Q33.721874 163.49092 34.05 163.49092Q34.39375 163.49092 34.565624 163.67842Q34.7375 163.86592 34.7375 164.14717Q34.7375 164.4128 34.565624 164.6003Q34.39375 164.77217 34.05 164.77217Q33.721874 164.77217 33.55 164.6003Q33.39375 164.4128 33.39375 164.14717ZM36.753124 160.42842L37.190624 156.17842L41.565624 156.17842L41.565624 157.17842L38.1125 157.17842L37.846874 159.50655Q38.4875 159.13155 39.284374 159.13155Q40.440624 159.13155 41.128124 159.9128Q41.815624 160.67842 41.815624 161.99092Q41.815624 163.30342 41.096874 164.06905Q40.39375 164.83467 39.1125 164.83467Q37.9875 164.83467 37.26875 164.20967Q36.55 163.56905 36.45625 162.45967L37.471874 162.45967Q37.58125 163.19405 38.003124 163.56905Q38.425 163.94405 39.1125 163.94405Q39.8625 163.94405 40.3 163.42842Q40.7375 162.9128 40.7375 162.00655Q40.7375 161.14717 40.26875 160.63155Q39.8 160.11592 39.01875 160.11592Q38.315624 160.11592 37.909374 160.4128L37.628124 160.64717L36.753124 160.42842Z" fill-rule="nonzero"/><path fill="#757575" d="M39.815624 136.77L38.7375 136.77L38.7375 129.55125L36.55 130.34813L36.55 129.36375L39.659374 128.19188L39.815624 128.19188L39.815624 136.77Z" fill-rule="nonzero"/><path fill="#757575" d="M36.753124 67.61483L37.190624 63.36483L41.565624 63.36483L41.565624 64.36483L38.1125 64.36483L37.846874 66.692955Q38.4875 66.317955 39.284374 66.317955Q40.440624 66.317955 41.128124 67.099205Q41.815624 67.86483 41.815624 69.17733Q41.815624 70.48983 41.096874 71.255455Q40.39375 72.02108 39.1125 72.02108Q37.9875 72.02108 37.26875 71.39608Q36.55 70.755455 36.45625 69.64608L37.471874 69.64608Q37.58125 70.380455 38.003124 70.755455Q38.425 71.130455 39.1125 71.130455Q39.8625 71.130455 40.3 70.61483Q40.7375 70.099205 40.7375 69.192955Q40.7375 68.33358 40.26875 67.817955Q39.8 67.30233 39.01875 67.30233Q38.315624 67.30233 37.909374 67.599205L37.628124 67.83358L36.753124 67.61483Z" fill-rule="nonzero"/><path fill="#757575" d="M88.87069 312.16876L89.30819 307.91876L93.68319 307.91876L93.68319 308.91876L90.230064 308.91876L89.96444 311.2469Q90.605064 310.8719 91.40194 310.8719Q92.55819 310.8719 93.24569 311.65314Q93.93319 312.41876 93.93319 313.73126Q93.93319 315.04376 93.21444 315.8094Q92.511314 316.575 91.230064 316.575Q90.105064 316.575 89.386314 315.95Q88.667564 315.3094 88.573814 314.2L89.58944 314.2Q89.698814 314.9344 90.12069 315.3094Q90.542564 315.6844 91.230064 315.6844Q91.980064 315.6844 92.417564 315.16876Q92.855064 314.65314 92.855064 313.7469Q92.855064 312.8875 92.386314 312.3719Q91.917564 311.85626 91.136314 311.85626Q90.43319 311.85626 90.02694 312.15314L89.74569 312.3875L88.87069 312.16876ZM100.730064 312.8094Q100.730064 314.71564 100.073814 315.65314Q99.43319 316.575 98.042564 316.575Q96.68319 316.575 96.02694 315.66876Q95.37069 314.7625 95.33944 312.95L95.33944 311.5125Q95.33944 309.6219 95.980064 308.71564Q96.636314 307.79376 98.02694 307.79376Q99.40194 307.79376 100.05819 308.6844Q100.71444 309.5594 100.730064 311.40314L100.730064 312.8094ZM99.636314 311.325Q99.636314 309.95 99.24569 309.325Q98.87069 308.6844 98.02694 308.6844Q97.198814 308.6844 96.80819 309.325Q96.43319 309.95 96.43319 311.2469L96.43319 312.98126Q96.43319 314.35626 96.823814 315.02814Q97.230064 315.6844 98.042564 315.6844Q98.83944 315.6844 99.230064 315.0594Q99.62069 314.4344 99.636314 313.10626L99.636314 311.325ZM107.730064 312.8094Q107.730064 314.71564 107.073814 315.65314Q106.43319 316.575 105.042564 316.575Q103.68319 316.575 103.02694 315.66876Q102.37069 314.7625 102.33944 312.95L102.33944 311.5125Q102.33944 309.6219 102.980064 308.71564Q103.636314 307.79376 105.02694 307.79376Q106.40194 307.79376 107.05819 308.6844Q107.71444 309.5594 107.730064 311.40314L107.730064 312.8094ZM106.636314 311.325Q106.636314 309.95 106.24569 309.325Q105.87069 308.6844 105.02694 308.6844Q104.198814 308.6844 103.80819 309.325Q103.43319 309.95 103.43319 311.2469L103.43319 312.98126Q103.43319 314.35626 103.823814 315.02814Q104.230064 315.6844 105.042564 315.6844Q105.83944 315.6844 106.230064 315.0594Q106.62069 314.4344 106.636314 313.10626L106.636314 311.325ZM114.730064 312.8094Q114.730064 314.71564 114.073814 315.65314Q113.43319 316.575 112.042564 316.575Q110.68319 316.575 110.02694 315.66876Q109.37069 314.7625 109.33944 312.95L109.33944 311.5125Q109.33944 309.6219 109.980064 308.71564Q110.636314 307.79376 112.02694 307.79376Q113.40194 307.79376 114.05819 308.6844Q114.71444 309.5594 114.730064 311.40314L114.730064 312.8094ZM113.636314 311.325Q113.636314 309.95 113.24569 309.325Q112.87069 308.6844 112.02694 308.6844Q111.198814 308.6844 110.80819 309.325Q110.43319 309.95 110.43319 311.2469L110.43319 312.98126Q110.43319 314.35626 110.823814 315.02814Q111.230064 315.6844 112.042564 315.6844Q112.83944 315.6844 113.230064 315.0594Q113.62069 314.4344 113.636314 313.10626L113.636314 311.325Z" fill-rule="nonzero"/><path fill="#757575" d="M144.41713 316.45L143.339 316.45L143.339 309.23126L141.1515 310.02814L141.1515 309.04376L144.26088 307.8719L144.41713 307.8719L144.41713 316.45ZM153.214 312.8094Q153.214 314.71564 152.55775 315.65314Q151.91713 316.575 150.5265 316.575Q149.16713 316.575 148.51088 315.66876Q147.85463 314.7625 147.82338 312.95L147.82338 311.5125Q147.82338 309.6219 148.464 308.71564Q149.12025 307.79376 150.51088 307.79376Q151.88588 307.79376 152.54213 308.6844Q153.19838 309.5594 153.214 311.40314L153.214 312.8094ZM152.12025 311.325Q152.12025 309.95 151.72963 309.325Q151.35463 308.6844 150.51088 308.6844Q149.68275 308.6844 149.29213 309.325Q148.91713 309.95 148.91713 311.2469L148.91713 312.98126Q148.91713 314.35626 149.30775 315.02814Q149.714 315.6844 150.5265 315.6844Q151.32338 315.6844 151.714 315.0594Q152.10463 314.4344 152.12025 313.10626L152.12025 311.325ZM160.214 312.8094Q160.214 314.71564 159.55775 315.65314Q158.91713 316.575 157.5265 316.575Q156.16713 316.575 155.51088 315.66876Q154.85463 314.7625 154.82338 312.95L154.82338 311.5125Q154.82338 309.6219 155.464 308.71564Q156.12025 307.79376 157.51088 307.79376Q158.88588 307.79376 159.54213 308.6844Q160.19838 309.5594 160.214 311.40314L160.214 312.8094ZM159.12025 311.325Q159.12025 309.95 158.72963 309.325Q158.35463 308.6844 157.51088 308.6844Q156.68275 308.6844 156.29213 309.325Q155.91713 309.95 155.91713 311.2469L155.91713 312.98126Q155.91713 314.35626 156.30775 315.02814Q156.714 315.6844 157.5265 315.6844Q158.32338 315.6844 158.714 315.0594Q159.10463 314.4344 159.12025 313.10626L159.12025 311.325ZM167.214 312.8094Q167.214 314.71564 166.55775 315.65314Q165.91713 316.575 164.5265 316.575Q163.16713 316.575 162.51088 315.66876Q161.85463 314.7625 161.82338 312.95L161.82338 311.5125Q161.82338 309.6219 162.464 308.71564Q163.12025 307.79376 164.51088 307.79376Q165.88588 307.79376 166.54213 308.6844Q167.19838 309.5594 167.214 311.40314L167.214 312.8094ZM166.12025 311.325Q166.12025 309.95 165.72963 309.325Q165.35463 308.6844 164.51088 308.6844Q163.68275 308.6844 163.29213 309.325Q162.91713 309.95 162.91713 311.2469L162.91713 312.98126Q162.91713 314.35626 163.30775 315.02814Q163.714 315.6844 164.5265 315.6844Q165.32338 315.6844 165.714 315.0594Q166.10463 314.4344 166.12025 313.10626L166.12025 311.325ZM174.214 312.8094Q174.214 314.71564 173.55775 315.65314Q172.91713 316.575 171.5265 316.575Q170.16713 316.575 169.51088 315.66876Q168.85463 314.7625 168.82338 312.95L168.82338 311.5125Q168.82338 309.6219 169.464 308.71564Q170.12025 307.79376 171.51088 307.79376Q172.88588 307.79376 173.54213 308.6844Q174.19838 309.5594 174.214 311.40314L174.214 312.8094ZM173.12025 311.325Q173.12025 309.95 172.72963 309.325Q172.35463 308.6844 171.51088 308.6844Q170.68275 308.6844 170.29213 309.325Q169.91713 309.95 169.91713 311.2469L169.91713 312.98126Q169.91713 314.35626 170.30775 315.02814Q170.714 315.6844 171.5265 315.6844Q172.32338 315.6844 172.714 315.0594Q173.10463 314.4344 173.12025 313.10626L173.12025 311.325Z" fill-rule="nonzero"/><path fill="#757575" d="M200.40108 316.45L199.32295 316.45L199.32295 309.23126L197.13545 310.02814L197.13545 309.04376L200.24483 307.8719L200.40108 307.8719L200.40108 316.45ZM204.33858 312.16876L204.77608 307.91876L209.15108 307.91876L209.15108 308.91876L205.69795 308.91876L205.43233 311.2469Q206.07295 310.8719 206.86983 310.8719Q208.02608 310.8719 208.71358 311.65314Q209.40108 312.41876 209.40108 313.73126Q209.40108 315.04376 208.68233 315.8094Q207.9792 316.575 206.69795 316.575Q205.57295 316.575 204.8542 315.95Q204.13545 315.3094 204.0417 314.2L205.05733 314.2Q205.1667 314.9344 205.58858 315.3094Q206.01045 315.6844 206.69795 315.6844Q207.44795 315.6844 207.88545 315.16876Q208.32295 314.65314 208.32295 313.7469Q208.32295 312.8875 207.8542 312.3719Q207.38545 311.85626 206.6042 311.85626Q205.90108 311.85626 205.49483 312.15314L205.21358 312.3875L204.33858 312.16876ZM216.19795 312.8094Q216.19795 314.71564 215.5417 315.65314Q214.90108 316.575 213.51045 316.575Q212.15108 316.575 211.49483 315.66876Q210.83858 314.7625 210.80733 312.95L210.80733 311.5125Q210.80733 309.6219 211.44795 308.71564Q212.1042 307.79376 213.49483 307.79376Q214.86983 307.79376 215.52608 308.6844Q216.18233 309.5594 216.19795 311.40314L216.19795 312.8094ZM215.1042 311.325Q215.1042 309.95 214.71358 309.325Q214.33858 308.6844 213.49483 308.6844Q212.6667 308.6844 212.27608 309.325Q211.90108 309.95 211.90108 311.2469L211.90108 312.98126Q211.90108 314.35626 212.2917 315.02814Q212.69795 315.6844 213.51045 315.6844Q214.30733 315.6844 214.69795 315.0594Q215.08858 314.4344 215.1042 313.10626L215.1042 311.325ZM223.19795 312.8094Q223.19795 314.71564 222.5417 315.65314Q221.90108 316.575 220.51045 316.575Q219.15108 316.575 218.49483 315.66876Q217.83858 314.7625 217.80733 312.95L217.80733 311.5125Q217.80733 309.6219 218.44795 308.71564Q219.1042 307.79376 220.49483 307.79376Q221.86983 307.79376 222.52608 308.6844Q223.18233 309.5594 223.19795 311.40314L223.19795 312.8094ZM222.1042 311.325Q222.1042 309.95 221.71358 309.325Q221.33858 308.6844 220.49483 308.6844Q219.6667 308.6844 219.27608 309.325Q218.90108 309.95 218.90108 311.2469L218.90108 312.98126Q218.90108 314.35626 219.2917 315.02814Q219.69795 315.6844 220.51045 315.6844Q221.30733 315.6844 221.69795 315.0594Q222.08858 314.4344 222.1042 313.10626L222.1042 311.325ZM230.19795 312.8094Q230.19795 314.71564 229.5417 315.65314Q228.90108 316.575 227.51045 316.575Q226.15108 316.575 225.49483 315.66876Q224.83858 314.7625 224.80733 312.95L224.80733 311.5125Q224.80733 309.6219 225.44795 308.71564Q226.1042 307.79376 227.49483 307.79376Q228.86983 307.79376 229.52608 308.6844Q230.18233 309.5594 230.19795 311.40314L230.19795 312.8094ZM229.1042 311.325Q229.1042 309.95 228.71358 309.325Q228.33858 308.6844 227.49483 308.6844Q226.6667 308.6844 226.27608 309.325Q225.90108 309.95 225.90108 311.2469L225.90108 312.98126Q225.90108 314.35626 226.2917 315.02814Q226.69795 315.6844 227.51045 315.6844Q228.30733 315.6844 228.69795 315.0594Q229.08858 314.4344 229.1042 313.10626L229.1042 311.325Z" fill-rule="nonzero"/><path fill="#757575" d="M258.41626 316.45L252.82253 316.45L252.82253 315.66876L255.77565 312.3875Q256.4319 311.6375 256.6819 311.1844Q256.9319 310.71564 256.9319 310.21564Q256.9319 309.54376 256.52563 309.1219Q256.135 308.6844 255.44753 308.6844Q254.65065 308.6844 254.19753 309.15314Q253.7444 309.60626 253.7444 310.4344L252.66628 310.4344Q252.66628 309.2469 253.41628 308.52814Q254.1819 307.79376 255.44753 307.79376Q256.65063 307.79376 257.33813 308.41876Q258.02563 309.04376 258.02563 310.09064Q258.02563 311.34064 256.41626 313.09064L254.13503 315.5594L258.41626 315.5594L258.41626 316.45ZM265.1819 312.8094Q265.1819 314.71564 264.52563 315.65314Q263.885 316.575 262.4944 316.575Q261.135 316.575 260.47876 315.66876Q259.8225 314.7625 259.79126 312.95L259.79126 311.5125Q259.79126 309.6219 260.4319 308.71564Q261.08813 307.79376 262.47876 307.79376Q263.85376 307.79376 264.51 308.6844Q265.16626 309.5594 265.1819 311.40314L265.1819 312.8094ZM264.08813 311.325Q264.08813 309.95 263.6975 309.325Q263.3225 308.6844 262.47876 308.6844Q261.65063 308.6844 261.26 309.325Q260.885 309.95 260.885 311.2469L260.885 312.98126Q260.885 314.35626 261.27563 315.02814Q261.6819 315.6844 262.4944 315.6844Q263.29126 315.6844 263.6819 315.0594Q264.0725 314.4344 264.08813 313.10626L264.08813 311.325ZM272.1819 312.8094Q272.1819 314.71564 271.52563 315.65314Q270.885 316.575 269.4944 316.575Q268.135 316.575 267.47876 315.66876Q266.8225 314.7625 266.79126 312.95L266.79126 311.5125Q266.79126 309.6219 267.4319 308.71564Q268.08813 307.79376 269.47876 307.79376Q270.85376 307.79376 271.51 308.6844Q272.16626 309.5594 272.1819 311.40314L272.1819 312.8094ZM271.08813 311.325Q271.08813 309.95 270.6975 309.325Q270.3225 308.6844 269.47876 308.6844Q268.65063 308.6844 268.26 309.325Q267.885 309.95 267.885 311.2469L267.885 312.98126Q267.885 314.35626 268.27563 315.02814Q268.6819 315.6844 269.4944 315.6844Q270.29126 315.6844 270.6819 315.0594Q271.0725 314.4344 271.08813 313.10626L271.08813 311.325ZM279.1819 312.8094Q279.1819 314.71564 278.52563 315.65314Q277.885 316.575 276.4944 316.575Q275.135 316.575 274.47876 315.66876Q273.8225 314.7625 273.79126 312.95L273.79126 311.5125Q273.79126 309.6219 274.4319 308.71564Q275.08813 307.79376 276.47876 307.79376Q277.85376 307.79376 278.51 308.6844Q279.16626 309.5594 279.1819 311.40314L279.1819 312.8094ZM278.08813 311.325Q278.08813 309.95 277.6975 309.325Q277.3225 308.6844 276.47876 308.6844Q275.65063 308.6844 275.26 309.325Q274.885 309.95 274.885 311.2469L274.885 312.98126Q274.885 314.35626 275.27563 315.02814Q275.6819 315.6844 276.4944 315.6844Q277.29126 315.6844 277.6819 315.0594Q278.0725 314.4344 278.08813 313.10626L278.08813 311.325ZM286.1819 312.8094Q286.1819 314.71564 285.52563 315.65314Q284.885 316.575 283.4944 316.575Q282.135 316.575 281.47876 315.66876Q280.8225 314.7625 280.79126 312.95L280.79126 311.5125Q280.79126 309.6219 281.4319 308.71564Q282.08813 307.79376 283.47876 307.79376Q284.85376 307.79376 285.51 308.6844Q286.16626 309.5594 286.1819 311.40314L286.1819 312.8094ZM285.08813 311.325Q285.08813 309.95 284.6975 309.325Q284.3225 308.6844 283.47876 308.6844Q282.65063 308.6844 282.26 309.325Q281.885 309.95 281.885 311.2469L281.885 312.98126Q281.885 314.35626 282.27563 315.02814Q282.6819 315.6844 283.4944 315.6844Q284.29126 315.6844 284.6819 315.0594Q285.0725 314.4344 285.08813 313.10626L285.08813 311.325Z" fill-rule="nonzero"/><path fill="#757575" d="M314.4002 316.45L308.80646 316.45L308.80646 315.66876L311.75958 312.3875Q312.41583 311.6375 312.66583 311.1844Q312.91583 310.71564 312.91583 310.21564Q312.91583 309.54376 312.50958 309.1219Q312.11896 308.6844 311.43146 308.6844Q310.63458 308.6844 310.18146 309.15314Q309.72833 309.60626 309.72833 310.4344L308.6502 310.4344Q308.6502 309.2469 309.4002 308.52814Q310.16583 307.79376 311.43146 307.79376Q312.63458 307.79376 313.32208 308.41876Q314.00958 309.04376 314.00958 310.09064Q314.00958 311.34064 312.4002 313.09064L310.11896 315.5594L314.4002 315.5594L314.4002 316.45ZM316.30646 312.16876L316.74396 307.91876L321.11896 307.91876L321.11896 308.91876L317.66583 308.91876L317.4002 311.2469Q318.04083 310.8719 318.8377 310.8719Q319.99396 310.8719 320.68146 311.65314Q321.36896 312.41876 321.36896 313.73126Q321.36896 315.04376 320.6502 315.8094Q319.94708 316.575 318.66583 316.575Q317.54083 316.575 316.82208 315.95Q316.10333 315.3094 316.00958 314.2L317.0252 314.2Q317.13458 314.9344 317.55646 315.3094Q317.97833 315.6844 318.66583 315.6844Q319.41583 315.6844 319.85333 315.16876Q320.29083 314.65314 320.29083 313.7469Q320.29083 312.8875 319.82208 312.3719Q319.35333 311.85626 318.57208 311.85626Q317.86896 311.85626 317.4627 312.15314L317.18146 312.3875L316.30646 312.16876ZM328.16583 312.8094Q328.16583 314.71564 327.50958 315.65314Q326.86896 316.575 325.47833 316.575Q324.11896 316.575 323.4627 315.66876Q322.80646 314.7625 322.7752 312.95L322.7752 311.5125Q322.7752 309.6219 323.41583 308.71564Q324.07208 307.79376 325.4627 307.79376Q326.8377 307.79376 327.49396 308.6844Q328.1502 309.5594 328.16583 311.40314L328.16583 312.8094ZM327.07208 311.325Q327.07208 309.95 326.68146 309.325Q326.30646 308.6844 325.4627 308.6844Q324.63458 308.6844 324.24396 309.325Q323.86896 309.95 323.86896 311.2469L323.86896 312.98126Q323.86896 314.35626 324.25958 315.02814Q324.66583 315.6844 325.47833 315.6844Q326.2752 315.6844 326.66583 315.0594Q327.05646 314.4344 327.07208 313.10626L327.07208 311.325ZM335.16583 312.8094Q335.16583 314.71564 334.50958 315.65314Q333.86896 316.575 332.47833 316.575Q331.11896 316.575 330.4627 315.66876Q329.80646 314.7625 329.7752 312.95L329.7752 311.5125Q329.7752 309.6219 330.41583 308.71564Q331.07208 307.79376 332.4627 307.79376Q333.8377 307.79376 334.49396 308.6844Q335.1502 309.5594 335.16583 311.40314L335.16583 312.8094ZM334.07208 311.325Q334.07208 309.95 333.68146 309.325Q333.30646 308.6844 332.4627 308.6844Q331.63458 308.6844 331.24396 309.325Q330.86896 309.95 330.86896 311.2469L330.86896 312.98126Q330.86896 314.35626 331.25958 315.02814Q331.66583 315.6844 332.47833 315.6844Q333.2752 315.6844 333.66583 315.0594Q334.05646 314.4344 334.07208 313.10626L334.07208 311.325ZM342.16583 312.8094Q342.16583 314.71564 341.50958 315.65314Q340.86896 316.575 339.47833 316.575Q338.11896 316.575 337.4627 315.66876Q336.80646 314.7625 336.7752 312.95L336.7752 311.5125Q336.7752 309.6219 337.41583 308.71564Q338.07208 307.79376 339.4627 307.79376Q340.8377 307.79376 341.49396 308.6844Q342.1502 309.5594 342.16583 311.40314L342.16583 312.8094ZM341.07208 311.325Q341.07208 309.95 340.68146 309.325Q340.30646 308.6844 339.4627 308.6844Q338.63458 308.6844 338.24396 309.325Q337.86896 309.95 337.86896 311.2469L337.86896 312.98126Q337.86896 314.35626 338.25958 315.02814Q338.66583 315.6844 339.47833 315.6844Q340.2752 315.6844 340.66583 315.0594Q341.05646 314.4344 341.07208 313.10626L341.07208 311.325Z" fill-rule="nonzero"/><path fill="#757575" d="M366.36853 311.65314L367.18103 311.65314Q367.96228 311.6375 368.39978 311.2469Q368.83728 310.85626 368.83728 310.1844Q368.83728 308.6844 367.33728 308.6844Q366.63416 308.6844 366.21228 309.09064Q365.80603 309.4969 365.80603 310.15314L364.71228 310.15314Q364.71228 309.1375 365.44666 308.46564Q366.19666 307.79376 367.33728 307.79376Q368.5404 307.79376 369.2279 308.4344Q369.9154 309.075 369.9154 310.21564Q369.9154 310.77814 369.55603 311.29376Q369.19666 311.8094 368.57166 312.075Q369.27478 312.29376 369.64978 312.8094Q370.0404 313.325 370.0404 314.075Q370.0404 315.21564 369.2904 315.90314Q368.5404 316.575 367.33728 316.575Q366.14978 316.575 365.38416 315.91876Q364.63416 315.2625 364.63416 314.2L365.7279 314.2Q365.7279 314.8719 366.1654 315.27814Q366.6029 315.6844 367.3529 315.6844Q368.13416 315.6844 368.5404 315.27814Q368.96228 314.85626 368.96228 314.09064Q368.96228 313.35626 368.50916 312.96564Q368.05603 312.5594 367.18103 312.54376L366.36853 312.54376L366.36853 311.65314ZM377.14978 312.8094Q377.14978 314.71564 376.49353 315.65314Q375.8529 316.575 374.46228 316.575Q373.1029 316.575 372.44666 315.66876Q371.7904 314.7625 371.75916 312.95L371.75916 311.5125Q371.75916 309.6219 372.39978 308.71564Q373.05603 307.79376 374.44666 307.79376Q375.82166 307.79376 376.4779 308.6844Q377.13416 309.5594 377.14978 311.40314L377.14978 312.8094ZM376.05603 311.325Q376.05603 309.95 375.6654 309.325Q375.2904 308.6844 374.44666 308.6844Q373.61853 308.6844 373.2279 309.325Q372.8529 309.95 372.8529 311.2469L372.8529 312.98126Q372.8529 314.35626 373.24353 315.02814Q373.64978 315.6844 374.46228 315.6844Q375.25916 315.6844 375.64978 315.0594Q376.0404 314.4344 376.05603 313.10626L376.05603 311.325ZM384.14978 312.8094Q384.14978 314.71564 383.49353 315.65314Q382.8529 316.575 381.46228 316.575Q380.1029 316.575 379.44666 315.66876Q378.7904 314.7625 378.75916 312.95L378.75916 311.5125Q378.75916 309.6219 379.39978 308.71564Q380.05603 307.79376 381.44666 307.79376Q382.82166 307.79376 383.4779 308.6844Q384.13416 309.5594 384.14978 311.40314L384.14978 312.8094ZM383.05603 311.325Q383.05603 309.95 382.6654 309.325Q382.2904 308.6844 381.44666 308.6844Q380.61853 308.6844 380.2279 309.325Q379.8529 309.95 379.8529 311.2469L379.8529 312.98126Q379.8529 314.35626 380.24353 315.02814Q380.64978 315.6844 381.46228 315.6844Q382.25916 315.6844 382.64978 315.0594Q383.0404 314.4344 383.05603 313.10626L383.05603 311.325ZM391.14978 312.8094Q391.14978 314.71564 390.49353 315.65314Q389.8529 316.575 388.46228 316.575Q387.1029 316.575 386.44666 315.66876Q385.7904 314.7625 385.75916 312.95L385.75916 311.5125Q385.75916 309.6219 386.39978 308.71564Q387.05603 307.79376 388.44666 307.79376Q389.82166 307.79376 390.4779 308.6844Q391.13416 309.5594 391.14978 311.40314L391.14978 312.8094ZM390.05603 311.325Q390.05603 309.95 389.6654 309.325Q389.2904 308.6844 388.44666 308.6844Q387.61853 308.6844 387.2279 309.325Q386.8529 309.95 386.8529 311.2469L386.8529 312.98126Q386.8529 314.35626 387.24353 315.02814Q387.64978 315.6844 388.46228 315.6844Q389.25916 315.6844 389.64978 315.0594Q390.0404 314.4344 390.05603 313.10626L390.05603 311.325ZM398.14978 312.8094Q398.14978 314.71564 397.49353 315.65314Q396.8529 316.575 395.46228 316.575Q394.1029 316.575 393.44666 315.66876Q392.7904 314.7625 392.75916 312.95L392.75916 311.5125Q392.75916 309.6219 393.39978 308.71564Q394.05603 307.79376 395.44666 307.79376Q396.82166 307.79376 397.4779 308.6844Q398.13416 309.5594 398.14978 311.40314L398.14978 312.8094ZM397.05603 311.325Q397.05603 309.95 396.6654 309.325Q396.2904 308.6844 395.44666 308.6844Q394.61853 308.6844 394.2279 309.325Q393.8529 309.95 393.8529 311.2469L393.8529 312.98126Q393.8529 314.35626 394.24353 315.02814Q394.64978 315.6844 395.46228 315.6844Q396.25916 315.6844 396.64978 315.0594Q397.0404 314.4344 397.05603 313.10626L397.05603 311.325Z" fill-rule="nonzero"/><path stroke="#4285f4" stroke-width="4.0" stroke-linecap="butt" d="M432.41556 62.416668L444.41556 62.416668" fill-rule="nonzero"/><path fill="#757575" d="M453.39993 66.916664L453.39993 58.385414L456.1968 58.385414Q457.58743 58.385414 458.27493 58.96354Q458.97806 59.52604 458.97806 60.65104Q458.97806 61.260414 458.6343 61.729164Q458.30618 62.18229 457.71243 62.43229Q458.41556 62.61979 458.80618 63.166664Q459.21243 63.697914 459.21243 64.447914Q459.21243 65.604164 458.46243 66.260414Q457.72806 66.916664 456.36868 66.916664L453.39993 66.916664ZM454.52493 62.93229L454.52493 65.99479L456.3843 65.99479Q457.18118 65.99479 457.6343 65.58854Q458.08743 65.18229 458.08743 64.46354Q458.08743 62.93229 456.39993 62.93229L454.52493 62.93229ZM454.52493 62.02604L456.22806 62.02604Q456.96243 62.02604 457.39993 61.666664Q457.85306 61.291664 457.85306 60.65104Q457.85306 59.947914 457.4468 59.635414Q457.04056 59.30729 456.1968 59.30729L454.52493 59.30729L454.52493 62.02604ZM462.86868 67.041664Q461.5718 67.041664 460.7593 66.197914Q459.96243 65.33854 459.96243 63.916664L459.96243 63.729164Q459.96243 62.77604 460.3218 62.041664Q460.68118 61.291664 461.3218 60.885414Q461.97806 60.46354 462.72806 60.46354Q463.96243 60.46354 464.64993 61.27604Q465.33743 62.08854 465.33743 63.604164L465.33743 64.05729L461.04056 64.05729Q461.0718 64.99479 461.58743 65.572914Q462.11868 66.15104 462.93118 66.15104Q463.49368 66.15104 463.8843 65.916664Q464.29056 65.68229 464.60306 65.291664L465.2593 65.80729Q464.46243 67.041664 462.86868 67.041664ZM462.72806 61.354164Q462.0718 61.354164 461.61868 61.83854Q461.18118 62.30729 461.08743 63.166664L464.2593 63.166664L464.2593 63.08854Q464.21243 62.260414 463.80618 61.80729Q463.41556 61.354164 462.72806 61.354164ZM467.2593 60.572914L467.29056 61.36979Q468.02493 60.46354 469.1968 60.46354Q471.21243 60.46354 471.22806 62.729164L471.22806 66.916664L470.1343 66.916664L470.1343 62.71354Q470.1343 62.041664 469.8218 61.71354Q469.52493 61.385414 468.86868 61.385414Q468.33743 61.385414 467.93118 61.666664Q467.54056 61.947914 467.3218 62.40104L467.3218 66.916664L466.24368 66.916664L466.24368 60.572914L467.2593 60.572914ZM475.77493 66.15104Q476.35306 66.15104 476.79056 65.80729Q477.22806 65.447914 477.27493 64.916664L478.30618 64.916664Q478.27493 65.46354 477.91556 65.96354Q477.5718 66.447914 476.99368 66.74479Q476.43118 67.041664 475.77493 67.041664Q474.47806 67.041664 473.71243 66.18229Q472.96243 65.30729 472.96243 63.80729L472.96243 63.61979Q472.96243 62.697914 473.29056 61.979164Q473.6343 61.260414 474.2593 60.86979Q474.89993 60.46354 475.77493 60.46354Q476.83743 60.46354 477.54056 61.104164Q478.2593 61.729164 478.30618 62.760414L477.27493 62.760414Q477.22806 62.135414 476.80618 61.74479Q476.3843 61.354164 475.77493 61.354164Q474.9468 61.354164 474.49368 61.947914Q474.04056 62.541664 474.04056 63.666664L474.04056 63.86979Q474.04056 64.96354 474.49368 65.55729Q474.9468 66.15104 475.77493 66.15104ZM480.3218 61.33854Q481.04056 60.46354 482.1968 60.46354Q484.21243 60.46354 484.22806 62.729164L484.22806 66.916664L483.1343 66.916664L483.1343 62.71354Q483.1343 62.041664 482.8218 61.71354Q482.52493 61.385414 481.86868 61.385414Q481.33743 61.385414 480.93118 61.666664Q480.54056 61.947914 480.3218 62.40104L480.3218 66.916664L479.24368 66.916664L479.24368 57.916664L480.3218 57.916664L480.3218 61.33854ZM487.2593 60.572914L487.29056 61.27604Q487.97806 60.46354 489.16556 60.46354Q490.49368 60.46354 490.97806 61.479164Q491.29056 61.02604 491.79056 60.74479Q492.30618 60.46354 492.99368 60.46354Q495.08743 60.46354 495.11868 62.666664L495.11868 66.916664L494.04056 66.916664L494.04056 62.729164Q494.04056 62.05729 493.72806 61.729164Q493.41556 61.385414 492.68118 61.385414Q492.0718 61.385414 491.66556 61.74479Q491.27493 62.104164 491.21243 62.71354L491.21243 66.916664L490.1343 66.916664L490.1343 62.760414Q490.1343 61.385414 488.77493 61.385414Q487.71243 61.385414 487.3218 62.291664L487.3218 66.916664L486.22806 66.916664L486.22806 60.572914L487.2593 60.572914ZM501.14993 66.916664Q501.05618 66.729164 500.99368 66.24479Q500.24368 67.041664 499.1968 67.041664Q498.2593 67.041664 497.64993 66.510414Q497.05618 65.979164 497.05618 65.15104Q497.05618 64.166664 497.80618 63.61979Q498.55618 63.072914 499.93118 63.072914L500.97806 63.072914L500.97806 62.572914Q500.97806 62.010414 500.6343 61.68229Q500.30618 61.33854 499.6343 61.33854Q499.05618 61.33854 498.66556 61.635414Q498.27493 61.916664 498.27493 62.33854L497.18118 62.33854Q497.18118 61.854164 497.5093 61.416664Q497.85306 60.979164 498.43118 60.729164Q499.0093 60.46354 499.6968 60.46354Q500.80618 60.46354 501.41556 61.010414Q502.04056 61.55729 502.0718 62.510414L502.0718 65.43229Q502.0718 66.30729 502.29056 66.822914L502.29056 66.916664L501.14993 66.916664ZM499.35306 66.08854Q499.86868 66.08854 500.3218 65.822914Q500.77493 65.55729 500.97806 65.135414L500.97806 63.83854L500.1343 63.83854Q498.1343 63.83854 498.1343 65.010414Q498.1343 65.510414 498.47806 65.80729Q498.8218 66.08854 499.35306 66.08854ZM507.30618 61.541664Q507.05618 61.510414 506.77493 61.510414Q505.6968 61.510414 505.3218 62.416664L505.3218 66.916664L504.24368 66.916664L504.24368 60.572914L505.29056 60.572914L505.30618 61.30729Q505.83743 60.46354 506.8218 60.46354Q507.1343 60.46354 507.30618 60.541664L507.30618 61.541664ZM510.0093 63.979164L509.3218 64.68229L509.3218 66.916664L508.24368 66.916664L508.24368 57.916664L509.3218 57.916664L509.3218 63.354164L509.89993 62.666664L511.8843 60.572914L513.1968 60.572914L510.72806 63.229164L513.49365 66.916664L512.2124 66.916664L510.0093 63.979164Z" fill-rule="nonzero"/><path stroke="#db4437" stroke-width="4.0" stroke-linecap="butt" d="M432.41556 87.416664L444.41556 87.416664" fill-rule="nonzero"/><path fill="#757575" d="M459.96243 87.93229Q459.96243 89.18229 459.54056 90.11979Q459.11868 91.041664 458.33743 91.541664Q457.5718 92.041664 456.54056 92.041664Q455.54056 92.041664 454.7593 91.541664Q453.97806 91.041664 453.54056 90.135414Q453.11868 89.21354 453.10306 87.99479L453.10306 87.385414Q453.10306 86.15104 453.52493 85.21354Q453.96243 84.27604 454.74368 83.77604Q455.52493 83.260414 456.54056 83.260414Q457.55618 83.260414 458.33743 83.760414Q459.11868 84.260414 459.54056 85.197914Q459.96243 86.135414 459.96243 87.385414L459.96243 87.93229ZM458.85306 87.36979Q458.85306 85.854164 458.24368 85.041664Q457.6343 84.229164 456.54056 84.229164Q455.46243 84.229164 454.85306 85.041664Q454.24368 85.854164 454.22806 87.291664L454.22806 87.93229Q454.22806 89.40104 454.83743 90.24479Q455.46243 91.072914 456.54056 91.072914Q457.6343 91.072914 458.22806 90.291664Q458.83743 89.49479 458.85306 88.010414L458.85306 87.36979ZM467.30618 84.30729L464.55618 84.30729L464.55618 91.916664L463.4468 91.916664L463.4468 84.30729L460.6968 84.30729L460.6968 83.385414L467.30618 83.385414L467.30618 84.30729ZM473.11868 88.15104L469.52493 88.15104L469.52493 91.916664L468.39993 91.916664L468.39993 83.385414L473.6968 83.385414L473.6968 84.30729L469.52493 84.30729L469.52493 87.229164L473.11868 87.229164L473.11868 88.15104ZM483.85306 90.416664L485.0718 85.572914L486.14993 85.572914L484.30618 91.916664L483.43118 91.916664L481.8843 87.104164L480.3843 91.916664L479.5093 91.916664L477.66556 85.572914L478.74368 85.572914L479.99368 90.322914L481.47806 85.572914L482.33743 85.572914L483.85306 90.416664ZM488.41556 91.916664L487.33743 91.916664L487.33743 85.572914L488.41556 85.572914L488.41556 91.916664ZM487.24368 83.90104Q487.24368 83.635414 487.39993 83.447914Q487.5718 83.260414 487.8843 83.260414Q488.1968 83.260414 488.35306 83.447914Q488.52493 83.635414 488.52493 83.90104Q488.52493 84.15104 488.35306 84.33854Q488.1968 84.510414 487.8843 84.510414Q487.5718 84.510414 487.39993 84.33854Q487.24368 84.15104 487.24368 83.90104ZM491.71243 84.041664L491.71243 85.572914L492.8843 85.572914L492.8843 86.416664L491.71243 86.416664L491.71243 90.33854Q491.71243 90.729164 491.86868 90.916664Q492.02493 91.104164 492.39993 91.104164Q492.58743 91.104164 492.91556 91.041664L492.91556 91.916664Q492.49368 92.041664 492.08743 92.041664Q491.36868 92.041664 490.99368 91.604164Q490.61868 91.15104 490.61868 90.33854L490.61868 86.416664L489.46243 86.416664L489.46243 85.572914L490.61868 85.572914L490.61868 84.041664L491.71243 84.041664ZM495.3218 86.33854Q496.04056 85.46354 497.1968 85.46354Q499.21243 85.46354 499.22806 87.729164L499.22806 91.916664L498.1343 91.916664L498.1343 87.71354Q498.1343 87.041664 497.8218 86.71354Q497.52493 86.385414 496.86868 86.385414Q496.33743 86.385414 495.93118 86.666664Q495.54056 86.947914 495.3218 87.40104L495.3218 91.916664L494.24368 91.916664L494.24368 82.916664L495.3218 82.916664L495.3218 86.33854ZM510.68118 89.21354Q510.52493 90.55729 509.68118 91.30729Q508.83743 92.041664 507.4468 92.041664Q505.93118 92.041664 505.02493 90.96354Q504.11868 89.86979 504.11868 88.041664L504.11868 87.229164Q504.11868 86.041664 504.54056 85.135414Q504.96243 84.229164 505.74368 83.74479Q506.52493 83.260414 507.54056 83.260414Q508.89993 83.260414 509.71243 84.02604Q510.54056 84.791664 510.68118 86.11979L509.55618 86.11979Q509.39993 85.104164 508.91556 84.65104Q508.43118 84.197914 507.54056 84.197914Q506.46243 84.197914 505.85306 84.99479Q505.24368 85.791664 505.24368 87.260414L505.24368 88.08854Q505.24368 89.479164 505.8218 90.30729Q506.39993 91.11979 507.4468 91.11979Q508.3843 91.11979 508.8843 90.697914Q509.3843 90.260414 509.55618 89.21354L510.68118 89.21354ZM512.3999 91.916664L512.3999 83.385414L515.1968 83.385414Q516.5874 83.385414 517.2749 83.96354Q517.978 84.52604 517.978 85.65104Q517.978 86.260414 517.6343 86.729164Q517.30615 87.18229 516.7124 87.43229Q517.4155 87.61979 517.80615 88.166664Q518.2124 88.697914 518.2124 89.447914Q518.2124 90.604164 517.4624 91.260414Q516.728 91.916664 515.36865 91.916664L512.3999 91.916664ZM513.5249 87.93229L513.5249 90.99479L515.3843 90.99479Q516.18115 90.99479 516.6343 90.58854Q517.0874 90.18229 517.0874 89.46354Q517.0874 87.93229 515.3999 87.93229L513.5249 87.93229ZM513.5249 87.02604L515.228 87.02604Q515.9624 87.02604 516.3999 86.666664Q516.853 86.291664 516.853 85.65104Q516.853 84.947914 516.4468 84.635414Q516.0405 84.30729 515.1968 84.30729L513.5249 84.30729L513.5249 87.02604ZM525.68115 89.21354Q525.5249 90.55729 524.68115 91.30729Q523.8374 92.041664 522.4468 92.041664Q520.93115 92.041664 520.0249 90.96354Q519.11865 89.86979 519.11865 88.041664L519.11865 87.229164Q519.11865 86.041664 519.5405 85.135414Q519.9624 84.229164 520.74365 83.74479Q521.5249 83.260414 522.5405 83.260414Q523.8999 83.260414 524.7124 84.02604Q525.5405 84.791664 525.68115 86.11979L524.55615 86.11979Q524.3999 85.104164 523.9155 84.65104Q523.43115 84.197914 522.5405 84.197914Q521.4624 84.197914 520.853 84.99479Q520.24365 85.791664 520.24365 87.260414L520.24365 88.08854Q520.24365 89.479164 520.8218 90.30729Q521.3999 91.11979 522.4468 91.11979Q523.3843 91.11979 523.8843 90.697914Q524.3843 90.260414 524.55615 89.21354L525.68115 89.21354Z" fill-rule="nonzero"/><path stroke="#f4b400" stroke-width="4.0" stroke-linecap="butt" d="M432.41556 112.416664L444.41556 112.416664" fill-rule="nonzero"/><path fill="#757575" d="M459.96243 112.93229Q459.96243 114.18229 459.54056 115.11979Q459.11868 116.041664 458.33743 116.541664Q457.5718 117.041664 456.54056 117.041664Q455.54056 117.041664 454.7593 116.541664Q453.97806 116.041664 453.54056 115.135414Q453.11868 114.21354 453.10306 112.99479L453.10306 112.385414Q453.10306 111.15104 453.52493 110.21354Q453.96243 109.27604 454.74368 108.77604Q455.52493 108.260414 456.54056 108.260414Q457.55618 108.260414 458.33743 108.760414Q459.11868 109.260414 459.54056 110.197914Q459.96243 111.135414 459.96243 112.385414L459.96243 112.93229ZM458.85306 112.36979Q458.85306 110.854164 458.24368 110.041664Q457.6343 109.229164 456.54056 109.229164Q455.46243 109.229164 454.85306 110.041664Q454.24368 110.854164 454.22806 112.291664L454.22806 112.93229Q454.22806 114.40104 454.83743 115.24479Q455.46243 116.072914 456.54056 116.072914Q457.6343 116.072914 458.22806 115.291664Q458.83743 114.49479 458.85306 113.010414L458.85306 112.36979ZM467.30618 109.30729L464.55618 109.30729L464.55618 116.916664L463.4468 116.916664L463.4468 109.30729L460.6968 109.30729L460.6968 108.385414L467.30618 108.385414L467.30618 109.30729ZM473.11868 113.15104L469.52493 113.15104L469.52493 116.916664L468.39993 116.916664L468.39993 108.385414L473.6968 108.385414L473.6968 109.30729L469.52493 109.30729L469.52493 112.229164L473.11868 112.229164L473.11868 113.15104ZM483.85306 115.416664L485.0718 110.572914L486.14993 110.572914L484.30618 116.916664L483.43118 116.916664L481.8843 112.104164L480.3843 116.916664L479.5093 116.916664L477.66556 110.572914L478.74368 110.572914L479.99368 115.322914L481.47806 110.572914L482.33743 110.572914L483.85306 115.416664ZM488.41556 116.916664L487.33743 116.916664L487.33743 110.572914L488.41556 110.572914L488.41556 116.916664ZM487.24368 108.90104Q487.24368 108.635414 487.39993 108.447914Q487.5718 108.260414 487.8843 108.260414Q488.1968 108.260414 488.35306 108.447914Q488.52493 108.635414 488.52493 108.90104Q488.52493 109.15104 488.35306 109.33854Q488.1968 109.510414 487.8843 109.510414Q487.5718 109.510414 487.39993 109.33854Q487.24368 109.15104 487.24368 108.90104ZM491.71243 109.041664L491.71243 110.572914L492.8843 110.572914L492.8843 111.416664L491.71243 111.416664L491.71243 115.33854Q491.71243 115.729164 491.86868 115.916664Q492.02493 116.104164 492.39993 116.104164Q492.58743 116.104164 492.91556 116.041664L492.91556 116.916664Q492.49368 117.041664 492.08743 117.041664Q491.36868 117.041664 490.99368 116.604164Q490.61868 116.15104 490.61868 115.33854L490.61868 111.416664L489.46243 111.416664L489.46243 110.572914L490.61868 110.572914L490.61868 109.041664L491.71243 109.041664ZM495.3218 111.33854Q496.04056 110.46354 497.1968 110.46354Q499.21243 110.46354 499.22806 112.729164L499.22806 116.916664L498.1343 116.916664L498.1343 112.71354Q498.1343 112.041664 497.8218 111.71354Q497.52493 111.385414 496.86868 111.385414Q496.33743 111.385414 495.93118 111.666664Q495.54056 111.947914 495.3218 112.40104L495.3218 116.916664L494.24368 116.916664L494.24368 107.916664L495.3218 107.916664L495.3218 111.33854ZM509.22806 112.979164L505.52493 112.979164L505.52493 115.99479L509.8218 115.99479L509.8218 116.916664L504.39993 116.916664L504.39993 108.385414L509.77493 108.385414L509.77493 109.30729L505.52493 109.30729L505.52493 112.05729L509.22806 112.05729L509.22806 112.979164ZM511.39993 116.916664L511.39993 108.385414L514.1968 108.385414Q515.5874 108.385414 516.2749 108.96354Q516.978 109.52604 516.978 110.65104Q516.978 111.260414 516.6343 111.729164Q516.30615 112.18229 515.7124 112.43229Q516.4155 112.61979 516.80615 113.166664Q517.2124 113.697914 517.2124 114.447914Q517.2124 115.604164 516.4624 116.260414Q515.728 116.916664 514.36865 116.916664L511.39993 116.916664ZM512.5249 112.93229L512.5249 115.99479L514.3843 115.99479Q515.18115 115.99479 515.6343 115.58854Q516.0874 115.18229 516.0874 114.46354Q516.0874 112.93229 514.3999 112.93229L512.5249 112.93229ZM512.5249 112.02604L514.228 112.02604Q514.9624 112.02604 515.3999 111.666664Q515.853 111.291664 515.853 110.65104Q515.853 109.947914 515.4468 109.635414Q515.0405 109.30729 514.1968 109.30729L512.5249 109.30729L512.5249 112.02604ZM524.68115 114.21354Q524.5249 115.55729 523.68115 116.30729Q522.8374 117.041664 521.4468 117.041664Q519.93115 117.041664 519.0249 115.96354Q518.11865 114.86979 518.11865 113.041664L518.11865 112.229164Q518.11865 111.041664 518.5405 110.135414Q518.9624 109.229164 519.74365 108.74479Q520.5249 108.260414 521.5405 108.260414Q522.8999 108.260414 523.7124 109.02604Q524.5405 109.791664 524.68115 111.11979L523.55615 111.11979Q523.3999 110.104164 522.9155 109.65104Q522.43115 109.197914 521.5405 109.197914Q520.4624 109.197914 519.853 109.99479Q519.24365 110.791664 519.24365 112.260414L519.24365 113.08854Q519.24365 114.479164 519.8218 115.30729Q520.3999 116.11979 521.4468 116.11979Q522.3843 116.11979 522.8843 115.697914Q523.3843 115.260414 523.55615 114.21354L524.68115 114.21354Z" fill-rule="nonzero"/><path stroke="#0f9d58" stroke-width="4.0" stroke-linecap="butt" d="M432.41556 137.41667L444.41556 137.41667" fill-rule="nonzero"/><path fill="#757575" d="M458.11868 138.15105L454.52493 138.15105L454.52493 141.91667L453.39993 141.91667L453.39993 133.38542L458.6968 133.38542L458.6968 134.3073L454.52493 134.3073L454.52493 137.22917L458.11868 137.22917L458.11868 138.15105ZM464.14993 141.29167Q463.52493 142.04167 462.29056 142.04167Q461.27493 142.04167 460.74368 141.44792Q460.21243 140.85417 460.21243 139.69792L460.21243 135.57292L461.29056 135.57292L461.29056 139.66667Q461.29056 141.1198 462.46243 141.1198Q463.71243 141.1198 464.11868 140.1823L464.11868 135.57292L465.21243 135.57292L465.21243 141.91667L464.18118 141.91667L464.14993 141.29167ZM468.41556 141.91667L467.33743 141.91667L467.33743 132.91667L468.41556 132.91667L468.41556 141.91667ZM471.41556 141.91667L470.33743 141.91667L470.33743 132.91667L471.41556 132.91667L471.41556 141.91667ZM476.39993 141.91667L476.39993 133.38542L478.8218 133.38542Q479.93118 133.38542 480.77493 133.88542Q481.6343 134.3698 482.10306 135.27605Q482.5718 136.1823 482.5718 137.3698L482.5718 137.90105Q482.5718 139.1198 482.10306 140.02605Q481.64993 140.9323 480.77493 141.41667Q479.91556 141.90105 478.77493 141.91667L476.39993 141.91667ZM477.52493 134.3073L477.52493 140.9948L478.71243 140.9948Q480.0093 140.9948 480.72806 140.19792Q481.46243 139.38542 481.46243 137.88542L481.46243 137.38542Q481.46243 135.9323 480.77493 135.13542Q480.10306 134.32292 478.83743 134.3073L477.52493 134.3073ZM485.41556 141.91667L484.33743 141.91667L484.33743 135.57292L485.41556 135.57292L485.41556 141.91667ZM484.24368 133.90105Q484.24368 133.63542 484.39993 133.44792Q484.5718 133.26042 484.8843 133.26042Q485.1968 133.26042 485.35306 133.44792Q485.52493 133.63542 485.52493 133.90105Q485.52493 134.15105 485.35306 134.33855Q485.1968 134.51042 484.8843 134.51042Q484.5718 134.51042 484.39993 134.33855Q484.24368 134.15105 484.24368 133.90105ZM490.93118 140.22917Q490.93118 139.79167 490.58743 139.5573Q490.2593 139.3073 489.43118 139.13542Q488.61868 138.96355 488.1343 138.71355Q487.64993 138.46355 487.41556 138.13542Q487.1968 137.79167 487.1968 137.32292Q487.1968 136.54167 487.85306 136.01042Q488.5093 135.46355 489.54056 135.46355Q490.61868 135.46355 491.27493 136.02605Q491.9468 136.57292 491.9468 137.4323L490.86868 137.4323Q490.86868 136.9948 490.47806 136.6823Q490.10306 136.35417 489.54056 136.35417Q488.9468 136.35417 488.60306 136.6198Q488.27493 136.8698 488.27493 137.27605Q488.27493 137.66667 488.58743 137.8698Q488.89993 138.07292 489.71243 138.26042Q490.52493 138.4323 491.02493 138.6823Q491.52493 138.9323 491.7593 139.29167Q492.0093 139.65105 492.0093 140.15105Q492.0093 141.01042 491.3218 141.52605Q490.64993 142.04167 489.5718 142.04167Q488.80618 142.04167 488.21243 141.77605Q487.6343 141.4948 487.30618 141.01042Q486.97806 140.52605 486.97806 139.96355L488.05618 139.96355Q488.08743 140.51042 488.49368 140.83855Q488.89993 141.15105 489.5718 141.15105Q490.18118 141.15105 490.55618 140.90105Q490.93118 140.65105 490.93118 140.22917ZM495.0093 138.97917L494.3218 139.6823L494.3218 141.91667L493.24368 141.91667L493.24368 132.91667L494.3218 132.91667L494.3218 138.35417L494.89993 137.66667L496.8843 135.57292L498.1968 135.57292L495.72806 138.22917L498.49368 141.91667L497.21243 141.91667L495.0093 138.97917ZM507.22806 137.97917L503.52493 137.97917L503.52493 140.9948L507.8218 140.9948L507.8218 141.91667L502.39993 141.91667L502.39993 133.38542L507.77493 133.38542L507.77493 134.3073L503.52493 134.3073L503.52493 137.0573L507.22806 137.0573L507.22806 137.97917ZM515.68115 139.21355Q515.5249 140.5573 514.68115 141.3073Q513.8374 142.04167 512.4468 142.04167Q510.93118 142.04167 510.02493 140.96355Q509.11868 139.8698 509.11868 138.04167L509.11868 137.22917Q509.11868 136.04167 509.54056 135.13542Q509.96243 134.22917 510.74368 133.7448Q511.52493 133.26042 512.5405 133.26042Q513.8999 133.26042 514.7124 134.02605Q515.5405 134.79167 515.68115 136.1198L514.55615 136.1198Q514.3999 135.10417 513.9155 134.65105Q513.43115 134.19792 512.5405 134.19792Q511.46243 134.19792 510.85306 134.9948Q510.24368 135.79167 510.24368 137.26042L510.24368 138.08855Q510.24368 139.47917 510.8218 140.3073Q511.39993 141.1198 512.4468 141.1198Q513.3843 141.1198 513.8843 140.69792Q514.3843 140.26042 514.55615 139.21355L515.68115 139.21355ZM517.3999 141.91667L517.3999 133.38542L520.1968 133.38542Q521.5874 133.38542 522.2749 133.96355Q522.978 134.52605 522.978 135.65105Q522.978 136.26042 522.6343 136.72917Q522.30615 137.1823 521.7124 137.4323Q522.4155 137.6198 522.80615 138.16667Q523.2124 138.69792 523.2124 139.44792Q523.2124 140.60417 522.4624 141.26042Q521.728 141.91667 520.36865 141.91667L517.3999 141.91667ZM518.5249 137.9323L518.5249 140.9948L520.3843 140.9948Q521.18115 140.9948 521.6343 140.58855Q522.0874 140.1823 522.0874 139.46355Q522.0874 137.9323 520.3999 137.9323L518.5249 137.9323ZM518.5249 137.02605L520.228 137.02605Q520.9624 137.02605 521.3999 136.66667Q521.853 136.29167 521.853 135.65105Q521.853 134.94792 521.4468 134.63542Q521.0405 134.3073 520.1968 134.3073L518.5249 134.3073L518.5249 137.02605Z" fill-rule="nonzero"/><path stroke="#ff6d00" stroke-width="4.0" stroke-linecap="butt" d="M432.41556 162.41667L444.41556 162.41667" fill-rule="nonzero"/><path fill="#757575" d="M458.11868 163.15105L454.52493 163.15105L454.52493 166.91667L453.39993 166.91667L453.39993 158.38542L458.6968 158.38542L458.6968 159.3073L454.52493 159.3073L454.52493 162.22917L458.11868 162.22917L458.11868 163.15105ZM464.14993 166.29167Q463.52493 167.04167 462.29056 167.04167Q461.27493 167.04167 460.74368 166.44792Q460.21243 165.85417 460.21243 164.69792L460.21243 160.57292L461.29056 160.57292L461.29056 164.66667Q461.29056 166.1198 462.46243 166.1198Q463.71243 166.1198 464.11868 165.1823L464.11868 160.57292L465.21243 160.57292L465.21243 166.91667L464.18118 166.91667L464.14993 166.29167ZM468.41556 166.91667L467.33743 166.91667L467.33743 157.91667L468.41556 157.91667L468.41556 166.91667ZM471.41556 166.91667L470.33743 166.91667L470.33743 157.91667L471.41556 157.91667L471.41556 166.91667ZM476.39993 166.91667L476.39993 158.38542L478.8218 158.38542Q479.93118 158.38542 480.77493 158.88542Q481.6343 159.3698 482.10306 160.27605Q482.5718 161.1823 482.5718 162.3698L482.5718 162.90105Q482.5718 164.1198 482.10306 165.02605Q481.64993 165.9323 480.77493 166.41667Q479.91556 166.90105 478.77493 166.91667L476.39993 166.91667ZM477.52493 159.3073L477.52493 165.9948L478.71243 165.9948Q480.0093 165.9948 480.72806 165.19792Q481.46243 164.38542 481.46243 162.88542L481.46243 162.38542Q481.46243 160.9323 480.77493 160.13542Q480.10306 159.32292 478.83743 159.3073L477.52493 159.3073ZM485.41556 166.91667L484.33743 166.91667L484.33743 160.57292L485.41556 160.57292L485.41556 166.91667ZM484.24368 158.90105Q484.24368 158.63542 484.39993 158.44792Q484.5718 158.26042 484.8843 158.26042Q485.1968 158.26042 485.35306 158.44792Q485.52493 158.63542 485.52493 158.90105Q485.52493 159.15105 485.35306 159.33855Q485.1968 159.51042 484.8843 159.51042Q484.5718 159.51042 484.39993 159.33855Q484.24368 159.15105 484.24368 158.90105ZM490.93118 165.22917Q490.93118 164.79167 490.58743 164.5573Q490.2593 164.3073 489.43118 164.13542Q488.61868 163.96355 488.1343 163.71355Q487.64993 163.46355 487.41556 163.13542Q487.1968 162.79167 487.1968 162.32292Q487.1968 161.54167 487.85306 161.01042Q488.5093 160.46355 489.54056 160.46355Q490.61868 160.46355 491.27493 161.02605Q491.9468 161.57292 491.9468 162.4323L490.86868 162.4323Q490.86868 161.9948 490.47806 161.6823Q490.10306 161.35417 489.54056 161.35417Q488.9468 161.35417 488.60306 161.6198Q488.27493 161.8698 488.27493 162.27605Q488.27493 162.66667 488.58743 162.8698Q488.89993 163.07292 489.71243 163.26042Q490.52493 163.4323 491.02493 163.6823Q491.52493 163.9323 491.7593 164.29167Q492.0093 164.65105 492.0093 165.15105Q492.0093 166.01042 491.3218 166.52605Q490.64993 167.04167 489.5718 167.04167Q488.80618 167.04167 488.21243 166.77605Q487.6343 166.4948 487.30618 166.01042Q486.97806 165.52605 486.97806 164.96355L488.05618 164.96355Q488.08743 165.51042 488.49368 165.83855Q488.89993 166.15105 489.5718 166.15105Q490.18118 166.15105 490.55618 165.90105Q490.93118 165.65105 490.93118 165.22917ZM495.0093 163.97917L494.3218 164.6823L494.3218 166.91667L493.24368 166.91667L493.24368 157.91667L494.3218 157.91667L494.3218 163.35417L494.89993 162.66667L496.8843 160.57292L498.1968 160.57292L495.72806 163.22917L498.49368 166.91667L497.21243 166.91667L495.0093 163.97917ZM507.22806 162.97917L503.52493 162.97917L503.52493 165.9948L507.8218 165.9948L507.8218 166.91667L502.39993 166.91667L502.39993 158.38542L507.77493 158.38542L507.77493 159.3073L503.52493 159.3073L503.52493 162.0573L507.22806 162.0573L507.22806 162.97917ZM515.68115 164.21355Q515.5249 165.5573 514.68115 166.3073Q513.8374 167.04167 512.4468 167.04167Q510.93118 167.04167 510.02493 165.96355Q509.11868 164.8698 509.11868 163.04167L509.11868 162.22917Q509.11868 161.04167 509.54056 160.13542Q509.96243 159.22917 510.74368 158.7448Q511.52493 158.26042 512.5405 158.26042Q513.8999 158.26042 514.7124 159.02605Q515.5405 159.79167 515.68115 161.1198L514.55615 161.1198Q514.3999 160.10417 513.9155 159.65105Q513.43115 159.19792 512.5405 159.19792Q511.46243 159.19792 510.85306 159.9948Q510.24368 160.79167 510.24368 162.26042L510.24368 163.08855Q510.24368 164.47917 510.8218 165.3073Q511.39993 166.1198 512.4468 166.1198Q513.3843 166.1198 513.8843 165.69792Q514.3843 165.26042 514.55615 164.21355L515.68115 164.21355ZM517.3999 166.91667L517.3999 158.38542L520.1968 158.38542Q521.5874 158.38542 522.2749 158.96355Q522.978 159.52605 522.978 160.65105Q522.978 161.26042 522.6343 161.72917Q522.30615 162.1823 521.7124 162.4323Q522.4155 162.6198 522.80615 163.16667Q523.2124 163.69792 523.2124 164.44792Q523.2124 165.60417 522.4624 166.26042Q521.728 166.91667 520.36865 166.91667L517.3999 166.91667ZM518.5249 162.9323L518.5249 165.9948L520.3843 165.9948Q521.18115 165.9948 521.6343 165.58855Q522.0874 165.1823 522.0874 164.46355Q522.0874 162.9323 520.3999 162.9323L518.5249 162.9323ZM518.5249 162.02605L520.228 162.02605Q520.9624 162.02605 521.3999 161.66667Q521.853 161.29167 521.853 160.65105Q521.853 159.94792 521.4468 159.63542Q521.0405 159.3073 520.1968 159.3073L518.5249 159.3073L518.5249 162.02605ZM531.1499 166.91667Q531.05615 166.72917 530.99365 166.2448Q530.24365 167.04167 529.1968 167.04167Q528.2593 167.04167 527.6499 166.51042Q527.05615 165.97917 527.05615 165.15105Q527.05615 164.16667 527.80615 163.6198Q528.55615 163.07292 529.93115 163.07292L530.978 163.07292L530.978 162.57292Q530.978 162.01042 530.6343 161.6823Q530.30615 161.33855 529.6343 161.33855Q529.05615 161.33855 528.6655 161.63542Q528.2749 161.91667 528.2749 162.33855L527.18115 162.33855Q527.18115 161.85417 527.5093 161.41667Q527.853 160.97917 528.43115 160.72917Q529.0093 160.46355 529.6968 160.46355Q530.80615 160.46355 531.4155 161.01042Q532.0405 161.5573 532.0718 162.51042L532.0718 165.4323Q532.0718 166.3073 532.2905 166.82292L532.2905 166.91667L531.1499 166.91667ZM529.353 166.08855Q529.86865 166.08855 530.3218 165.82292Q530.7749 165.5573 530.978 165.13542L530.978 163.83855L530.1343 163.83855Q528.1343 163.83855 528.1343 165.01042Q528.1343 165.51042 528.478 165.8073Q528.8218 166.08855 529.353 166.08855ZM535.2593 160.57292L535.2905 161.3698Q536.0249 160.46355 537.1968 160.46355Q539.2124 160.46355 539.228 162.72917L539.228 166.91667L538.1343 166.91667L538.1343 162.71355Q538.1343 162.04167 537.8218 161.71355Q537.5249 161.38542 536.86865 161.38542Q536.3374 161.38542 535.93115 161.66667Q535.5405 161.94792 535.3218 162.40105L535.3218 166.91667L534.24365 166.91667L534.24365 160.57292L535.2593 160.57292ZM540.978 163.69792Q540.978 162.22917 541.6655 161.35417Q542.353 160.46355 543.478 160.46355Q544.5874 160.46355 545.24365 161.21355L545.24365 157.91667L546.3218 157.91667L546.3218 166.91667L545.3218 166.91667L545.2749 166.22917Q544.61865 167.04167 543.4624 167.04167Q542.36865 167.04167 541.6655 166.13542Q540.978 165.22917 540.978 163.77605L540.978 163.69792ZM542.05615 163.82292Q542.05615 164.90105 542.49365 165.51042Q542.9468 166.1198 543.728 166.1198Q544.7593 166.1198 545.24365 165.1823L545.24365 162.27605Q544.7593 161.38542 543.74365 161.38542Q542.9468 161.38542 542.49365 161.9948Q542.05615 162.60417 542.05615 163.82292ZM557.9624 162.9323Q557.9624 164.1823 557.5405 165.1198Q557.11865 166.04167 556.3374 166.54167Q555.5718 167.04167 554.5405 167.04167Q553.5405 167.04167 552.7593 166.54167Q551.978 166.04167 551.5405 165.13542Q551.11865 164.21355 551.103 162.9948L551.103 162.38542Q551.103 161.15105 551.5249 160.21355Q551.9624 159.27605 552.74365 158.77605Q553.5249 158.26042 554.5405 158.26042Q555.55615 158.26042 556.3374 158.76042Q557.11865 159.26042 557.5405 160.19792Q557.9624 161.13542 557.9624 162.38542L557.9624 162.9323ZM556.853 162.3698Q556.853 160.85417 556.24365 160.04167Q555.6343 159.22917 554.5405 159.22917Q553.4624 159.22917 552.853 160.04167Q552.24365 160.85417 552.228 162.29167L552.228 162.9323Q552.228 164.40105 552.8374 165.2448Q553.4624 166.07292 554.5405 166.07292Q555.6343 166.07292 556.228 165.29167Q556.8374 164.4948 556.853 163.01042L556.853 162.3698ZM565.30615 159.3073L562.55615 159.3073L562.55615 166.91667L561.4468 166.91667L561.4468 159.3073L558.6968 159.3073L558.6968 158.38542L565.30615 158.38542L565.30615 159.3073ZM571.11865 163.15105L567.5249 163.15105L567.5249 166.91667L566.3999 166.91667L566.3999 158.38542L571.6968 158.38542L571.6968 159.3073L567.5249 159.3073L567.5249 162.22917L571.11865 162.22917L571.11865 163.15105Z" fill-rule="nonzero"/><path fill="#757575" d="M459.68118 179.21355Q459.52493 180.5573 458.68118 181.3073Q457.83743 182.04167 456.4468 182.04167Q454.93118 182.04167 454.02493 180.96355Q453.11868 179.8698 453.11868 178.04167L453.11868 177.22917Q453.11868 176.04167 453.54056 175.13542Q453.96243 174.22917 454.74368 173.7448Q455.52493 173.26042 456.54056 173.26042Q457.89993 173.26042 458.71243 174.02605Q459.54056 174.79167 459.68118 176.1198L458.55618 176.1198Q458.39993 175.10417 457.91556 174.65105Q457.43118 174.19792 456.54056 174.19792Q455.46243 174.19792 454.85306 174.9948Q454.24368 175.79167 454.24368 177.26042L454.24368 178.08855Q454.24368 179.47917 454.8218 180.3073Q455.39993 181.1198 456.4468 181.1198Q457.3843 181.1198 457.8843 180.69792Q458.3843 180.26042 458.55618 179.21355L459.68118 179.21355ZM461.39993 181.91667L461.39993 173.38542L464.1968 173.38542Q465.58743 173.38542 466.27493 173.96355Q466.97806 174.52605 466.97806 175.65105Q466.97806 176.26042 466.6343 176.72917Q466.30618 177.1823 465.71243 177.4323Q466.41556 177.6198 466.80618 178.16667Q467.21243 178.69792 467.21243 179.44792Q467.21243 180.60417 466.46243 181.26042Q465.72806 181.91667 464.36868 181.91667L461.39993 181.91667ZM462.52493 177.9323L462.52493 180.9948L464.3843 180.9948Q465.18118 180.9948 465.6343 180.58855Q466.08743 180.1823 466.08743 179.46355Q466.08743 177.9323 464.39993 177.9323L462.52493 177.9323ZM462.52493 177.02605L464.22806 177.02605Q464.96243 177.02605 465.39993 176.66667Q465.85306 176.29167 465.85306 175.65105Q465.85306 174.94792 465.4468 174.63542Q465.04056 174.3073 464.1968 174.3073L462.52493 174.3073L462.52493 177.02605ZM474.68118 179.21355Q474.52493 180.5573 473.68118 181.3073Q472.83743 182.04167 471.4468 182.04167Q469.93118 182.04167 469.02493 180.96355Q468.11868 179.8698 468.11868 178.04167L468.11868 177.22917Q468.11868 176.04167 468.54056 175.13542Q468.96243 174.22917 469.74368 173.7448Q470.52493 173.26042 471.54056 173.26042Q472.89993 173.26042 473.71243 174.02605Q474.54056 174.79167 474.68118 176.1198L473.55618 176.1198Q473.39993 175.10417 472.91556 174.65105Q472.43118 174.19792 471.54056 174.19792Q470.46243 174.19792 469.85306 174.9948Q469.24368 175.79167 469.24368 177.26042L469.24368 178.08855Q469.24368 179.47917 469.8218 180.3073Q470.39993 181.1198 471.4468 181.1198Q472.3843 181.1198 472.8843 180.69792Q473.3843 180.26042 473.55618 179.21355L474.68118 179.21355Z" fill-rule="nonzero"/><path stroke="#46bdc6" stroke-width="4.0" stroke-linecap="butt" d="M432.41556 202.41667L444.41556 202.41667" fill-rule="nonzero"/><path fill="#757575" d="M458.11868 203.15105L454.52493 203.15105L454.52493 206.91667L453.39993 206.91667L453.39993 198.38542L458.6968 198.38542L458.6968 199.3073L454.52493 199.3073L454.52493 202.22917L458.11868 202.22917L458.11868 203.15105ZM464.14993 206.29167Q463.52493 207.04167 462.29056 207.04167Q461.27493 207.04167 460.74368 206.44792Q460.21243 205.85417 460.21243 204.69792L460.21243 200.57292L461.29056 200.57292L461.29056 204.66667Q461.29056 206.1198 462.46243 206.1198Q463.71243 206.1198 464.11868 205.1823L464.11868 200.57292L465.21243 200.57292L465.21243 206.91667L464.18118 206.91667L464.14993 206.29167ZM468.41556 206.91667L467.33743 206.91667L467.33743 197.91667L468.41556 197.91667L468.41556 206.91667ZM471.41556 206.91667L470.33743 206.91667L470.33743 197.91667L471.41556 197.91667L471.41556 206.91667ZM476.39993 206.91667L476.39993 198.38542L478.8218 198.38542Q479.93118 198.38542 480.77493 198.88542Q481.6343 199.3698 482.10306 200.27605Q482.5718 201.1823 482.5718 202.3698L482.5718 202.90105Q482.5718 204.1198 482.10306 205.02605Q481.64993 205.9323 480.77493 206.41667Q479.91556 206.90105 478.77493 206.91667L476.39993 206.91667ZM477.52493 199.3073L477.52493 205.9948L478.71243 205.9948Q480.0093 205.9948 480.72806 205.19792Q481.46243 204.38542 481.46243 202.88542L481.46243 202.38542Q481.46243 200.9323 480.77493 200.13542Q480.10306 199.32292 478.83743 199.3073L477.52493 199.3073ZM485.41556 206.91667L484.33743 206.91667L484.33743 200.57292L485.41556 200.57292L485.41556 206.91667ZM484.24368 198.90105Q484.24368 198.63542 484.39993 198.44792Q484.5718 198.26042 484.8843 198.26042Q485.1968 198.26042 485.35306 198.44792Q485.52493 198.63542 485.52493 198.90105Q485.52493 199.15105 485.35306 199.33855Q485.1968 199.51042 484.8843 199.51042Q484.5718 199.51042 484.39993 199.33855Q484.24368 199.15105 484.24368 198.90105ZM490.93118 205.22917Q490.93118 204.79167 490.58743 204.5573Q490.2593 204.3073 489.43118 204.13542Q488.61868 203.96355 488.1343 203.71355Q487.64993 203.46355 487.41556 203.13542Q487.1968 202.79167 487.1968 202.32292Q487.1968 201.54167 487.85306 201.01042Q488.5093 200.46355 489.54056 200.46355Q490.61868 200.46355 491.27493 201.02605Q491.9468 201.57292 491.9468 202.4323L490.86868 202.4323Q490.86868 201.9948 490.47806 201.6823Q490.10306 201.35417 489.54056 201.35417Q488.9468 201.35417 488.60306 201.6198Q488.27493 201.8698 488.27493 202.27605Q488.27493 202.66667 488.58743 202.8698Q488.89993 203.07292 489.71243 203.26042Q490.52493 203.4323 491.02493 203.6823Q491.52493 203.9323 491.7593 204.29167Q492.0093 204.65105 492.0093 205.15105Q492.0093 206.01042 491.3218 206.52605Q490.64993 207.04167 489.5718 207.04167Q488.80618 207.04167 488.21243 206.77605Q487.6343 206.4948 487.30618 206.01042Q486.97806 205.52605 486.97806 204.96355L488.05618 204.96355Q488.08743 205.51042 488.49368 205.83855Q488.89993 206.15105 489.5718 206.15105Q490.18118 206.15105 490.55618 205.90105Q490.93118 205.65105 490.93118 205.22917ZM495.0093 203.97917L494.3218 204.6823L494.3218 206.91667L493.24368 206.91667L493.24368 197.91667L494.3218 197.91667L494.3218 203.35417L494.89993 202.66667L496.8843 200.57292L498.1968 200.57292L495.72806 203.22917L498.49368 206.91667L497.21243 206.91667L495.0093 203.97917ZM506.14993 206.91667Q506.05618 206.72917 505.99368 206.2448Q505.24368 207.04167 504.1968 207.04167Q503.2593 207.04167 502.64993 206.51042Q502.05618 205.97917 502.05618 205.15105Q502.05618 204.16667 502.80618 203.6198Q503.55618 203.07292 504.93118 203.07292L505.97806 203.07292L505.97806 202.57292Q505.97806 202.01042 505.6343 201.6823Q505.30618 201.33855 504.6343 201.33855Q504.05618 201.33855 503.66556 201.63542Q503.27493 201.91667 503.27493 202.33855L502.18118 202.33855Q502.18118 201.85417 502.5093 201.41667Q502.85306 200.97917 503.43118 200.72917Q504.0093 200.46355 504.6968 200.46355Q505.80618 200.46355 506.41556 201.01042Q507.04056 201.5573 507.0718 202.51042L507.0718 205.4323Q507.0718 206.3073 507.29056 206.82292L507.29056 206.91667L506.14993 206.91667ZM504.35306 206.08855Q504.86868 206.08855 505.3218 205.82292Q505.77493 205.5573 505.97806 205.13542L505.97806 203.83855L505.1343 203.83855Q503.1343 203.83855 503.1343 205.01042Q503.1343 205.51042 503.47806 205.8073Q503.8218 206.08855 504.35306 206.08855ZM510.2593 200.57292L510.29056 201.3698Q511.02493 200.46355 512.1968 200.46355Q514.2124 200.46355 514.228 202.72917L514.228 206.91667L513.1343 206.91667L513.1343 202.71355Q513.1343 202.04167 512.8218 201.71355Q512.5249 201.38542 511.86868 201.38542Q511.33743 201.38542 510.93118 201.66667Q510.54056 201.94792 510.3218 202.40105L510.3218 206.91667L509.24368 206.91667L509.24368 200.57292L510.2593 200.57292ZM515.978 203.69792Q515.978 202.22917 516.6655 201.35417Q517.353 200.46355 518.478 200.46355Q519.5874 200.46355 520.24365 201.21355L520.24365 197.91667L521.3218 197.91667L521.3218 206.91667L520.3218 206.91667L520.2749 206.22917Q519.61865 207.04167 518.4624 207.04167Q517.36865 207.04167 516.6655 206.13542Q515.978 205.22917 515.978 203.77605L515.978 203.69792ZM517.05615 203.82292Q517.05615 204.90105 517.49365 205.51042Q517.9468 206.1198 518.728 206.1198Q519.7593 206.1198 520.24365 205.1823L520.24365 202.27605Q519.7593 201.38542 518.74365 201.38542Q517.9468 201.38542 517.49365 201.9948Q517.05615 202.60417 517.05615 203.82292ZM532.9624 202.9323Q532.9624 204.1823 532.5405 205.1198Q532.11865 206.04167 531.3374 206.54167Q530.5718 207.04167 529.5405 207.04167Q528.5405 207.04167 527.7593 206.54167Q526.978 206.04167 526.5405 205.13542Q526.11865 204.21355 526.103 202.9948L526.103 202.38542Q526.103 201.15105 526.5249 200.21355Q526.9624 199.27605 527.74365 198.77605Q528.5249 198.26042 529.5405 198.26042Q530.55615 198.26042 531.3374 198.76042Q532.11865 199.26042 532.5405 200.19792Q532.9624 201.13542 532.9624 202.38542L532.9624 202.9323ZM531.853 202.3698Q531.853 200.85417 531.24365 200.04167Q530.6343 199.22917 529.5405 199.22917Q528.4624 199.22917 527.853 200.04167Q527.24365 200.85417 527.228 202.29167L527.228 202.9323Q527.228 204.40105 527.8374 205.2448Q528.4624 206.07292 529.5405 206.07292Q530.6343 206.07292 531.228 205.29167Q531.8374 204.4948 531.853 203.01042L531.853 202.3698ZM540.30615 199.3073L537.55615 199.3073L537.55615 206.91667L536.4468 206.91667L536.4468 199.3073L533.6968 199.3073L533.6968 198.38542L540.30615 198.38542L540.30615 199.3073ZM546.11865 203.15105L542.5249 203.15105L542.5249 206.91667L541.3999 206.91667L541.3999 198.38542L546.6968 198.38542L546.6968 199.3073L542.5249 199.3073L542.5249 202.22917L546.11865 202.22917L546.11865 203.15105ZM557.68115 204.21355Q557.5249 205.5573 556.68115 206.3073Q555.8374 207.04167 554.4468 207.04167Q552.93115 207.04167 552.0249 205.96355Q551.11865 204.8698 551.11865 203.04167L551.11865 202.22917Q551.11865 201.04167 551.5405 200.13542Q551.9624 199.22917 552.74365 198.7448Q553.5249 198.26042 554.5405 198.26042Q555.8999 198.26042 556.7124 199.02605Q557.5405 199.79167 557.68115 201.1198L556.55615 201.1198Q556.3999 200.10417 555.9155 199.65105Q555.43115 199.19792 554.5405 199.19792Q553.4624 199.19792 552.853 199.9948Q552.24365 200.79167 552.24365 202.26042L552.24365 203.08855Q552.24365 204.47917 552.8218 205.3073Q553.3999 206.1198 554.4468 206.1198Q555.3843 206.1198 555.8843 205.69792Q556.3843 205.26042 556.55615 204.21355L557.68115 204.21355ZM559.3999 206.91667L559.3999 198.38542L562.1968 198.38542Q563.5874 198.38542 564.2749 198.96355Q564.978 199.52605 564.978 200.65105Q564.978 201.26042 564.6343 201.72917Q564.30615 202.1823 563.7124 202.4323Q564.4155 202.6198 564.80615 203.16667Q565.2124 203.69792 565.2124 204.44792Q565.2124 205.60417 564.4624 206.26042Q563.728 206.91667 562.36865 206.91667L559.3999 206.91667ZM560.5249 202.9323L560.5249 205.9948L562.3843 205.9948Q563.18115 205.9948 563.6343 205.58855Q564.0874 205.1823 564.0874 204.46355Q564.0874 202.9323 562.3999 202.9323L560.5249 202.9323ZM560.5249 202.02605L562.228 202.02605Q562.9624 202.02605 563.3999 201.66667Q563.853 201.29167 563.853 200.65105Q563.853 199.94792 563.4468 199.63542Q563.0405 199.3073 562.1968 199.3073L560.5249 199.3073L560.5249 202.02605ZM572.68115 204.21355Q572.5249 205.5573 571.68115 206.3073Q570.8374 207.04167 569.4468 207.04167Q567.93115 207.04167 567.0249 205.96355Q566.11865 204.8698 566.11865 203.04167L566.11865 202.22917Q566.11865 201.04167 566.5405 200.13542Q566.9624 199.22917 567.74365 198.7448Q568.5249 198.26042 569.5405 198.26042Q570.8999 198.26042 571.7124 199.02605Q572.5405 199.79167 572.68115 201.1198L571.55615 201.1198Q571.3999 200.10417 570.9155 199.65105Q570.43115 199.19792 569.5405 199.19792Q568.4624 199.19792 567.853 199.9948Q567.24365 200.79167 567.24365 202.26042L567.24365 203.08855Q567.24365 204.47917 567.8218 205.3073Q568.3999 206.1198 569.4468 206.1198Q570.3843 206.1198 570.8843 205.69792Q571.3843 205.26042 571.55615 204.21355L572.68115 204.21355Z" fill-rule="nonzero"/><path fill="#757575" d="M24.39375 31.20625Q21.971874 30.51875 20.878124 29.51875Q19.784374 28.503124 19.784374 27.01875Q19.784374 25.33125 21.128124 24.2375Q22.471874 23.128124 24.6125 23.128124Q26.08125 23.128124 27.221874 23.70625Q28.378124 24.26875 29.003124 25.26875Q29.628124 26.253124 29.628124 27.440624L27.753124 27.440624Q27.753124 26.159374 26.925 25.425Q26.1125 24.675 24.6125 24.675Q23.221874 24.675 22.440624 25.284374Q21.675 25.89375 21.675 26.9875Q21.675 27.846874 22.409374 28.45625Q23.14375 29.05 24.909374 29.55Q26.690624 30.05 27.690624 30.659374Q28.690624 31.253124 29.175 32.05Q29.659374 32.846874 29.659374 33.940624Q29.659374 35.659374 28.315624 36.70625Q26.971874 37.753124 24.70625 37.753124Q23.253124 37.753124 21.971874 37.190624Q20.70625 36.628124 20.01875 35.659374Q19.33125 34.675 19.33125 33.425L21.221874 33.425Q21.221874 34.721874 22.175 35.471874Q23.128124 36.20625 24.70625 36.20625Q26.190624 36.20625 26.9875 35.6125Q27.784374 35.003124 27.784374 33.95625Q27.784374 32.909374 27.05 32.346874Q26.315624 31.76875 24.39375 31.20625ZM40.846874 32.378124Q40.846874 34.8 39.7375 36.284374Q38.64375 37.753124 36.753124 37.753124Q34.83125 37.753124 33.721874 36.51875L33.721874 41.6125L31.925 41.6125L31.925 26.9875L33.565624 26.9875L33.659374 28.159374Q34.753124 26.784374 36.721874 26.784374Q38.628124 26.784374 39.7375 28.221874Q40.846874 29.659374 40.846874 32.221874L40.846874 32.378124ZM39.034374 32.175Q39.034374 30.39375 38.26875 29.3625Q37.51875 28.315624 36.190624 28.315624Q34.55 28.315624 33.721874 29.76875L33.721874 34.83125Q34.534374 36.26875 36.20625 36.26875Q37.503124 36.26875 38.26875 35.2375Q39.034374 34.20625 39.034374 32.175ZM49.440624 37.55Q49.284374 37.2375 49.190624 36.440624Q47.925 37.753124 46.175 37.753124Q44.6125 37.753124 43.6125 36.8625Q42.6125 35.971874 42.6125 34.6125Q42.6125 32.971874 43.8625 32.065624Q45.128124 31.14375 47.39375 31.14375L49.159374 31.14375L49.159374 30.315624Q49.159374 29.3625 48.58125 28.8Q48.01875 28.2375 46.925 28.2375Q45.95625 28.2375 45.3 28.7375Q44.64375 29.221874 44.64375 29.909374L42.83125 29.909374Q42.83125 29.128124 43.39375 28.39375Q43.95625 27.64375 44.909374 27.221874Q45.878124 26.784374 47.034374 26.784374Q48.8625 26.784374 49.89375 27.70625Q50.925 28.6125 50.971874 30.221874L50.971874 35.08125Q50.971874 36.534374 51.33125 37.39375L51.33125 37.55L49.440624 37.55ZM46.440624 36.175Q47.3 36.175 48.05 35.7375Q48.815624 35.3 49.159374 34.596874L49.159374 32.425L47.7375 32.425Q44.425 32.425 44.425 34.3625Q44.425 35.221874 44.9875 35.70625Q45.55 36.175 46.440624 36.175ZM59.01875 28.596874Q58.6125 28.534374 58.14375 28.534374Q56.3625 28.534374 55.721874 30.05L55.721874 37.55L53.925 37.55L53.925 26.9875L55.675 26.9875L55.70625 28.20625Q56.596874 26.784374 58.221874 26.784374Q58.753124 26.784374 59.01875 26.925L59.01875 28.596874ZM67.06563 34.753124Q67.06563 34.01875 66.51875 33.6125Q65.97188 33.20625 64.59688 32.909374Q63.221874 32.6125 62.409374 32.20625Q61.6125 31.8 61.221874 31.2375Q60.846874 30.659374 60.846874 29.878124Q60.846874 28.58125 61.940624 27.690624Q63.034374 26.784374 64.75313 26.784374Q66.55 26.784374 67.65938 27.721874Q68.78438 28.64375 68.78438 30.08125L66.95625 30.08125Q66.95625 29.346874 66.33125 28.815624Q65.70625 28.26875 64.75313 28.26875Q63.753124 28.26875 63.190624 28.70625Q62.64375 29.128124 62.64375 29.83125Q62.64375 30.471874 63.159374 30.815624Q63.675 31.14375 65.03438 31.45625Q66.39375 31.753124 67.22188 32.175Q68.06563 32.58125 68.47188 33.175Q68.87813 33.76875 68.87813 34.6125Q68.87813 36.034374 67.7375 36.89375Q66.6125 37.753124 64.8 37.753124Q63.534374 37.753124 62.55 37.3Q61.58125 36.846874 61.01875 36.05Q60.471874 35.2375 60.471874 34.3L62.284374 34.3Q62.33125 35.20625 63.003124 35.7375Q63.690624 36.26875 64.8 36.26875Q65.83125 36.26875 66.44063 35.8625Q67.06563 35.440624 67.06563 34.753124ZM75.3 37.753124Q73.15938 37.753124 71.8 36.346874Q70.45625 34.925 70.45625 32.565624L70.45625 32.221874Q70.45625 30.659374 71.05 29.425Q71.65938 28.190624 72.7375 27.4875Q73.81563 26.784374 75.08125 26.784374Q77.14375 26.784374 78.28438 28.14375Q79.425 29.503124 79.425 32.034374L79.425 32.784374L72.26875 32.784374Q72.3 34.346874 73.175 35.315624Q74.05 36.26875 75.39375 36.26875Q76.3625 36.26875 77.01875 35.878124Q77.69063 35.4875 78.19063 34.846874L79.28438 35.70625Q77.95625 37.753124 75.3 37.753124ZM75.08125 28.26875Q73.9875 28.26875 73.2375 29.065624Q72.50313 29.8625 72.33125 31.3L77.6125 31.3L77.6125 31.159374Q77.53438 29.784374 76.8625 29.034374Q76.20625 28.26875 75.08125 28.26875ZM92.675 37.55L90.84688 37.55L90.84688 25.503124L87.20625 26.846874L87.20625 25.20625L92.39375 23.26875L92.675 23.26875L92.675 37.55ZM100.62813 23.33125L105.26875 34.925L109.925 23.33125L112.34688 23.33125L112.34688 37.55L110.47188 37.55L110.47188 32.01875L110.65938 26.034374L105.9875 37.55L104.55 37.55L99.89375 26.065624L100.08125 32.01875L100.08125 37.55L98.20625 37.55L98.20625 23.33125L100.62813 23.33125ZM115.20625 37.55L115.20625 23.33125L119.84688 23.33125Q122.15938 23.33125 123.33125 24.284374Q124.50313 25.2375 124.50313 27.1125Q124.50313 28.1125 123.925 28.878124Q123.3625 29.64375 122.39375 30.065624Q123.53438 30.39375 124.20625 31.3Q124.87813 32.190624 124.87813 33.440624Q124.87813 35.3625 123.62813 36.45625Q122.39375 37.55 120.12813 37.55L115.20625 37.55ZM117.08125 30.89375L117.08125 36.01875L120.175 36.01875Q121.4875 36.01875 122.2375 35.346874Q122.9875 34.659374 122.9875 33.471874Q122.9875 30.89375 120.20625 30.89375L117.08125 30.89375ZM117.08125 29.39375L119.90938 29.39375Q121.14375 29.39375 121.87813 28.784374Q122.6125 28.159374 122.6125 27.1125Q122.6125 25.940624 121.925 25.409374Q121.25313 24.878124 119.84688 24.878124L117.08125 24.878124L117.08125 29.39375ZM140.05 31.26875L134.08125 31.26875L134.08125 37.55L132.20625 37.55L132.20625 23.33125L141.00313 23.33125L141.00313 24.878124L134.08125 24.878124L134.08125 29.7375L140.05 29.7375L140.05 31.26875ZM144.87813 37.55L143.08125 37.55L143.08125 26.9875L144.87813 26.9875L144.87813 37.55ZM142.925 24.175Q142.925 23.7375 143.19063 23.440624Q143.47188 23.128124 143.9875 23.128124Q144.51875 23.128124 144.78438 23.440624Q145.06563 23.7375 145.06563 24.175Q145.06563 24.6125 144.78438 24.909374Q144.51875 25.20625 143.9875 25.20625Q143.47188 25.20625 143.19063 24.909374Q142.925 24.6125 142.925 24.175ZM149.87813 37.55L148.08125 37.55L148.08125 22.55L149.87813 22.55L149.87813 37.55ZM157.3 37.753124Q155.15938 37.753124 153.8 36.346874Q152.45625 34.925 152.45625 32.565624L152.45625 32.221874Q152.45625 30.659374 153.05 29.425Q153.65938 28.190624 154.7375 27.4875Q155.81563 26.784374 157.08125 26.784374Q159.14375 26.784374 160.28438 28.14375Q161.425 29.503124 161.425 32.034374L161.425 32.784374L154.26875 32.784374Q154.3 34.346874 155.175 35.315624Q156.05 36.26875 157.39375 36.26875Q158.3625 36.26875 159.01875 35.878124Q159.69063 35.4875 160.19063 34.846874L161.28438 35.70625Q159.95625 37.753124 157.3 37.753124ZM157.08125 28.26875Q155.9875 28.26875 155.2375 29.065624Q154.50313 29.8625 154.33125 31.3L159.6125 31.3L159.6125 31.159374Q159.53438 29.784374 158.8625 29.034374Q158.20625 28.26875 157.08125 28.26875ZM170.06563 34.753124Q170.06563 34.01875 169.51875 33.6125Q168.97188 33.20625 167.59688 32.909374Q166.22188 32.6125 165.40938 32.20625Q164.6125 31.8 164.22188 31.2375Q163.84688 30.659374 163.84688 29.878124Q163.84688 28.58125 164.94063 27.690624Q166.03438 26.784374 167.75313 26.784374Q169.55 26.784374 170.65938 27.721874Q171.78438 28.64375 171.78438 30.08125L169.95625 30.08125Q169.95625 29.346874 169.33125 28.815624Q168.70625 28.26875 167.75313 28.26875Q166.75313 28.26875 166.19063 28.70625Q165.64375 29.128124 165.64375 29.83125Q165.64375 30.471874 166.15938 30.815624Q166.675 31.14375 168.03438 31.45625Q169.39375 31.753124 170.22188 32.175Q171.06563 32.58125 171.47188 33.175Q171.87813 33.76875 171.87813 34.6125Q171.87813 36.034374 170.7375 36.89375Q169.6125 37.753124 167.8 37.753124Q166.53438 37.753124 165.55 37.3Q164.58125 36.846874 164.01875 36.05Q163.47188 35.2375 163.47188 34.3L165.28438 34.3Q165.33125 35.20625 166.00313 35.7375Q166.69063 36.26875 167.8 36.26875Q168.83125 36.26875 169.44063 35.8625Q170.06563 35.440624 170.06563 34.753124ZM177.37813 34.909374L179.83125 26.9875L181.76875 26.9875L177.51875 39.175Q176.53438 41.815624 174.39375 41.815624L174.05 41.784374L173.37813 41.659374L173.37813 40.190624L173.8625 40.2375Q174.78438 40.2375 175.28438 39.8625Q175.8 39.4875 176.12813 38.503124L176.53438 37.425L172.76875 26.9875L174.7375 26.9875L177.37813 34.909374ZM189.06563 34.753124Q189.06563 34.01875 188.51875 33.6125Q187.97188 33.20625 186.59688 32.909374Q185.22188 32.6125 184.40938 32.20625Q183.6125 31.8 183.22188 31.2375Q182.84688 30.659374 182.84688 29.878124Q182.84688 28.58125 183.94063 27.690624Q185.03438 26.784374 186.75313 26.784374Q188.55 26.784374 189.65938 27.721874Q190.78438 28.64375 190.78438 30.08125L188.95625 30.08125Q188.95625 29.346874 188.33125 28.815624Q187.70625 28.26875 186.75313 28.26875Q185.75313 28.26875 185.19063 28.70625Q184.64375 29.128124 184.64375 29.83125Q184.64375 30.471874 185.15938 30.815624Q185.675 31.14375 187.03438 31.45625Q188.39375 31.753124 189.22188 32.175Q190.06563 32.58125 190.47188 33.175Q190.87813 33.76875 190.87813 34.6125Q190.87813 36.034374 189.7375 36.89375Q188.6125 37.753124 186.8 37.753124Q185.53438 37.753124 184.55 37.3Q183.58125 36.846874 183.01875 36.05Q182.47188 35.2375 182.47188 34.3L184.28438 34.3Q184.33125 35.20625 185.00313 35.7375Q185.69063 36.26875 186.8 36.26875Q187.83125 36.26875 188.44063 35.8625Q189.06563 35.440624 189.06563 34.753124ZM195.3625 24.425L195.3625 26.9875L197.34688 26.9875L197.34688 28.378124L195.3625 28.378124L195.3625 34.925Q195.3625 35.565624 195.62813 35.89375Q195.89375 36.20625 196.53438 36.20625Q196.84688 36.20625 197.39375 36.08125L197.39375 37.55Q196.675 37.753124 196.00313 37.753124Q194.8 37.753124 194.175 37.01875Q193.56563 36.284374 193.56563 34.925L193.56563 28.378124L191.64375 28.378124L191.64375 26.9875L193.56563 26.9875L193.56563 24.425L195.3625 24.425ZM204.3 37.753124Q202.15938 37.753124 200.8 36.346874Q199.45625 34.925 199.45625 32.565624L199.45625 32.221874Q199.45625 30.659374 200.05 29.425Q200.65938 28.190624 201.7375 27.4875Q202.81563 26.784374 204.08125 26.784374Q206.14375 26.784374 207.28438 28.14375Q208.425 29.503124 208.425 32.034374L208.425 32.784374L201.26875 32.784374Q201.3 34.346874 202.175 35.315624Q203.05 36.26875 204.39375 36.26875Q205.3625 36.26875 206.01875 35.878124Q206.69063 35.4875 207.19063 34.846874L208.28438 35.70625Q206.95625 37.753124 204.3 37.753124ZM204.08125 28.26875Q202.9875 28.26875 202.2375 29.065624Q201.50313 29.8625 201.33125 31.3L206.6125 31.3L206.6125 31.159374Q206.53438 29.784374 205.8625 29.034374Q205.20625 28.26875 204.08125 28.26875ZM212.6125 26.9875L212.65938 28.159374Q213.83125 26.784374 215.8 26.784374Q218.01875 26.784374 218.81563 28.4875Q219.34688 27.721874 220.19063 27.253124Q221.03438 26.784374 222.19063 26.784374Q225.65938 26.784374 225.72188 30.471874L225.72188 37.55L223.90938 37.55L223.90938 30.58125Q223.90938 29.440624 223.39375 28.878124Q222.87813 28.315624 221.65938 28.315624Q220.65938 28.315624 219.9875 28.925Q219.33125 29.51875 219.22188 30.534374L219.22188 37.55L217.40938 37.55L217.40938 30.628124Q217.40938 28.315624 215.14375 28.315624Q213.3625 28.315624 212.72188 29.83125L212.72188 37.55L210.90938 37.55L210.90938 26.9875L212.6125 26.9875Z" fill-rule="nonzero"/></svg>