<svg version="1.1" viewBox="0.0 0.0 600.0 371.0" fill="none" stroke="none" stroke-linecap="square" stroke-miterlimit="10" width="600" height="371" xmlns:xlink="http://www.w3.org/1999/xlink" xmlns="http://www.w3.org/2000/svg"><path fill="#ffffff" d="M0 0L600.0 0L600.0 371.0L0 371.0L0 0Z" fill-rule="nonzero"/><path stroke="#cccccc" stroke-width="1.0" stroke-linecap="butt" d="M99.5 62.5L99.5 298.5" fill-rule="nonzero"/><path stroke="#cccccc" stroke-width="1.0" stroke-linecap="butt" d="M155.5 62.5L155.5 298.5" fill-rule="nonzero"/><path stroke="#cccccc" stroke-width="1.0" stroke-linecap="butt" d="M211.5 62.5L211.5 298.5" fill-rule="nonzero"/><path stroke="#cccccc" stroke-width="1.0" stroke-linecap="butt" d="M268.5 62.5L268.5 298.5" fill-rule="nonzero"/><path stroke="#cccccc" stroke-width="1.0" stroke-linecap="butt" d="M324.5 62.5L324.5 298.5" fill-rule="nonzero"/><path stroke="#cccccc" stroke-width="1.0" stroke-linecap="butt" d="M381.5 62.5L381.5 298.5" fill-rule="nonzero"/><path stroke="#cccccc" stroke-width="1.0" stroke-linecap="butt" d="M45.5 294.5L412.5 294.5" fill-rule="nonzero"/><path stroke="#cccccc" stroke-width="1.0" stroke-linecap="butt" d="M45.5 230.5L412.5 230.5" fill-rule="nonzero"/><path stroke="#cccccc" stroke-width="1.0" stroke-linecap="butt" d="M45.5 202.5L412.5 202.5" fill-rule="nonzero"/><path stroke="#cccccc" stroke-width="1.0" stroke-linecap="butt" d="M45.5 139.5L412.5 139.5" fill-rule="nonzero"/><path stroke="#cccccc" stroke-width="1.0" stroke-linecap="butt" d="M45.5 111.5L412.5 111.5" fill-rule="nonzero"/><clipPath id="id_0"><path d="M45.55 62.416668L412.58 62.416668L412.58 298.45L45.55 298.45L45.55 62.416668Z" clip-rule="nonzero"/></clipPath><path stroke="#4285f4" stroke-width="2.0" stroke-linecap="butt" clip-path="url(#id_0)" d="M45.55 65.66989C45.55 65.66989 51.33 118.48844 54.22 131.10023C57.11 143.71202 108.166664 207.25896 135.14 226.67743C162.11333 246.09592 412.58 298.45 412.58 298.45" fill-rule="nonzero"/><path stroke="#db4437" stroke-width="2.0" stroke-linecap="butt" clip-path="url(#id_0)" d="M45.55 65.511475C45.55 65.511475 51.33 117.61283 54.22 130.0167C57.11 142.42056 108.166664 204.32806 135.14 222.58438C162.11333 240.8407 412.58 280.768 412.58 280.768" fill-rule="nonzero"/><path stroke="#f4b400" stroke-width="2.0" stroke-linecap="butt" clip-path="url(#id_0)" d="M45.55 66.03057C45.55 66.03057 51.33 116.92736 54.22 129.10469C57.11 141.28201 108.166664 203.93939 135.14 222.34337C162.11333 240.74734 412.58 281.26395 412.58 281.26395" fill-rule="nonzero"/><path stroke="#0f9d58" stroke-width="2.0" stroke-linecap="butt" clip-path="url(#id_0)" d="M45.55 65.36214C45.55 65.36214 51.33 116.03501 54.22 127.899635C57.11 139.76427 108.166664 193.84344 135.14 208.6355C162.11333 223.42755 412.58 236.12051 412.58 236.12051" fill-rule="nonzero"/><path stroke="#ff6d00" stroke-width="2.0" stroke-linecap="butt" clip-path="url(#id_0)" d="M45.55 62.416668C45.55 62.416668 51.33 104.81785 54.22 115.1685C57.11 125.519165 108.166664 186.6907 135.14 202.4549C162.11333 218.21909 412.58 227.47928 412.58 227.47928" fill-rule="nonzero"/><path stroke="#46bdc6" stroke-width="2.0" stroke-linecap="butt" clip-path="url(#id_0)" d="M45.55 62.57757C45.55 62.57757 51.33 104.90063 54.22 115.189476C57.11 125.47832 108.166664 184.82506 135.14 200.32034C162.11333 215.81563 412.58 227.20325 412.58 227.20325" fill-rule="nonzero"/><path fill="#000000" fill-opacity="0.0" clip-path="url(#id_0)" d="M48.55 65.66989C48.55 67.32675 47.206856 68.66989 45.55 68.66989C43.893147 68.66989 42.55 67.32675 42.55 65.66989C42.55 64.01304 43.893147 62.669895 45.55 62.669895C47.206856 62.669895 48.55 64.01304 48.55 65.66989Z" fill-rule="nonzero"/><path fill="#000000" fill-opacity="0.0" clip-path="url(#id_0)" d="M57.22 131.10023C57.22 132.75708 55.876854 134.10023 54.22 134.10023C52.563145 134.10023 51.22 132.75708 51.22 131.10023C51.22 129.44337 52.563145 128.10023 54.22 128.10023C55.876854 128.10023 57.22 129.44337 57.22 131.10023Z" fill-rule="nonzero"/><path fill="#000000" fill-opacity="0.0" clip-path="url(#id_0)" d="M138.14 226.67743C138.14 228.33429 136.79686 229.67743 135.14 229.67743C133.48314 229.67743 132.14 228.33429 132.14 226.67743C132.14 225.02058 133.48314 223.67743 135.14 223.67743C136.79686 223.67743 138.14 225.02058 138.14 226.67743Z" fill-rule="nonzero"/><path fill="#000000" fill-opacity="0.0" clip-path="url(#id_0)" d="M415.58 298.45C415.58 300.10684 414.23685 301.45 412.58 301.45C410.92316 301.45 409.58 300.10684 409.58 298.45C409.58 296.79315 410.92316 295.45 412.58 295.45C414.23685 295.45 415.58 296.79315 415.58 298.45Z" fill-rule="nonzero"/><path fill="#000000" fill-opacity="0.0" clip-path="url(#id_0)" d="M48.55 65.511475C48.55 67.16833 47.206856 68.511475 45.55 68.511475C43.893147 68.511475 42.55 67.16833 42.55 65.511475C42.55 63.854618 43.893147 62.511475 45.55 62.511475C47.206856 62.511475 48.55 63.854618 48.55 65.511475Z" fill-rule="nonzero"/><path fill="#000000" fill-opacity="0.0" clip-path="url(#id_0)" d="M57.22 130.0167C57.22 131.67355 55.876854 133.0167 54.22 133.0167C52.563145 133.0167 51.22 131.67355 51.22 130.0167C51.22 128.35985 52.563145 127.0167 54.22 127.0167C55.876854 127.0167 57.22 128.35985 57.22 130.0167Z" fill-rule="nonzero"/><path fill="#000000" fill-opacity="0.0" clip-path="url(#id_0)" d="M138.14 222.58438C138.14 224.24124 136.79686 225.58438 135.14 225.58438C133.48314 225.58438 132.14 224.24124 132.14 222.58438C132.14 220.92754 133.48314 219.58438 135.14 219.58438C136.79686 219.58438 138.14 220.92754 138.14 222.58438Z" fill-rule="nonzero"/><path fill="#000000" fill-opacity="0.0" clip-path="url(#id_0)" d="M415.58 280.768C415.58 282.42487 414.23685 283.768 412.58 283.768C410.92316 283.768 409.58 282.42487 409.58 280.768C409.58 279.11118 410.92316 277.768 412.58 277.768C414.23685 277.768 415.58 279.11118 415.58 280.768Z" fill-rule="nonzero"/><path fill="#000000" fill-opacity="0.0" clip-path="url(#id_0)" d="M48.55 66.03057C48.55 67.68742 47.206856 69.03057 45.55 69.03057C43.893147 69.03057 42.55 67.68742 42.55 66.03057C42.55 64.37372 43.893147 63.03057 45.55 63.03057C47.206856 63.03057 48.55 64.37372 48.55 66.03057Z" fill-rule="nonzero"/><path fill="#000000" fill-opacity="0.0" clip-path="url(#id_0)" d="M57.22 129.10469C57.22 130.76155 55.876854 132.10469 54.22 132.10469C52.563145 132.10469 51.22 130.76155 51.22 129.10469C51.22 127.44784 52.563145 126.10469 54.22 126.10469C55.876854 126.10469 57.22 127.44784 57.22 129.10469Z" fill-rule="nonzero"/><path fill="#000000" fill-opacity="0.0" clip-path="url(#id_0)" d="M138.14 222.34337C138.14 224.00023 136.79686 225.34337 135.14 225.34337C133.48314 225.34337 132.14 224.00023 132.14 222.34337C132.14 220.68652 133.48314 219.34337 135.14 219.34337C136.79686 219.34337 138.14 220.68652 138.14 222.34337Z" fill-rule="nonzero"/><path fill="#000000" fill-opacity="0.0" clip-path="url(#id_0)" d="M415.58 281.26395C415.58 282.9208 414.23685 284.26395 412.58 284.26395C410.92316 284.26395 409.58 282.9208 409.58 281.26395C409.58 279.6071 410.92316 278.26395 412.58 278.26395C414.23685 278.26395 415.58 279.6071 415.58 281.26395Z" fill-rule="nonzero"/><path fill="#000000" fill-opacity="0.0" clip-path="url(#id_0)" d="M48.55 65.36214C48.55 67.019 47.206856 68.36214 45.55 68.36214C43.893147 68.36214 42.55 67.019 42.55 65.36214C42.55 63.705284 43.893147 62.36214 45.55 62.36214C47.206856 62.36214 48.55 63.705284 48.55 65.36214Z" fill-rule="nonzero"/><path fill="#000000" fill-opacity="0.0" clip-path="url(#id_0)" d="M57.22 127.899635C57.22 129.55649 55.876854 130.89964 54.22 130.89964C52.563145 130.89964 51.22 129.55649 51.22 127.899635C51.22 126.24278 52.563145 124.899635 54.22 124.899635C55.876854 124.899635 57.22 126.24278 57.22 127.899635Z" fill-rule="nonzero"/><path fill="#000000" fill-opacity="0.0" clip-path="url(#id_0)" d="M138.14 208.6355C138.14 210.29234 136.79686 211.6355 135.14 211.6355C133.48314 211.6355 132.14 210.29234 132.14 208.6355C132.14 206.97864 133.48314 205.6355 135.14 205.6355C136.79686 205.6355 138.14 206.97864 138.14 208.6355Z" fill-rule="nonzero"/><path fill="#000000" fill-opacity="0.0" clip-path="url(#id_0)" d="M415.58 236.12051C415.58 237.77736 414.23685 239.12051 412.58 239.12051C410.92316 239.12051 409.58 237.77736 409.58 236.12051C409.58 234.46365 410.92316 233.12051 412.58 233.12051C414.23685 233.12051 415.58 234.46365 415.58 236.12051Z" fill-rule="nonzero"/><path fill="#000000" fill-opacity="0.0" clip-path="url(#id_0)" d="M48.55 62.416668C48.55 64.073524 47.206856 65.416664 45.55 65.416664C43.893147 65.416664 42.55 64.073524 42.55 62.416668C42.55 60.75981 43.893147 59.416668 45.55 59.416668C47.206856 59.416668 48.55 60.75981 48.55 62.416668Z" fill-rule="nonzero"/><path fill="#000000" fill-opacity="0.0" clip-path="url(#id_0)" d="M57.22 115.1685C57.22 116.825356 55.876854 118.1685 54.22 118.1685C52.563145 118.1685 51.22 116.825356 51.22 115.1685C51.22 113.51165 52.563145 112.1685 54.22 112.1685C55.876854 112.1685 57.22 113.51165 57.22 115.1685Z" fill-rule="nonzero"/><path fill="#000000" fill-opacity="0.0" clip-path="url(#id_0)" d="M138.14 202.4549C138.14 204.11176 136.79686 205.4549 135.14 205.4549C133.48314 205.4549 132.14 204.11176 132.14 202.4549C132.14 200.79805 133.48314 199.4549 135.14 199.4549C136.79686 199.4549 138.14 200.79805 138.14 202.4549Z" fill-rule="nonzero"/><path fill="#000000" fill-opacity="0.0" clip-path="url(#id_0)" d="M415.58 227.47928C415.58 229.13614 414.23685 230.47928 412.58 230.47928C410.92316 230.47928 409.58 229.13614 409.58 227.47928C409.58 225.82242 410.92316 224.47928 412.58 224.47928C414.23685 224.47928 415.58 225.82242 415.58 227.47928Z" fill-rule="nonzero"/><path fill="#000000" fill-opacity="0.0" clip-path="url(#id_0)" d="M48.55 62.57757C48.55 64.23443 47.206856 65.577576 45.55 65.577576C43.893147 65.577576 42.55 64.23443 42.55 62.57757C42.55 60.92072 43.893147 59.57757 45.55 59.57757C47.206856 59.57757 48.55 60.92072 48.55 62.57757Z" fill-rule="nonzero"/><path fill="#000000" fill-opacity="0.0" clip-path="url(#id_0)" d="M57.22 115.189476C57.22 116.84633 55.876854 118.189476 54.22 118.189476C52.563145 118.189476 51.22 116.84633 51.22 115.189476C51.22 113.532616 52.563145 112.189476 54.22 112.189476C55.876854 112.189476 57.22 113.532616 57.22 115.189476Z" fill-rule="nonzero"/><path fill="#000000" fill-opacity="0.0" clip-path="url(#id_0)" d="M138.14 200.32034C138.14 201.9772 136.79686 203.32034 135.14 203.32034C133.48314 203.32034 132.14 201.9772 132.14 200.32034C132.14 198.66348 133.48314 197.32034 135.14 197.32034C136.79686 197.32034 138.14 198.66348 138.14 200.32034Z" fill-rule="nonzero"/><path fill="#000000" fill-opacity="0.0" clip-path="url(#id_0)" d="M415.58 227.20325C415.58 228.8601 414.23685 230.20325 412.58 230.20325C410.92316 230.20325 409.58 228.8601 409.58 227.20325C409.58 225.5464 410.92316 224.20325 412.58 224.20325C414.23685 224.20325 415.58 225.5464 415.58 227.20325Z" fill-rule="nonzero"/><path fill="#424242" d="M212.76813 345.6844L209.17438 345.6844L209.17438 349.45L208.04938 349.45L208.04938 340.91876L213.34625 340.91876L213.34625 341.84064L209.17438 341.84064L209.17438 344.7625L212.76813 344.7625L212.76813 345.6844ZM216.065 349.45L214.98688 349.45L214.98688 343.10626L216.065 343.10626L216.065 349.45ZM214.89313 341.4344Q214.89313 341.16876 215.04938 340.98126Q215.22125 340.79376 215.53375 340.79376Q215.84625 340.79376 216.0025 340.98126Q216.17438 341.16876 216.17438 341.4344Q216.17438 341.6844 216.0025 341.8719Q215.84625 342.04376 215.53375 342.04376Q215.22125 342.04376 215.04938 341.8719Q214.89313 341.6844 214.89313 341.4344ZM219.065 349.45L217.98688 349.45L217.98688 340.45L219.065 340.45L219.065 349.45ZM223.51813 349.575Q222.22125 349.575 221.40875 348.73126Q220.61188 347.8719 220.61188 346.45L220.61188 346.2625Q220.61188 345.3094 220.97125 344.575Q221.33063 343.825 221.97125 343.41876Q222.6275 342.9969 223.3775 342.9969Q224.61188 342.9969 225.29938 343.8094Q225.98688 344.6219 225.98688 346.1375L225.98688 346.59064L221.69 346.59064Q221.72125 347.52814 222.23688 348.10626Q222.76813 348.6844 223.58063 348.6844Q224.14313 348.6844 224.53375 348.45Q224.94 348.21564 225.2525 347.825L225.90875 348.34064Q225.11188 349.575 223.51813 349.575ZM223.3775 343.8875Q222.72125 343.8875 222.26813 344.3719Q221.83063 344.84064 221.73688 345.7L224.90875 345.7L224.90875 345.6219Q224.86188 344.79376 224.45563 344.34064Q224.065 343.8875 223.3775 343.8875ZM232.565 345.65314Q231.1275 345.23126 230.45563 344.6219Q229.79938 344.0125 229.79938 343.1219Q229.79938 342.1219 230.59625 341.46564Q231.40875 340.79376 232.70563 340.79376Q233.58063 340.79376 234.26813 341.1375Q234.95563 341.48126 235.33063 342.075Q235.72125 342.66876 235.72125 343.3875L234.58063 343.3875Q234.58063 342.60626 234.08063 342.16876Q233.59625 341.73126 232.70563 341.73126Q231.8775 341.73126 231.40875 342.10626Q230.94 342.46564 230.94 343.10626Q230.94 343.6375 231.3775 343.9969Q231.83063 344.35626 232.89313 344.65314Q233.95563 344.95 234.54938 345.3094Q235.15875 345.66876 235.44 346.15314Q235.73688 346.6375 235.73688 347.27814Q235.73688 348.325 234.92438 348.95Q234.11188 349.575 232.76813 349.575Q231.8775 349.575 231.11188 349.23126Q230.36188 348.8875 229.94 348.3094Q229.53375 347.71564 229.53375 346.98126L230.65875 346.98126Q230.65875 347.7469 231.23688 348.2Q231.815 348.65314 232.76813 348.65314Q233.65875 348.65314 234.1275 348.29376Q234.59625 347.91876 234.59625 347.29376Q234.59625 346.66876 234.15875 346.325Q233.72125 345.98126 232.565 345.65314ZM238.065 349.45L236.98688 349.45L236.98688 343.10626L238.065 343.10626L238.065 349.45ZM236.89313 341.4344Q236.89313 341.16876 237.04938 340.98126Q237.22125 340.79376 237.53375 340.79376Q237.84625 340.79376 238.0025 340.98126Q238.17438 341.16876 238.17438 341.4344Q238.17438 341.6844 238.0025 341.8719Q237.84625 342.04376 237.53375 342.04376Q237.22125 342.04376 237.04938 341.8719Q236.89313 341.6844 236.89313 341.4344ZM240.90875 348.5594L244.61188 348.5594L244.61188 349.45L239.58063 349.45L239.58063 348.65314L243.08063 344.0125L239.6275 344.0125L239.6275 343.10626L244.44 343.10626L244.44 343.8719L240.90875 348.5594ZM248.51813 349.575Q247.22125 349.575 246.40875 348.73126Q245.61188 347.8719 245.61188 346.45L245.61188 346.2625Q245.61188 345.3094 245.97125 344.575Q246.33063 343.825 246.97125 343.41876Q247.6275 342.9969 248.3775 342.9969Q249.61188 342.9969 250.29938 343.8094Q250.98688 344.6219 250.98688 346.1375L250.98688 346.59064L246.69 346.59064Q246.72125 347.52814 247.23688 348.10626Q247.76813 348.6844 248.58063 348.6844Q249.14313 348.6844 249.53375 348.45Q249.94 348.21564 250.2525 347.825L250.90875 348.34064Q250.11188 349.575 248.51813 349.575ZM248.3775 343.8875Q247.72125 343.8875 247.26813 344.3719Q246.83063 344.84064 246.73688 345.7L249.90875 345.7L249.90875 345.6219Q249.86188 344.79376 249.45563 344.34064Q249.065 343.8875 248.3775 343.8875Z" fill-rule="nonzero"/><path fill="#757575" d="M36.815624 298.75427L35.7375 298.75427L35.7375 291.53552L33.55 292.3324L33.55 291.34802L36.659374 290.17615L36.815624 290.17615L36.815624 298.75427Z" fill-rule="nonzero"/><path fill="#757575" d="M33.753124 230.63089L34.190624 226.38089L38.565624 226.38089L38.565624 227.38089L35.1125 227.38089L34.846874 229.70901Q35.4875 229.33401 36.284374 229.33401Q37.440624 229.33401 38.128124 230.11526Q38.815624 230.88089 38.815624 232.19339Q38.815624 233.50589 38.096874 234.27151Q37.39375 235.03714 36.1125 235.03714Q34.9875 235.03714 34.26875 234.41214Q33.55 233.77151 33.45625 232.66214L34.471874 232.66214Q34.58125 233.39651 35.003124 233.77151Q35.425 234.14651 36.1125 234.14651Q36.8625 234.14651 37.3 233.63089Q37.7375 233.11526 37.7375 232.20901Q37.7375 231.34964 37.26875 230.83401Q36.8 230.31839 36.01875 230.31839Q35.315624 230.31839 34.909374 230.61526L34.628124 230.84964L33.753124 230.63089Z" fill-rule="nonzero"/><path fill="#757575" d="M29.815624 207.41684L28.7375 207.41684L28.7375 200.19809L26.55 200.99496L26.55 200.01059L29.659374 198.83871L29.815624 198.83871L29.815624 207.41684ZM38.6125 203.77621Q38.6125 205.68246 37.95625 206.61996Q37.315624 207.54184 35.925 207.54184Q34.565624 207.54184 33.909374 206.63559Q33.253124 205.72934 33.221874 203.91684L33.221874 202.47934Q33.221874 200.58871 33.8625 199.68246Q34.51875 198.76059 35.909374 198.76059Q37.284374 198.76059 37.940624 199.65121Q38.596874 200.52621 38.6125 202.36996L38.6125 203.77621ZM37.51875 202.29184Q37.51875 200.91684 37.128124 200.29184Q36.753124 199.65121 35.909374 199.65121Q35.08125 199.65121 34.690624 200.29184Q34.315624 200.91684 34.315624 202.21371L34.315624 203.94809Q34.315624 205.32309 34.70625 205.99496Q35.1125 206.65121 35.925 206.65121Q36.721874 206.65121 37.1125 206.02621Q37.503124 205.40121 37.51875 204.07309L37.51875 202.29184Z" fill-rule="nonzero"/><path fill="#757575" d="M26.753124 139.29346L27.190624 135.04346L31.565624 135.04346L31.565624 136.04346L28.1125 136.04346L27.846874 138.37158Q28.4875 137.99658 29.284374 137.99658Q30.440624 137.99658 31.128124 138.77783Q31.815624 139.54346 31.815624 140.85596Q31.815624 142.16846 31.096874 142.93408Q30.39375 143.6997 29.1125 143.6997Q27.9875 143.6997 27.26875 143.0747Q26.55 142.43408 26.45625 141.3247L27.471874 141.3247Q27.58125 142.05908 28.003124 142.43408Q28.425 142.80908 29.1125 142.80908Q29.8625 142.80908 30.3 142.29346Q30.7375 141.77783 30.7375 140.87158Q30.7375 140.0122 30.26875 139.49658Q29.8 138.98096 29.01875 138.98096Q28.315624 138.98096 27.909374 139.27783L27.628124 139.5122L26.753124 139.29346ZM38.6125 139.93408Q38.6125 141.84033 37.95625 142.77783Q37.315624 143.6997 35.925 143.6997Q34.565624 143.6997 33.909374 142.79346Q33.253124 141.8872 33.221874 140.0747L33.221874 138.6372Q33.221874 136.74658 33.8625 135.84033Q34.51875 134.91846 35.909374 134.91846Q37.284374 134.91846 37.940624 135.80908Q38.596874 136.68408 38.6125 138.52783L38.6125 139.93408ZM37.51875 138.4497Q37.51875 137.0747 37.128124 136.4497Q36.753124 135.80908 35.909374 135.80908Q35.08125 135.80908 34.690624 136.4497Q34.315624 137.0747 34.315624 138.37158L34.315624 140.10596Q34.315624 141.48096 34.70625 142.15283Q35.1125 142.80908 35.925 142.80908Q36.721874 142.80908 37.1125 142.18408Q37.503124 141.55908 37.51875 140.23096L37.51875 138.4497Z" fill-rule="nonzero"/><path fill="#757575" d="M22.815624 116.0794L21.7375 116.0794L21.7375 108.86065L19.55 109.657524L19.55 108.67315L22.659374 107.501274L22.815624 107.501274L22.815624 116.0794ZM31.6125 112.438774Q31.6125 114.345024 30.95625 115.282524Q30.315624 116.2044 28.925 116.2044Q27.565624 116.2044 26.909374 115.29815Q26.253124 114.3919 26.221874 112.5794L26.221874 111.1419Q26.221874 109.251274 26.8625 108.345024Q27.51875 107.42315 28.909374 107.42315Q30.284374 107.42315 30.940624 108.313774Q31.596874 109.188774 31.6125 111.032524L31.6125 112.438774ZM30.51875 110.9544Q30.51875 109.5794 30.128124 108.9544Q29.753124 108.313774 28.909374 108.313774Q28.08125 108.313774 27.690624 108.9544Q27.315624 109.5794 27.315624 110.876274L27.315624 112.61065Q27.315624 113.98565 27.70625 114.657524Q28.1125 115.313774 28.925 115.313774Q29.721874 115.313774 30.1125 114.688774Q30.503124 114.063774 30.51875 112.73565L30.51875 110.9544ZM38.6125 112.438774Q38.6125 114.345024 37.95625 115.282524Q37.315624 116.2044 35.925 116.2044Q34.565624 116.2044 33.909374 115.29815Q33.253124 114.3919 33.221874 112.5794L33.221874 111.1419Q33.221874 109.251274 33.8625 108.345024Q34.51875 107.42315 35.909374 107.42315Q37.284374 107.42315 37.940624 108.313774Q38.596874 109.188774 38.6125 111.032524L38.6125 112.438774ZM37.51875 110.9544Q37.51875 109.5794 37.128124 108.9544Q36.753124 108.313774 35.909374 108.313774Q35.08125 108.313774 34.690624 108.9544Q34.315624 109.5794 34.315624 110.876274L34.315624 112.61065Q34.315624 113.98565 34.70625 114.657524Q35.1125 115.313774 35.925 115.313774Q36.721874 115.313774 37.1125 114.688774Q37.503124 114.063774 37.51875 112.73565L37.51875 110.9544Z" fill-rule="nonzero"/><path fill="#757575" d="M86.30844 312.16876L86.74594 307.91876L91.12094 307.91876L91.12094 308.91876L87.667816 308.91876L87.40219 311.2469Q88.042816 310.8719 88.83969 310.8719Q89.99594 310.8719 90.68344 311.65314Q91.37094 312.41876 91.37094 313.73126Q91.37094 315.04376 90.65219 315.8094Q89.949066 316.575 88.667816 316.575Q87.542816 316.575 86.824066 315.95Q86.105316 315.3094 86.011566 314.2L87.02719 314.2Q87.136566 314.9344 87.55844 315.3094Q87.980316 315.6844 88.667816 315.6844Q89.417816 315.6844 89.855316 315.16876Q90.292816 314.65314 90.292816 313.7469Q90.292816 312.8875 89.824066 312.3719Q89.355316 311.85626 88.574066 311.85626Q87.87094 311.85626 87.46469 312.15314L87.18344 312.3875L86.30844 312.16876ZM98.167816 312.8094Q98.167816 314.71564 97.511566 315.65314Q96.87094 316.575 95.480316 316.575Q94.12094 316.575 93.46469 315.66876Q92.80844 314.7625 92.77719 312.95L92.77719 311.5125Q92.77719 309.6219 93.417816 308.71564Q94.074066 307.79376 95.46469 307.79376Q96.83969 307.79376 97.49594 308.6844Q98.15219 309.5594 98.167816 311.40314L98.167816 312.8094ZM97.074066 311.325Q97.074066 309.95 96.68344 309.325Q96.30844 308.6844 95.46469 308.6844Q94.636566 308.6844 94.24594 309.325Q93.87094 309.95 93.87094 311.2469L93.87094 312.98126Q93.87094 314.35626 94.261566 315.02814Q94.667816 315.6844 95.480316 315.6844Q96.27719 315.6844 96.667816 315.0594Q97.05844 314.4344 97.074066 313.10626L97.074066 311.325ZM105.167816 312.8094Q105.167816 314.71564 104.511566 315.65314Q103.87094 316.575 102.480316 316.575Q101.12094 316.575 100.46469 315.66876Q99.80844 314.7625 99.77719 312.95L99.77719 311.5125Q99.77719 309.6219 100.417816 308.71564Q101.074066 307.79376 102.46469 307.79376Q103.83969 307.79376 104.49594 308.6844Q105.15219 309.5594 105.167816 311.40314L105.167816 312.8094ZM104.074066 311.325Q104.074066 309.95 103.68344 309.325Q103.30844 308.6844 102.46469 308.6844Q101.636566 308.6844 101.24594 309.325Q100.87094 309.95 100.87094 311.2469L100.87094 312.98126Q100.87094 314.35626 101.261566 315.02814Q101.667816 315.6844 102.480316 315.6844Q103.27719 315.6844 103.667816 315.0594Q104.05844 314.4344 104.074066 313.10626L104.074066 311.325ZM112.167816 312.8094Q112.167816 314.71564 111.511566 315.65314Q110.87094 316.575 109.480316 316.575Q108.12094 316.575 107.46469 315.66876Q106.80844 314.7625 106.77719 312.95L106.77719 311.5125Q106.77719 309.6219 107.417816 308.71564Q108.074066 307.79376 109.46469 307.79376Q110.83969 307.79376 111.49594 308.6844Q112.15219 309.5594 112.167816 311.40314L112.167816 312.8094ZM111.074066 311.325Q111.074066 309.95 110.68344 309.325Q110.30844 308.6844 109.46469 308.6844Q108.636566 308.6844 108.24594 309.325Q107.87094 309.95 107.87094 311.2469L107.87094 312.98126Q107.87094 314.35626 108.261566 315.02814Q108.667816 315.6844 109.480316 315.6844Q110.27719 315.6844 110.667816 315.0594Q111.05844 314.4344 111.074066 313.10626L111.074066 311.325Z" fill-rule="nonzero"/><path fill="#757575" d="M142.31625 316.45L141.23813 316.45L141.23813 309.23126L139.05063 310.02814L139.05063 309.04376L142.16 307.8719L142.31625 307.8719L142.31625 316.45ZM151.11313 312.8094Q151.11313 314.71564 150.45688 315.65314Q149.81625 316.575 148.42563 316.575Q147.06625 316.575 146.41 315.66876Q145.75375 314.7625 145.7225 312.95L145.7225 311.5125Q145.7225 309.6219 146.36313 308.71564Q147.01938 307.79376 148.41 307.79376Q149.785 307.79376 150.44125 308.6844Q151.0975 309.5594 151.11313 311.40314L151.11313 312.8094ZM150.01938 311.325Q150.01938 309.95 149.62875 309.325Q149.25375 308.6844 148.41 308.6844Q147.58188 308.6844 147.19125 309.325Q146.81625 309.95 146.81625 311.2469L146.81625 312.98126Q146.81625 314.35626 147.20688 315.02814Q147.61313 315.6844 148.42563 315.6844Q149.2225 315.6844 149.61313 315.0594Q150.00375 314.4344 150.01938 313.10626L150.01938 311.325ZM158.11313 312.8094Q158.11313 314.71564 157.45688 315.65314Q156.81625 316.575 155.42563 316.575Q154.06625 316.575 153.41 315.66876Q152.75375 314.7625 152.7225 312.95L152.7225 311.5125Q152.7225 309.6219 153.36313 308.71564Q154.01938 307.79376 155.41 307.79376Q156.785 307.79376 157.44125 308.6844Q158.0975 309.5594 158.11313 311.40314L158.11313 312.8094ZM157.01938 311.325Q157.01938 309.95 156.62875 309.325Q156.25375 308.6844 155.41 308.6844Q154.58188 308.6844 154.19125 309.325Q153.81625 309.95 153.81625 311.2469L153.81625 312.98126Q153.81625 314.35626 154.20688 315.02814Q154.61313 315.6844 155.42563 315.6844Q156.2225 315.6844 156.61313 315.0594Q157.00375 314.4344 157.01938 313.10626L157.01938 311.325ZM165.11313 312.8094Q165.11313 314.71564 164.45688 315.65314Q163.81625 316.575 162.42563 316.575Q161.06625 316.575 160.41 315.66876Q159.75375 314.7625 159.7225 312.95L159.7225 311.5125Q159.7225 309.6219 160.36313 308.71564Q161.01938 307.79376 162.41 307.79376Q163.785 307.79376 164.44125 308.6844Q165.0975 309.5594 165.11313 311.40314L165.11313 312.8094ZM164.01938 311.325Q164.01938 309.95 163.62875 309.325Q163.25375 308.6844 162.41 308.6844Q161.58188 308.6844 161.19125 309.325Q160.81625 309.95 160.81625 311.2469L160.81625 312.98126Q160.81625 314.35626 161.20688 315.02814Q161.61313 315.6844 162.42563 315.6844Q163.2225 315.6844 163.61313 315.0594Q164.00375 314.4344 164.01938 313.10626L164.01938 311.325ZM172.11313 312.8094Q172.11313 314.71564 171.45688 315.65314Q170.81625 316.575 169.42563 316.575Q168.06625 316.575 167.41 315.66876Q166.75375 314.7625 166.7225 312.95L166.7225 311.5125Q166.7225 309.6219 167.36313 308.71564Q168.01938 307.79376 169.41 307.79376Q170.785 307.79376 171.44125 308.6844Q172.0975 309.5594 172.11313 311.40314L172.11313 312.8094ZM171.01938 311.325Q171.01938 309.95 170.62875 309.325Q170.25375 308.6844 169.41 308.6844Q168.58188 308.6844 168.19125 309.325Q167.81625 309.95 167.81625 311.2469L167.81625 312.98126Q167.81625 314.35626 168.20688 315.02814Q168.61313 315.6844 169.42563 315.6844Q170.2225 315.6844 170.61313 315.0594Q171.00375 314.4344 171.01938 313.10626L171.01938 311.325Z" fill-rule="nonzero"/><path fill="#757575" d="M198.76157 316.45L197.68344 316.45L197.68344 309.23126L195.49594 310.02814L195.49594 309.04376L198.60532 307.8719L198.76157 307.8719L198.76157 316.45ZM202.69907 312.16876L203.13657 307.91876L207.51157 307.91876L207.51157 308.91876L204.05844 308.91876L203.79282 311.2469Q204.43344 310.8719 205.23032 310.8719Q206.38657 310.8719 207.07407 311.65314Q207.76157 312.41876 207.76157 313.73126Q207.76157 315.04376 207.04282 315.8094Q206.33969 316.575 205.05844 316.575Q203.93344 316.575 203.21469 315.95Q202.49594 315.3094 202.40219 314.2L203.41782 314.2Q203.52719 314.9344 203.94907 315.3094Q204.37094 315.6844 205.05844 315.6844Q205.80844 315.6844 206.24594 315.16876Q206.68344 314.65314 206.68344 313.7469Q206.68344 312.8875 206.21469 312.3719Q205.74594 311.85626 204.96469 311.85626Q204.26157 311.85626 203.85532 312.15314L203.57407 312.3875L202.69907 312.16876ZM214.55844 312.8094Q214.55844 314.71564 213.90219 315.65314Q213.26157 316.575 211.87094 316.575Q210.51157 316.575 209.85532 315.66876Q209.19907 314.7625 209.16782 312.95L209.16782 311.5125Q209.16782 309.6219 209.80844 308.71564Q210.46469 307.79376 211.85532 307.79376Q213.23032 307.79376 213.88657 308.6844Q214.54282 309.5594 214.55844 311.40314L214.55844 312.8094ZM213.46469 311.325Q213.46469 309.95 213.07407 309.325Q212.69907 308.6844 211.85532 308.6844Q211.02719 308.6844 210.63657 309.325Q210.26157 309.95 210.26157 311.2469L210.26157 312.98126Q210.26157 314.35626 210.65219 315.02814Q211.05844 315.6844 211.87094 315.6844Q212.66782 315.6844 213.05844 315.0594Q213.44907 314.4344 213.46469 313.10626L213.46469 311.325ZM221.55844 312.8094Q221.55844 314.71564 220.90219 315.65314Q220.26157 316.575 218.87094 316.575Q217.51157 316.575 216.85532 315.66876Q216.19907 314.7625 216.16782 312.95L216.16782 311.5125Q216.16782 309.6219 216.80844 308.71564Q217.46469 307.79376 218.85532 307.79376Q220.23032 307.79376 220.88657 308.6844Q221.54282 309.5594 221.55844 311.40314L221.55844 312.8094ZM220.46469 311.325Q220.46469 309.95 220.07407 309.325Q219.69907 308.6844 218.85532 308.6844Q218.02719 308.6844 217.63657 309.325Q217.26157 309.95 217.26157 311.2469L217.26157 312.98126Q217.26157 314.35626 217.65219 315.02814Q218.05844 315.6844 218.87094 315.6844Q219.66782 315.6844 220.05844 315.0594Q220.44907 314.4344 220.46469 313.10626L220.46469 311.325ZM228.55844 312.8094Q228.55844 314.71564 227.90219 315.65314Q227.26157 316.575 225.87094 316.575Q224.51157 316.575 223.85532 315.66876Q223.19907 314.7625 223.16782 312.95L223.16782 311.5125Q223.16782 309.6219 223.80844 308.71564Q224.46469 307.79376 225.85532 307.79376Q227.23032 307.79376 227.88657 308.6844Q228.54282 309.5594 228.55844 311.40314L228.55844 312.8094ZM227.46469 311.325Q227.46469 309.95 227.07407 309.325Q226.69907 308.6844 225.85532 308.6844Q225.02719 308.6844 224.63657 309.325Q224.26157 309.95 224.26157 311.2469L224.26157 312.98126Q224.26157 314.35626 224.65219 315.02814Q225.05844 315.6844 225.87094 315.6844Q226.66782 315.6844 227.05844 315.0594Q227.44907 314.4344 227.46469 313.10626L227.46469 311.325Z" fill-rule="nonzero"/><path fill="#757575" d="M257.23813 316.45L251.64438 316.45L251.64438 315.66876L254.5975 312.3875Q255.25375 311.6375 255.50375 311.1844Q255.75375 310.71564 255.75375 310.21564Q255.75375 309.54376 255.3475 309.1219Q254.95688 308.6844 254.26938 308.6844Q253.4725 308.6844 253.01938 309.15314Q252.56625 309.60626 252.56625 310.4344L251.48813 310.4344Q251.48813 309.2469 252.23813 308.52814Q253.00375 307.79376 254.26938 307.79376Q255.4725 307.79376 256.16 308.41876Q256.8475 309.04376 256.8475 310.09064Q256.8475 311.34064 255.23813 313.09064L252.95688 315.5594L257.23813 315.5594L257.23813 316.45ZM264.00375 312.8094Q264.00375 314.71564 263.3475 315.65314Q262.70688 316.575 261.31625 316.575Q259.95688 316.575 259.30063 315.66876Q258.64438 314.7625 258.61313 312.95L258.61313 311.5125Q258.61313 309.6219 259.25375 308.71564Q259.91 307.79376 261.30063 307.79376Q262.67563 307.79376 263.33188 308.6844Q263.98813 309.5594 264.00375 311.40314L264.00375 312.8094ZM262.91 311.325Q262.91 309.95 262.51938 309.325Q262.14438 308.6844 261.30063 308.6844Q260.4725 308.6844 260.08188 309.325Q259.70688 309.95 259.70688 311.2469L259.70688 312.98126Q259.70688 314.35626 260.0975 315.02814Q260.50375 315.6844 261.31625 315.6844Q262.11313 315.6844 262.50375 315.0594Q262.89438 314.4344 262.91 313.10626L262.91 311.325ZM271.00375 312.8094Q271.00375 314.71564 270.3475 315.65314Q269.70688 316.575 268.31625 316.575Q266.95688 316.575 266.30063 315.66876Q265.64438 314.7625 265.61313 312.95L265.61313 311.5125Q265.61313 309.6219 266.25375 308.71564Q266.91 307.79376 268.30063 307.79376Q269.67563 307.79376 270.33188 308.6844Q270.98813 309.5594 271.00375 311.40314L271.00375 312.8094ZM269.91 311.325Q269.91 309.95 269.51938 309.325Q269.14438 308.6844 268.30063 308.6844Q267.4725 308.6844 267.08188 309.325Q266.70688 309.95 266.70688 311.2469L266.70688 312.98126Q266.70688 314.35626 267.0975 315.02814Q267.50375 315.6844 268.31625 315.6844Q269.11313 315.6844 269.50375 315.0594Q269.89438 314.4344 269.91 313.10626L269.91 311.325ZM278.00375 312.8094Q278.00375 314.71564 277.3475 315.65314Q276.70688 316.575 275.31625 316.575Q273.95688 316.575 273.30063 315.66876Q272.64438 314.7625 272.61313 312.95L272.61313 311.5125Q272.61313 309.6219 273.25375 308.71564Q273.91 307.79376 275.30063 307.79376Q276.67563 307.79376 277.33188 308.6844Q277.98813 309.5594 278.00375 311.40314L278.00375 312.8094ZM276.91 311.325Q276.91 309.95 276.51938 309.325Q276.14438 308.6844 275.30063 308.6844Q274.4725 308.6844 274.08188 309.325Q273.70688 309.95 273.70688 311.2469L273.70688 312.98126Q273.70688 314.35626 274.0975 315.02814Q274.50375 315.6844 275.31625 315.6844Q276.11313 315.6844 276.50375 315.0594Q276.89438 314.4344 276.91 313.10626L276.91 311.325ZM285.00375 312.8094Q285.00375 314.71564 284.3475 315.65314Q283.70688 316.575 282.31625 316.575Q280.95688 316.575 280.30063 315.66876Q279.64438 314.7625 279.61313 312.95L279.61313 311.5125Q279.61313 309.6219 280.25375 308.71564Q280.91 307.79376 282.30063 307.79376Q283.67563 307.79376 284.33188 308.6844Q284.98813 309.5594 285.00375 311.40314L285.00375 312.8094ZM283.91 311.325Q283.91 309.95 283.51938 309.325Q283.14438 308.6844 282.30063 308.6844Q281.4725 308.6844 281.08188 309.325Q280.70688 309.95 280.70688 311.2469L280.70688 312.98126Q280.70688 314.35626 281.0975 315.02814Q281.50375 315.6844 282.31625 315.6844Q283.11313 315.6844 283.50375 315.0594Q283.89438 314.4344 283.91 313.10626L283.91 311.325Z" fill-rule="nonzero"/><path fill="#757575" d="M313.68344 316.45L308.0897 316.45L308.0897 315.66876L311.04282 312.3875Q311.69907 311.6375 311.94907 311.1844Q312.19907 310.71564 312.19907 310.21564Q312.19907 309.54376 311.79282 309.1219Q311.4022 308.6844 310.7147 308.6844Q309.91782 308.6844 309.4647 309.15314Q309.01157 309.60626 309.01157 310.4344L307.93344 310.4344Q307.93344 309.2469 308.68344 308.52814Q309.44907 307.79376 310.7147 307.79376Q311.91782 307.79376 312.60532 308.41876Q313.29282 309.04376 313.29282 310.09064Q313.29282 311.34064 311.68344 313.09064L309.4022 315.5594L313.68344 315.5594L313.68344 316.45ZM315.5897 312.16876L316.0272 307.91876L320.4022 307.91876L320.4022 308.91876L316.94907 308.91876L316.68344 311.2469Q317.32407 310.8719 318.12094 310.8719Q319.2772 310.8719 319.9647 311.65314Q320.6522 312.41876 320.6522 313.73126Q320.6522 315.04376 319.93344 315.8094Q319.23032 316.575 317.94907 316.575Q316.82407 316.575 316.10532 315.95Q315.38657 315.3094 315.29282 314.2L316.30844 314.2Q316.41782 314.9344 316.8397 315.3094Q317.26157 315.6844 317.94907 315.6844Q318.69907 315.6844 319.13657 315.16876Q319.57407 314.65314 319.57407 313.7469Q319.57407 312.8875 319.10532 312.3719Q318.63657 311.85626 317.85532 311.85626Q317.1522 311.85626 316.74594 312.15314L316.4647 312.3875L315.5897 312.16876ZM327.44907 312.8094Q327.44907 314.71564 326.79282 315.65314Q326.1522 316.575 324.76157 316.575Q323.4022 316.575 322.74594 315.66876Q322.0897 314.7625 322.05844 312.95L322.05844 311.5125Q322.05844 309.6219 322.69907 308.71564Q323.35532 307.79376 324.74594 307.79376Q326.12094 307.79376 326.7772 308.6844Q327.43344 309.5594 327.44907 311.40314L327.44907 312.8094ZM326.35532 311.325Q326.35532 309.95 325.9647 309.325Q325.5897 308.6844 324.74594 308.6844Q323.91782 308.6844 323.5272 309.325Q323.1522 309.95 323.1522 311.2469L323.1522 312.98126Q323.1522 314.35626 323.54282 315.02814Q323.94907 315.6844 324.76157 315.6844Q325.55844 315.6844 325.94907 315.0594Q326.3397 314.4344 326.35532 313.10626L326.35532 311.325ZM334.44907 312.8094Q334.44907 314.71564 333.79282 315.65314Q333.1522 316.575 331.76157 316.575Q330.4022 316.575 329.74594 315.66876Q329.0897 314.7625 329.05844 312.95L329.05844 311.5125Q329.05844 309.6219 329.69907 308.71564Q330.35532 307.79376 331.74594 307.79376Q333.12094 307.79376 333.7772 308.6844Q334.43344 309.5594 334.44907 311.40314L334.44907 312.8094ZM333.35532 311.325Q333.35532 309.95 332.9647 309.325Q332.5897 308.6844 331.74594 308.6844Q330.91782 308.6844 330.5272 309.325Q330.1522 309.95 330.1522 311.2469L330.1522 312.98126Q330.1522 314.35626 330.54282 315.02814Q330.94907 315.6844 331.76157 315.6844Q332.55844 315.6844 332.94907 315.0594Q333.3397 314.4344 333.35532 313.10626L333.35532 311.325ZM341.44907 312.8094Q341.44907 314.71564 340.79282 315.65314Q340.1522 316.575 338.76157 316.575Q337.4022 316.575 336.74594 315.66876Q336.0897 314.7625 336.05844 312.95L336.05844 311.5125Q336.05844 309.6219 336.69907 308.71564Q337.35532 307.79376 338.74594 307.79376Q340.12094 307.79376 340.7772 308.6844Q341.43344 309.5594 341.44907 311.40314L341.44907 312.8094ZM340.35532 311.325Q340.35532 309.95 339.9647 309.325Q339.5897 308.6844 338.74594 308.6844Q337.91782 308.6844 337.5272 309.325Q337.1522 309.95 337.1522 311.2469L337.1522 312.98126Q337.1522 314.35626 337.54282 315.02814Q337.94907 315.6844 338.76157 315.6844Q339.55844 315.6844 339.94907 315.0594Q340.3397 314.4344 340.35532 313.10626L340.35532 311.325Z" fill-rule="nonzero"/><path fill="#757575" d="M366.11313 311.65314L366.92563 311.65314Q367.70688 311.6375 368.14438 311.2469Q368.58188 310.85626 368.58188 310.1844Q368.58188 308.6844 367.08188 308.6844Q366.37875 308.6844 365.95688 309.09064Q365.55063 309.4969 365.55063 310.15314L364.45688 310.15314Q364.45688 309.1375 365.19125 308.46564Q365.94125 307.79376 367.08188 307.79376Q368.285 307.79376 368.9725 308.4344Q369.66 309.075 369.66 310.21564Q369.66 310.77814 369.30063 311.29376Q368.94125 311.8094 368.31625 312.075Q369.01938 312.29376 369.39438 312.8094Q369.785 313.325 369.785 314.075Q369.785 315.21564 369.035 315.90314Q368.285 316.575 367.08188 316.575Q365.89438 316.575 365.12875 315.91876Q364.37875 315.2625 364.37875 314.2L365.4725 314.2Q365.4725 314.8719 365.91 315.27814Q366.3475 315.6844 367.0975 315.6844Q367.87875 315.6844 368.285 315.27814Q368.70688 314.85626 368.70688 314.09064Q368.70688 313.35626 368.25375 312.96564Q367.80063 312.5594 366.92563 312.54376L366.11313 312.54376L366.11313 311.65314ZM376.89438 312.8094Q376.89438 314.71564 376.23813 315.65314Q375.5975 316.575 374.20688 316.575Q372.8475 316.575 372.19125 315.66876Q371.535 314.7625 371.50375 312.95L371.50375 311.5125Q371.50375 309.6219 372.14438 308.71564Q372.80063 307.79376 374.19125 307.79376Q375.56625 307.79376 376.2225 308.6844Q376.87875 309.5594 376.89438 311.40314L376.89438 312.8094ZM375.80063 311.325Q375.80063 309.95 375.41 309.325Q375.035 308.6844 374.19125 308.6844Q373.36313 308.6844 372.9725 309.325Q372.5975 309.95 372.5975 311.2469L372.5975 312.98126Q372.5975 314.35626 372.98813 315.02814Q373.39438 315.6844 374.20688 315.6844Q375.00375 315.6844 375.39438 315.0594Q375.785 314.4344 375.80063 313.10626L375.80063 311.325ZM383.89438 312.8094Q383.89438 314.71564 383.23813 315.65314Q382.5975 316.575 381.20688 316.575Q379.8475 316.575 379.19125 315.66876Q378.535 314.7625 378.50375 312.95L378.50375 311.5125Q378.50375 309.6219 379.14438 308.71564Q379.80063 307.79376 381.19125 307.79376Q382.56625 307.79376 383.2225 308.6844Q383.87875 309.5594 383.89438 311.40314L383.89438 312.8094ZM382.80063 311.325Q382.80063 309.95 382.41 309.325Q382.035 308.6844 381.19125 308.6844Q380.36313 308.6844 379.9725 309.325Q379.5975 309.95 379.5975 311.2469L379.5975 312.98126Q379.5975 314.35626 379.98813 315.02814Q380.39438 315.6844 381.20688 315.6844Q382.00375 315.6844 382.39438 315.0594Q382.785 314.4344 382.80063 313.10626L382.80063 311.325ZM390.89438 312.8094Q390.89438 314.71564 390.23813 315.65314Q389.5975 316.575 388.20688 316.575Q386.8475 316.575 386.19125 315.66876Q385.535 314.7625 385.50375 312.95L385.50375 311.5125Q385.50375 309.6219 386.14438 308.71564Q386.80063 307.79376 388.19125 307.79376Q389.56625 307.79376 390.2225 308.6844Q390.87875 309.5594 390.89438 311.40314L390.89438 312.8094ZM389.80063 311.325Q389.80063 309.95 389.41 309.325Q389.035 308.6844 388.19125 308.6844Q387.36313 308.6844 386.9725 309.325Q386.5975 309.95 386.5975 311.2469L386.5975 312.98126Q386.5975 314.35626 386.98813 315.02814Q387.39438 315.6844 388.20688 315.6844Q389.00375 315.6844 389.39438 315.0594Q389.785 314.4344 389.80063 313.10626L389.80063 311.325ZM397.89438 312.8094Q397.89438 314.71564 397.23813 315.65314Q396.5975 316.575 395.20688 316.575Q393.8475 316.575 393.19125 315.66876Q392.535 314.7625 392.50375 312.95L392.50375 311.5125Q392.50375 309.6219 393.14438 308.71564Q393.80063 307.79376 395.19125 307.79376Q396.56625 307.79376 397.2225 308.6844Q397.87875 309.5594 397.89438 311.40314L397.89438 312.8094ZM396.80063 311.325Q396.80063 309.95 396.41 309.325Q396.035 308.6844 395.19125 308.6844Q394.36313 308.6844 393.9725 309.325Q393.5975 309.95 393.5975 311.2469L393.5975 312.98126Q393.5975 314.35626 393.98813 315.02814Q394.39438 315.6844 395.20688 315.6844Q396.00375 315.6844 396.39438 315.0594Q396.785 314.4344 396.80063 313.10626L396.80063 311.325Z" fill-rule="nonzero"/><path stroke="#4285f4" stroke-width="4.0" stroke-linecap="butt" d="M432.41556 62.416668L444.41556 62.416668" fill-rule="nonzero"/><path fill="#757575" d="M453.39993 66.916664L453.39993 58.385414L456.1968 58.385414Q457.58743 58.385414 458.27493 58.96354Q458.97806 59.52604 458.97806 60.65104Q458.97806 61.260414 458.6343 61.729164Q458.30618 62.18229 457.71243 62.43229Q458.41556 62.61979 458.80618 63.166664Q459.21243 63.697914 459.21243 64.447914Q459.21243 65.604164 458.46243 66.260414Q457.72806 66.916664 456.36868 66.916664L453.39993 66.916664ZM454.52493 62.93229L454.52493 65.99479L456.3843 65.99479Q457.18118 65.99479 457.6343 65.58854Q458.08743 65.18229 458.08743 64.46354Q458.08743 62.93229 456.39993 62.93229L454.52493 62.93229ZM454.52493 62.02604L456.22806 62.02604Q456.96243 62.02604 457.39993 61.666664Q457.85306 61.291664 457.85306 60.65104Q457.85306 59.947914 457.4468 59.635414Q457.04056 59.30729 456.1968 59.30729L454.52493 59.30729L454.52493 62.02604ZM462.86868 67.041664Q461.5718 67.041664 460.7593 66.197914Q459.96243 65.33854 459.96243 63.916664L459.96243 63.729164Q459.96243 62.77604 460.3218 62.041664Q460.68118 61.291664 461.3218 60.885414Q461.97806 60.46354 462.72806 60.46354Q463.96243 60.46354 464.64993 61.27604Q465.33743 62.08854 465.33743 63.604164L465.33743 64.05729L461.04056 64.05729Q461.0718 64.99479 461.58743 65.572914Q462.11868 66.15104 462.93118 66.15104Q463.49368 66.15104 463.8843 65.916664Q464.29056 65.68229 464.60306 65.291664L465.2593 65.80729Q464.46243 67.041664 462.86868 67.041664ZM462.72806 61.354164Q462.0718 61.354164 461.61868 61.83854Q461.18118 62.30729 461.08743 63.166664L464.2593 63.166664L464.2593 63.08854Q464.21243 62.260414 463.80618 61.80729Q463.41556 61.354164 462.72806 61.354164ZM467.2593 60.572914L467.29056 61.36979Q468.02493 60.46354 469.1968 60.46354Q471.21243 60.46354 471.22806 62.729164L471.22806 66.916664L470.1343 66.916664L470.1343 62.71354Q470.1343 62.041664 469.8218 61.71354Q469.52493 61.385414 468.86868 61.385414Q468.33743 61.385414 467.93118 61.666664Q467.54056 61.947914 467.3218 62.40104L467.3218 66.916664L466.24368 66.916664L466.24368 60.572914L467.2593 60.572914ZM475.77493 66.15104Q476.35306 66.15104 476.79056 65.80729Q477.22806 65.447914 477.27493 64.916664L478.30618 64.916664Q478.27493 65.46354 477.91556 65.96354Q477.5718 66.447914 476.99368 66.74479Q476.43118 67.041664 475.77493 67.041664Q474.47806 67.041664 473.71243 66.18229Q472.96243 65.30729 472.96243 63.80729L472.96243 63.61979Q472.96243 62.697914 473.29056 61.979164Q473.6343 61.260414 474.2593 60.86979Q474.89993 60.46354 475.77493 60.46354Q476.83743 60.46354 477.54056 61.104164Q478.2593 61.729164 478.30618 62.760414L477.27493 62.760414Q477.22806 62.135414 476.80618 61.74479Q476.3843 61.354164 475.77493 61.354164Q474.9468 61.354164 474.49368 61.947914Q474.04056 62.541664 474.04056 63.666664L474.04056 63.86979Q474.04056 64.96354 474.49368 65.55729Q474.9468 66.15104 475.77493 66.15104ZM480.3218 61.33854Q481.04056 60.46354 482.1968 60.46354Q484.21243 60.46354 484.22806 62.729164L484.22806 66.916664L483.1343 66.916664L483.1343 62.71354Q483.1343 62.041664 482.8218 61.71354Q482.52493 61.385414 481.86868 61.385414Q481.33743 61.385414 480.93118 61.666664Q480.54056 61.947914 480.3218 62.40104L480.3218 66.916664L479.24368 66.916664L479.24368 57.916664L480.3218 57.916664L480.3218 61.33854ZM487.2593 60.572914L487.29056 61.27604Q487.97806 60.46354 489.16556 60.46354Q490.49368 60.46354 490.97806 61.479164Q491.29056 61.02604 491.79056 60.74479Q492.30618 60.46354 492.99368 60.46354Q495.08743 60.46354 495.11868 62.666664L495.11868 66.916664L494.04056 66.916664L494.04056 62.729164Q494.04056 62.05729 493.72806 61.729164Q493.41556 61.385414 492.68118 61.385414Q492.0718 61.385414 491.66556 61.74479Q491.27493 62.104164 491.21243 62.71354L491.21243 66.916664L490.1343 66.916664L490.1343 62.760414Q490.1343 61.385414 488.77493 61.385414Q487.71243 61.385414 487.3218 62.291664L487.3218 66.916664L486.22806 66.916664L486.22806 60.572914L487.2593 60.572914ZM501.14993 66.916664Q501.05618 66.729164 500.99368 66.24479Q500.24368 67.041664 499.1968 67.041664Q498.2593 67.041664 497.64993 66.510414Q497.05618 65.979164 497.05618 65.15104Q497.05618 64.166664 497.80618 63.61979Q498.55618 63.072914 499.93118 63.072914L500.97806 63.072914L500.97806 62.572914Q500.97806 62.010414 500.6343 61.68229Q500.30618 61.33854 499.6343 61.33854Q499.05618 61.33854 498.66556 61.635414Q498.27493 61.916664 498.27493 62.33854L497.18118 62.33854Q497.18118 61.854164 497.5093 61.416664Q497.85306 60.979164 498.43118 60.729164Q499.0093 60.46354 499.6968 60.46354Q500.80618 60.46354 501.41556 61.010414Q502.04056 61.55729 502.0718 62.510414L502.0718 65.43229Q502.0718 66.30729 502.29056 66.822914L502.29056 66.916664L501.14993 66.916664ZM499.35306 66.08854Q499.86868 66.08854 500.3218 65.822914Q500.77493 65.55729 500.97806 65.135414L500.97806 63.83854L500.1343 63.83854Q498.1343 63.83854 498.1343 65.010414Q498.1343 65.510414 498.47806 65.80729Q498.8218 66.08854 499.35306 66.08854ZM507.30618 61.541664Q507.05618 61.510414 506.77493 61.510414Q505.6968 61.510414 505.3218 62.416664L505.3218 66.916664L504.24368 66.916664L504.24368 60.572914L505.29056 60.572914L505.30618 61.30729Q505.83743 60.46354 506.8218 60.46354Q507.1343 60.46354 507.30618 60.541664L507.30618 61.541664ZM510.0093 63.979164L509.3218 64.68229L509.3218 66.916664L508.24368 66.916664L508.24368 57.916664L509.3218 57.916664L509.3218 63.354164L509.89993 62.666664L511.8843 60.572914L513.1968 60.572914L510.72806 63.229164L513.49365 66.916664L512.2124 66.916664L510.0093 63.979164Z" fill-rule="nonzero"/><path stroke="#db4437" stroke-width="4.0" stroke-linecap="butt" d="M432.41556 87.416664L444.41556 87.416664" fill-rule="nonzero"/><path fill="#757575" d="M459.96243 87.93229Q459.96243 89.18229 459.54056 90.11979Q459.11868 91.041664 458.33743 91.541664Q457.5718 92.041664 456.54056 92.041664Q455.54056 92.041664 454.7593 91.541664Q453.97806 91.041664 453.54056 90.135414Q453.11868 89.21354 453.10306 87.99479L453.10306 87.385414Q453.10306 86.15104 453.52493 85.21354Q453.96243 84.27604 454.74368 83.77604Q455.52493 83.260414 456.54056 83.260414Q457.55618 83.260414 458.33743 83.760414Q459.11868 84.260414 459.54056 85.197914Q459.96243 86.135414 459.96243 87.385414L459.96243 87.93229ZM458.85306 87.36979Q458.85306 85.854164 458.24368 85.041664Q457.6343 84.229164 456.54056 84.229164Q455.46243 84.229164 454.85306 85.041664Q454.24368 85.854164 454.22806 87.291664L454.22806 87.93229Q454.22806 89.40104 454.83743 90.24479Q455.46243 91.072914 456.54056 91.072914Q457.6343 91.072914 458.22806 90.291664Q458.83743 89.49479 458.85306 88.010414L458.85306 87.36979ZM467.30618 84.30729L464.55618 84.30729L464.55618 91.916664L463.4468 91.916664L463.4468 84.30729L460.6968 84.30729L460.6968 83.385414L467.30618 83.385414L467.30618 84.30729ZM473.11868 88.15104L469.52493 88.15104L469.52493 91.916664L468.39993 91.916664L468.39993 83.385414L473.6968 83.385414L473.6968 84.30729L469.52493 84.30729L469.52493 87.229164L473.11868 87.229164L473.11868 88.15104ZM483.85306 90.416664L485.0718 85.572914L486.14993 85.572914L484.30618 91.916664L483.43118 91.916664L481.8843 87.104164L480.3843 91.916664L479.5093 91.916664L477.66556 85.572914L478.74368 85.572914L479.99368 90.322914L481.47806 85.572914L482.33743 85.572914L483.85306 90.416664ZM488.41556 91.916664L487.33743 91.916664L487.33743 85.572914L488.41556 85.572914L488.41556 91.916664ZM487.24368 83.90104Q487.24368 83.635414 487.39993 83.447914Q487.5718 83.260414 487.8843 83.260414Q488.1968 83.260414 488.35306 83.447914Q488.52493 83.635414 488.52493 83.90104Q488.52493 84.15104 488.35306 84.33854Q488.1968 84.510414 487.8843 84.510414Q487.5718 84.510414 487.39993 84.33854Q487.24368 84.15104 487.24368 83.90104ZM491.71243 84.041664L491.71243 85.572914L492.8843 85.572914L492.8843 86.416664L491.71243 86.416664L491.71243 90.33854Q491.71243 90.729164 491.86868 90.916664Q492.02493 91.104164 492.39993 91.104164Q492.58743 91.104164 492.91556 91.041664L492.91556 91.916664Q492.49368 92.041664 492.08743 92.041664Q491.36868 92.041664 490.99368 91.604164Q490.61868 91.15104 490.61868 90.33854L490.61868 86.416664L489.46243 86.416664L489.46243 85.572914L490.61868 85.572914L490.61868 84.041664L491.71243 84.041664ZM495.3218 86.33854Q496.04056 85.46354 497.1968 85.46354Q499.21243 85.46354 499.22806 87.729164L499.22806 91.916664L498.1343 91.916664L498.1343 87.71354Q498.1343 87.041664 497.8218 86.71354Q497.52493 86.385414 496.86868 86.385414Q496.33743 86.385414 495.93118 86.666664Q495.54056 86.947914 495.3218 87.40104L495.3218 91.916664L494.24368 91.916664L494.24368 82.916664L495.3218 82.916664L495.3218 86.33854ZM510.68118 89.21354Q510.52493 90.55729 509.68118 91.30729Q508.83743 92.041664 507.4468 92.041664Q505.93118 92.041664 505.02493 90.96354Q504.11868 89.86979 504.11868 88.041664L504.11868 87.229164Q504.11868 86.041664 504.54056 85.135414Q504.96243 84.229164 505.74368 83.74479Q506.52493 83.260414 507.54056 83.260414Q508.89993 83.260414 509.71243 84.02604Q510.54056 84.791664 510.68118 86.11979L509.55618 86.11979Q509.39993 85.104164 508.91556 84.65104Q508.43118 84.197914 507.54056 84.197914Q506.46243 84.197914 505.85306 84.99479Q505.24368 85.791664 505.24368 87.260414L505.24368 88.08854Q505.24368 89.479164 505.8218 90.30729Q506.39993 91.11979 507.4468 91.11979Q508.3843 91.11979 508.8843 90.697914Q509.3843 90.260414 509.55618 89.21354L510.68118 89.21354ZM512.3999 91.916664L512.3999 83.385414L515.1968 83.385414Q516.5874 83.385414 517.2749 83.96354Q517.978 84.52604 517.978 85.65104Q517.978 86.260414 517.6343 86.729164Q517.30615 87.18229 516.7124 87.43229Q517.4155 87.61979 517.80615 88.166664Q518.2124 88.697914 518.2124 89.447914Q518.2124 90.604164 517.4624 91.260414Q516.728 91.916664 515.36865 91.916664L512.3999 91.916664ZM513.5249 87.93229L513.5249 90.99479L515.3843 90.99479Q516.18115 90.99479 516.6343 90.58854Q517.0874 90.18229 517.0874 89.46354Q517.0874 87.93229 515.3999 87.93229L513.5249 87.93229ZM513.5249 87.02604L515.228 87.02604Q515.9624 87.02604 516.3999 86.666664Q516.853 86.291664 516.853 85.65104Q516.853 84.947914 516.4468 84.635414Q516.0405 84.30729 515.1968 84.30729L513.5249 84.30729L513.5249 87.02604ZM525.68115 89.21354Q525.5249 90.55729 524.68115 91.30729Q523.8374 92.041664 522.4468 92.041664Q520.93115 92.041664 520.0249 90.96354Q519.11865 89.86979 519.11865 88.041664L519.11865 87.229164Q519.11865 86.041664 519.5405 85.135414Q519.9624 84.229164 520.74365 83.74479Q521.5249 83.260414 522.5405 83.260414Q523.8999 83.260414 524.7124 84.02604Q525.5405 84.791664 525.68115 86.11979L524.55615 86.11979Q524.3999 85.104164 523.9155 84.65104Q523.43115 84.197914 522.5405 84.197914Q521.4624 84.197914 520.853 84.99479Q520.24365 85.791664 520.24365 87.260414L520.24365 88.08854Q520.24365 89.479164 520.8218 90.30729Q521.3999 91.11979 522.4468 91.11979Q523.3843 91.11979 523.8843 90.697914Q524.3843 90.260414 524.55615 89.21354L525.68115 89.21354Z" fill-rule="nonzero"/><path stroke="#f4b400" stroke-width="4.0" stroke-linecap="butt" d="M432.41556 112.416664L444.41556 112.416664" fill-rule="nonzero"/><path fill="#757575" d="M459.96243 112.93229Q459.96243 114.18229 459.54056 115.11979Q459.11868 116.041664 458.33743 116.541664Q457.5718 117.041664 456.54056 117.041664Q455.54056 117.041664 454.7593 116.541664Q453.97806 116.041664 453.54056 115.135414Q453.11868 114.21354 453.10306 112.99479L453.10306 112.385414Q453.10306 111.15104 453.52493 110.21354Q453.96243 109.27604 454.74368 108.77604Q455.52493 108.260414 456.54056 108.260414Q457.55618 108.260414 458.33743 108.760414Q459.11868 109.260414 459.54056 110.197914Q459.96243 111.135414 459.96243 112.385414L459.96243 112.93229ZM458.85306 112.36979Q458.85306 110.854164 458.24368 110.041664Q457.6343 109.229164 456.54056 109.229164Q455.46243 109.229164 454.85306 110.041664Q454.24368 110.854164 454.22806 112.291664L454.22806 112.93229Q454.22806 114.40104 454.83743 115.24479Q455.46243 116.072914 456.54056 116.072914Q457.6343 116.072914 458.22806 115.291664Q458.83743 114.49479 458.85306 113.010414L458.85306 112.36979ZM467.30618 109.30729L464.55618 109.30729L464.55618 116.916664L463.4468 116.916664L463.4468 109.30729L460.6968 109.30729L460.6968 108.385414L467.30618 108.385414L467.30618 109.30729ZM473.11868 113.15104L469.52493 113.15104L469.52493 116.916664L468.39993 116.916664L468.39993 108.385414L473.6968 108.385414L473.6968 109.30729L469.52493 109.30729L469.52493 112.229164L473.11868 112.229164L473.11868 113.15104ZM483.85306 115.416664L485.0718 110.572914L486.14993 110.572914L484.30618 116.916664L483.43118 116.916664L481.8843 112.104164L480.3843 116.916664L479.5093 116.916664L477.66556 110.572914L478.74368 110.572914L479.99368 115.322914L481.47806 110.572914L482.33743 110.572914L483.85306 115.416664ZM488.41556 116.916664L487.33743 116.916664L487.33743 110.572914L488.41556 110.572914L488.41556 116.916664ZM487.24368 108.90104Q487.24368 108.635414 487.39993 108.447914Q487.5718 108.260414 487.8843 108.260414Q488.1968 108.260414 488.35306 108.447914Q488.52493 108.635414 488.52493 108.90104Q488.52493 109.15104 488.35306 109.33854Q488.1968 109.510414 487.8843 109.510414Q487.5718 109.510414 487.39993 109.33854Q487.24368 109.15104 487.24368 108.90104ZM491.71243 109.041664L491.71243 110.572914L492.8843 110.572914L492.8843 111.416664L491.71243 111.416664L491.71243 115.33854Q491.71243 115.729164 491.86868 115.916664Q492.02493 116.104164 492.39993 116.104164Q492.58743 116.104164 492.91556 116.041664L492.91556 116.916664Q492.49368 117.041664 492.08743 117.041664Q491.36868 117.041664 490.99368 116.604164Q490.61868 116.15104 490.61868 115.33854L490.61868 111.416664L489.46243 111.416664L489.46243 110.572914L490.61868 110.572914L490.61868 109.041664L491.71243 109.041664ZM495.3218 111.33854Q496.04056 110.46354 497.1968 110.46354Q499.21243 110.46354 499.22806 112.729164L499.22806 116.916664L498.1343 116.916664L498.1343 112.71354Q498.1343 112.041664 497.8218 111.71354Q497.52493 111.385414 496.86868 111.385414Q496.33743 111.385414 495.93118 111.666664Q495.54056 111.947914 495.3218 112.40104L495.3218 116.916664L494.24368 116.916664L494.24368 107.916664L495.3218 107.916664L495.3218 111.33854ZM509.22806 112.979164L505.52493 112.979164L505.52493 115.99479L509.8218 115.99479L509.8218 116.916664L504.39993 116.916664L504.39993 108.385414L509.77493 108.385414L509.77493 109.30729L505.52493 109.30729L505.52493 112.05729L509.22806 112.05729L509.22806 112.979164ZM511.39993 116.916664L511.39993 108.385414L514.1968 108.385414Q515.5874 108.385414 516.2749 108.96354Q516.978 109.52604 516.978 110.65104Q516.978 111.260414 516.6343 111.729164Q516.30615 112.18229 515.7124 112.43229Q516.4155 112.61979 516.80615 113.166664Q517.2124 113.697914 517.2124 114.447914Q517.2124 115.604164 516.4624 116.260414Q515.728 116.916664 514.36865 116.916664L511.39993 116.916664ZM512.5249 112.93229L512.5249 115.99479L514.3843 115.99479Q515.18115 115.99479 515.6343 115.58854Q516.0874 115.18229 516.0874 114.46354Q516.0874 112.93229 514.3999 112.93229L512.5249 112.93229ZM512.5249 112.02604L514.228 112.02604Q514.9624 112.02604 515.3999 111.666664Q515.853 111.291664 515.853 110.65104Q515.853 109.947914 515.4468 109.635414Q515.0405 109.30729 514.1968 109.30729L512.5249 109.30729L512.5249 112.02604ZM524.68115 114.21354Q524.5249 115.55729 523.68115 116.30729Q522.8374 117.041664 521.4468 117.041664Q519.93115 117.041664 519.0249 115.96354Q518.11865 114.86979 518.11865 113.041664L518.11865 112.229164Q518.11865 111.041664 518.5405 110.135414Q518.9624 109.229164 519.74365 108.74479Q520.5249 108.260414 521.5405 108.260414Q522.8999 108.260414 523.7124 109.02604Q524.5405 109.791664 524.68115 111.11979L523.55615 111.11979Q523.3999 110.104164 522.9155 109.65104Q522.43115 109.197914 521.5405 109.197914Q520.4624 109.197914 519.853 109.99479Q519.24365 110.791664 519.24365 112.260414L519.24365 113.08854Q519.24365 114.479164 519.8218 115.30729Q520.3999 116.11979 521.4468 116.11979Q522.3843 116.11979 522.8843 115.697914Q523.3843 115.260414 523.55615 114.21354L524.68115 114.21354Z" fill-rule="nonzero"/><path stroke="#0f9d58" stroke-width="4.0" stroke-linecap="butt" d="M432.41556 137.41667L444.41556 137.41667" fill-rule="nonzero"/><path fill="#757575" d="M458.11868 138.15105L454.52493 138.15105L454.52493 141.91667L453.39993 141.91667L453.39993 133.38542L458.6968 133.38542L458.6968 134.3073L454.52493 134.3073L454.52493 137.22917L458.11868 137.22917L458.11868 138.15105ZM464.14993 141.29167Q463.52493 142.04167 462.29056 142.04167Q461.27493 142.04167 460.74368 141.44792Q460.21243 140.85417 460.21243 139.69792L460.21243 135.57292L461.29056 135.57292L461.29056 139.66667Q461.29056 141.1198 462.46243 141.1198Q463.71243 141.1198 464.11868 140.1823L464.11868 135.57292L465.21243 135.57292L465.21243 141.91667L464.18118 141.91667L464.14993 141.29167ZM468.41556 141.91667L467.33743 141.91667L467.33743 132.91667L468.41556 132.91667L468.41556 141.91667ZM471.41556 141.91667L470.33743 141.91667L470.33743 132.91667L471.41556 132.91667L471.41556 141.91667ZM476.39993 141.91667L476.39993 133.38542L478.8218 133.38542Q479.93118 133.38542 480.77493 133.88542Q481.6343 134.3698 482.10306 135.27605Q482.5718 136.1823 482.5718 137.3698L482.5718 137.90105Q482.5718 139.1198 482.10306 140.02605Q481.64993 140.9323 480.77493 141.41667Q479.91556 141.90105 478.77493 141.91667L476.39993 141.91667ZM477.52493 134.3073L477.52493 140.9948L478.71243 140.9948Q480.0093 140.9948 480.72806 140.19792Q481.46243 139.38542 481.46243 137.88542L481.46243 137.38542Q481.46243 135.9323 480.77493 135.13542Q480.10306 134.32292 478.83743 134.3073L477.52493 134.3073ZM485.41556 141.91667L484.33743 141.91667L484.33743 135.57292L485.41556 135.57292L485.41556 141.91667ZM484.24368 133.90105Q484.24368 133.63542 484.39993 133.44792Q484.5718 133.26042 484.8843 133.26042Q485.1968 133.26042 485.35306 133.44792Q485.52493 133.63542 485.52493 133.90105Q485.52493 134.15105 485.35306 134.33855Q485.1968 134.51042 484.8843 134.51042Q484.5718 134.51042 484.39993 134.33855Q484.24368 134.15105 484.24368 133.90105ZM490.93118 140.22917Q490.93118 139.79167 490.58743 139.5573Q490.2593 139.3073 489.43118 139.13542Q488.61868 138.96355 488.1343 138.71355Q487.64993 138.46355 487.41556 138.13542Q487.1968 137.79167 487.1968 137.32292Q487.1968 136.54167 487.85306 136.01042Q488.5093 135.46355 489.54056 135.46355Q490.61868 135.46355 491.27493 136.02605Q491.9468 136.57292 491.9468 137.4323L490.86868 137.4323Q490.86868 136.9948 490.47806 136.6823Q490.10306 136.35417 489.54056 136.35417Q488.9468 136.35417 488.60306 136.6198Q488.27493 136.8698 488.27493 137.27605Q488.27493 137.66667 488.58743 137.8698Q488.89993 138.07292 489.71243 138.26042Q490.52493 138.4323 491.02493 138.6823Q491.52493 138.9323 491.7593 139.29167Q492.0093 139.65105 492.0093 140.15105Q492.0093 141.01042 491.3218 141.52605Q490.64993 142.04167 489.5718 142.04167Q488.80618 142.04167 488.21243 141.77605Q487.6343 141.4948 487.30618 141.01042Q486.97806 140.52605 486.97806 139.96355L488.05618 139.96355Q488.08743 140.51042 488.49368 140.83855Q488.89993 141.15105 489.5718 141.15105Q490.18118 141.15105 490.55618 140.90105Q490.93118 140.65105 490.93118 140.22917ZM495.0093 138.97917L494.3218 139.6823L494.3218 141.91667L493.24368 141.91667L493.24368 132.91667L494.3218 132.91667L494.3218 138.35417L494.89993 137.66667L496.8843 135.57292L498.1968 135.57292L495.72806 138.22917L498.49368 141.91667L497.21243 141.91667L495.0093 138.97917ZM507.22806 137.97917L503.52493 137.97917L503.52493 140.9948L507.8218 140.9948L507.8218 141.91667L502.39993 141.91667L502.39993 133.38542L507.77493 133.38542L507.77493 134.3073L503.52493 134.3073L503.52493 137.0573L507.22806 137.0573L507.22806 137.97917ZM515.68115 139.21355Q515.5249 140.5573 514.68115 141.3073Q513.8374 142.04167 512.4468 142.04167Q510.93118 142.04167 510.02493 140.96355Q509.11868 139.8698 509.11868 138.04167L509.11868 137.22917Q509.11868 136.04167 509.54056 135.13542Q509.96243 134.22917 510.74368 133.7448Q511.52493 133.26042 512.5405 133.26042Q513.8999 133.26042 514.7124 134.02605Q515.5405 134.79167 515.68115 136.1198L514.55615 136.1198Q514.3999 135.10417 513.9155 134.65105Q513.43115 134.19792 512.5405 134.19792Q511.46243 134.19792 510.85306 134.9948Q510.24368 135.79167 510.24368 137.26042L510.24368 138.08855Q510.24368 139.47917 510.8218 140.3073Q511.39993 141.1198 512.4468 141.1198Q513.3843 141.1198 513.8843 140.69792Q514.3843 140.26042 514.55615 139.21355L515.68115 139.21355ZM517.3999 141.91667L517.3999 133.38542L520.1968 133.38542Q521.5874 133.38542 522.2749 133.96355Q522.978 134.52605 522.978 135.65105Q522.978 136.26042 522.6343 136.72917Q522.30615 137.1823 521.7124 137.4323Q522.4155 137.6198 522.80615 138.16667Q523.2124 138.69792 523.2124 139.44792Q523.2124 140.60417 522.4624 141.26042Q521.728 141.91667 520.36865 141.91667L517.3999 141.91667ZM518.5249 137.9323L518.5249 140.9948L520.3843 140.9948Q521.18115 140.9948 521.6343 140.58855Q522.0874 140.1823 522.0874 139.46355Q522.0874 137.9323 520.3999 137.9323L518.5249 137.9323ZM518.5249 137.02605L520.228 137.02605Q520.9624 137.02605 521.3999 136.66667Q521.853 136.29167 521.853 135.65105Q521.853 134.94792 521.4468 134.63542Q521.0405 134.3073 520.1968 134.3073L518.5249 134.3073L518.5249 137.02605Z" fill-rule="nonzero"/><path stroke="#ff6d00" stroke-width="4.0" stroke-linecap="butt" d="M432.41556 162.41667L444.41556 162.41667" fill-rule="nonzero"/><path fill="#757575" d="M458.11868 163.15105L454.52493 163.15105L454.52493 166.91667L453.39993 166.91667L453.39993 158.38542L458.6968 158.38542L458.6968 159.3073L454.52493 159.3073L454.52493 162.22917L458.11868 162.22917L458.11868 163.15105ZM464.14993 166.29167Q463.52493 167.04167 462.29056 167.04167Q461.27493 167.04167 460.74368 166.44792Q460.21243 165.85417 460.21243 164.69792L460.21243 160.57292L461.29056 160.57292L461.29056 164.66667Q461.29056 166.1198 462.46243 166.1198Q463.71243 166.1198 464.11868 165.1823L464.11868 160.57292L465.21243 160.57292L465.21243 166.91667L464.18118 166.91667L464.14993 166.29167ZM468.41556 166.91667L467.33743 166.91667L467.33743 157.91667L468.41556 157.91667L468.41556 166.91667ZM471.41556 166.91667L470.33743 166.91667L470.33743 157.91667L471.41556 157.91667L471.41556 166.91667ZM476.39993 166.91667L476.39993 158.38542L478.8218 158.38542Q479.93118 158.38542 480.77493 158.88542Q481.6343 159.3698 482.10306 160.27605Q482.5718 161.1823 482.5718 162.3698L482.5718 162.90105Q482.5718 164.1198 482.10306 165.02605Q481.64993 165.9323 480.77493 166.41667Q479.91556 166.90105 478.77493 166.91667L476.39993 166.91667ZM477.52493 159.3073L477.52493 165.9948L478.71243 165.9948Q480.0093 165.9948 480.72806 165.19792Q481.46243 164.38542 481.46243 162.88542L481.46243 162.38542Q481.46243 160.9323 480.77493 160.13542Q480.10306 159.32292 478.83743 159.3073L477.52493 159.3073ZM485.41556 166.91667L484.33743 166.91667L484.33743 160.57292L485.41556 160.57292L485.41556 166.91667ZM484.24368 158.90105Q484.24368 158.63542 484.39993 158.44792Q484.5718 158.26042 484.8843 158.26042Q485.1968 158.26042 485.35306 158.44792Q485.52493 158.63542 485.52493 158.90105Q485.52493 159.15105 485.35306 159.33855Q485.1968 159.51042 484.8843 159.51042Q484.5718 159.51042 484.39993 159.33855Q484.24368 159.15105 484.24368 158.90105ZM490.93118 165.22917Q490.93118 164.79167 490.58743 164.5573Q490.2593 164.3073 489.43118 164.13542Q488.61868 163.96355 488.1343 163.71355Q487.64993 163.46355 487.41556 163.13542Q487.1968 162.79167 487.1968 162.32292Q487.1968 161.54167 487.85306 161.01042Q488.5093 160.46355 489.54056 160.46355Q490.61868 160.46355 491.27493 161.02605Q491.9468 161.57292 491.9468 162.4323L490.86868 162.4323Q490.86868 161.9948 490.47806 161.6823Q490.10306 161.35417 489.54056 161.35417Q488.9468 161.35417 488.60306 161.6198Q488.27493 161.8698 488.27493 162.27605Q488.27493 162.66667 488.58743 162.8698Q488.89993 163.07292 489.71243 163.26042Q490.52493 163.4323 491.02493 163.6823Q491.52493 163.9323 491.7593 164.29167Q492.0093 164.65105 492.0093 165.15105Q492.0093 166.01042 491.3218 166.52605Q490.64993 167.04167 489.5718 167.04167Q488.80618 167.04167 488.21243 166.77605Q487.6343 166.4948 487.30618 166.01042Q486.97806 165.52605 486.97806 164.96355L488.05618 164.96355Q488.08743 165.51042 488.49368 165.83855Q488.89993 166.15105 489.5718 166.15105Q490.18118 166.15105 490.55618 165.90105Q490.93118 165.65105 490.93118 165.22917ZM495.0093 163.97917L494.3218 164.6823L494.3218 166.91667L493.24368 166.91667L493.24368 157.91667L494.3218 157.91667L494.3218 163.35417L494.89993 162.66667L496.8843 160.57292L498.1968 160.57292L495.72806 163.22917L498.49368 166.91667L497.21243 166.91667L495.0093 163.97917ZM507.22806 162.97917L503.52493 162.97917L503.52493 165.9948L507.8218 165.9948L507.8218 166.91667L502.39993 166.91667L502.39993 158.38542L507.77493 158.38542L507.77493 159.3073L503.52493 159.3073L503.52493 162.0573L507.22806 162.0573L507.22806 162.97917ZM515.68115 164.21355Q515.5249 165.5573 514.68115 166.3073Q513.8374 167.04167 512.4468 167.04167Q510.93118 167.04167 510.02493 165.96355Q509.11868 164.8698 509.11868 163.04167L509.11868 162.22917Q509.11868 161.04167 509.54056 160.13542Q509.96243 159.22917 510.74368 158.7448Q511.52493 158.26042 512.5405 158.26042Q513.8999 158.26042 514.7124 159.02605Q515.5405 159.79167 515.68115 161.1198L514.55615 161.1198Q514.3999 160.10417 513.9155 159.65105Q513.43115 159.19792 512.5405 159.19792Q511.46243 159.19792 510.85306 159.9948Q510.24368 160.79167 510.24368 162.26042L510.24368 163.08855Q510.24368 164.47917 510.8218 165.3073Q511.39993 166.1198 512.4468 166.1198Q513.3843 166.1198 513.8843 165.69792Q514.3843 165.26042 514.55615 164.21355L515.68115 164.21355ZM517.3999 166.91667L517.3999 158.38542L520.1968 158.38542Q521.5874 158.38542 522.2749 158.96355Q522.978 159.52605 522.978 160.65105Q522.978 161.26042 522.6343 161.72917Q522.30615 162.1823 521.7124 162.4323Q522.4155 162.6198 522.80615 163.16667Q523.2124 163.69792 523.2124 164.44792Q523.2124 165.60417 522.4624 166.26042Q521.728 166.91667 520.36865 166.91667L517.3999 166.91667ZM518.5249 162.9323L518.5249 165.9948L520.3843 165.9948Q521.18115 165.9948 521.6343 165.58855Q522.0874 165.1823 522.0874 164.46355Q522.0874 162.9323 520.3999 162.9323L518.5249 162.9323ZM518.5249 162.02605L520.228 162.02605Q520.9624 162.02605 521.3999 161.66667Q521.853 161.29167 521.853 160.65105Q521.853 159.94792 521.4468 159.63542Q521.0405 159.3073 520.1968 159.3073L518.5249 159.3073L518.5249 162.02605ZM531.1499 166.91667Q531.05615 166.72917 530.99365 166.2448Q530.24365 167.04167 529.1968 167.04167Q528.2593 167.04167 527.6499 166.51042Q527.05615 165.97917 527.05615 165.15105Q527.05615 164.16667 527.80615 163.6198Q528.55615 163.07292 529.93115 163.07292L530.978 163.07292L530.978 162.57292Q530.978 162.01042 530.6343 161.6823Q530.30615 161.33855 529.6343 161.33855Q529.05615 161.33855 528.6655 161.63542Q528.2749 161.91667 528.2749 162.33855L527.18115 162.33855Q527.18115 161.85417 527.5093 161.41667Q527.853 160.97917 528.43115 160.72917Q529.0093 160.46355 529.6968 160.46355Q530.80615 160.46355 531.4155 161.01042Q532.0405 161.5573 532.0718 162.51042L532.0718 165.4323Q532.0718 166.3073 532.2905 166.82292L532.2905 166.91667L531.1499 166.91667ZM529.353 166.08855Q529.86865 166.08855 530.3218 165.82292Q530.7749 165.5573 530.978 165.13542L530.978 163.83855L530.1343 163.83855Q528.1343 163.83855 528.1343 165.01042Q528.1343 165.51042 528.478 165.8073Q528.8218 166.08855 529.353 166.08855ZM535.2593 160.57292L535.2905 161.3698Q536.0249 160.46355 537.1968 160.46355Q539.2124 160.46355 539.228 162.72917L539.228 166.91667L538.1343 166.91667L538.1343 162.71355Q538.1343 162.04167 537.8218 161.71355Q537.5249 161.38542 536.86865 161.38542Q536.3374 161.38542 535.93115 161.66667Q535.5405 161.94792 535.3218 162.40105L535.3218 166.91667L534.24365 166.91667L534.24365 160.57292L535.2593 160.57292ZM540.978 163.69792Q540.978 162.22917 541.6655 161.35417Q542.353 160.46355 543.478 160.46355Q544.5874 160.46355 545.24365 161.21355L545.24365 157.91667L546.3218 157.91667L546.3218 166.91667L545.3218 166.91667L545.2749 166.22917Q544.61865 167.04167 543.4624 167.04167Q542.36865 167.04167 541.6655 166.13542Q540.978 165.22917 540.978 163.77605L540.978 163.69792ZM542.05615 163.82292Q542.05615 164.90105 542.49365 165.51042Q542.9468 166.1198 543.728 166.1198Q544.7593 166.1198 545.24365 165.1823L545.24365 162.27605Q544.7593 161.38542 543.74365 161.38542Q542.9468 161.38542 542.49365 161.9948Q542.05615 162.60417 542.05615 163.82292ZM557.9624 162.9323Q557.9624 164.1823 557.5405 165.1198Q557.11865 166.04167 556.3374 166.54167Q555.5718 167.04167 554.5405 167.04167Q553.5405 167.04167 552.7593 166.54167Q551.978 166.04167 551.5405 165.13542Q551.11865 164.21355 551.103 162.9948L551.103 162.38542Q551.103 161.15105 551.5249 160.21355Q551.9624 159.27605 552.74365 158.77605Q553.5249 158.26042 554.5405 158.26042Q555.55615 158.26042 556.3374 158.76042Q557.11865 159.26042 557.5405 160.19792Q557.9624 161.13542 557.9624 162.38542L557.9624 162.9323ZM556.853 162.3698Q556.853 160.85417 556.24365 160.04167Q555.6343 159.22917 554.5405 159.22917Q553.4624 159.22917 552.853 160.04167Q552.24365 160.85417 552.228 162.29167L552.228 162.9323Q552.228 164.40105 552.8374 165.2448Q553.4624 166.07292 554.5405 166.07292Q555.6343 166.07292 556.228 165.29167Q556.8374 164.4948 556.853 163.01042L556.853 162.3698ZM565.30615 159.3073L562.55615 159.3073L562.55615 166.91667L561.4468 166.91667L561.4468 159.3073L558.6968 159.3073L558.6968 158.38542L565.30615 158.38542L565.30615 159.3073ZM571.11865 163.15105L567.5249 163.15105L567.5249 166.91667L566.3999 166.91667L566.3999 158.38542L571.6968 158.38542L571.6968 159.3073L567.5249 159.3073L567.5249 162.22917L571.11865 162.22917L571.11865 163.15105Z" fill-rule="nonzero"/><path fill="#757575" d="M459.68118 179.21355Q459.52493 180.5573 458.68118 181.3073Q457.83743 182.04167 456.4468 182.04167Q454.93118 182.04167 454.02493 180.96355Q453.11868 179.8698 453.11868 178.04167L453.11868 177.22917Q453.11868 176.04167 453.54056 175.13542Q453.96243 174.22917 454.74368 173.7448Q455.52493 173.26042 456.54056 173.26042Q457.89993 173.26042 458.71243 174.02605Q459.54056 174.79167 459.68118 176.1198L458.55618 176.1198Q458.39993 175.10417 457.91556 174.65105Q457.43118 174.19792 456.54056 174.19792Q455.46243 174.19792 454.85306 174.9948Q454.24368 175.79167 454.24368 177.26042L454.24368 178.08855Q454.24368 179.47917 454.8218 180.3073Q455.39993 181.1198 456.4468 181.1198Q457.3843 181.1198 457.8843 180.69792Q458.3843 180.26042 458.55618 179.21355L459.68118 179.21355ZM461.39993 181.91667L461.39993 173.38542L464.1968 173.38542Q465.58743 173.38542 466.27493 173.96355Q466.97806 174.52605 466.97806 175.65105Q466.97806 176.26042 466.6343 176.72917Q466.30618 177.1823 465.71243 177.4323Q466.41556 177.6198 466.80618 178.16667Q467.21243 178.69792 467.21243 179.44792Q467.21243 180.60417 466.46243 181.26042Q465.72806 181.91667 464.36868 181.91667L461.39993 181.91667ZM462.52493 177.9323L462.52493 180.9948L464.3843 180.9948Q465.18118 180.9948 465.6343 180.58855Q466.08743 180.1823 466.08743 179.46355Q466.08743 177.9323 464.39993 177.9323L462.52493 177.9323ZM462.52493 177.02605L464.22806 177.02605Q464.96243 177.02605 465.39993 176.66667Q465.85306 176.29167 465.85306 175.65105Q465.85306 174.94792 465.4468 174.63542Q465.04056 174.3073 464.1968 174.3073L462.52493 174.3073L462.52493 177.02605ZM474.68118 179.21355Q474.52493 180.5573 473.68118 181.3073Q472.83743 182.04167 471.4468 182.04167Q469.93118 182.04167 469.02493 180.96355Q468.11868 179.8698 468.11868 178.04167L468.11868 177.22917Q468.11868 176.04167 468.54056 175.13542Q468.96243 174.22917 469.74368 173.7448Q470.52493 173.26042 471.54056 173.26042Q472.89993 173.26042 473.71243 174.02605Q474.54056 174.79167 474.68118 176.1198L473.55618 176.1198Q473.39993 175.10417 472.91556 174.65105Q472.43118 174.19792 471.54056 174.19792Q470.46243 174.19792 469.85306 174.9948Q469.24368 175.79167 469.24368 177.26042L469.24368 178.08855Q469.24368 179.47917 469.8218 180.3073Q470.39993 181.1198 471.4468 181.1198Q472.3843 181.1198 472.8843 180.69792Q473.3843 180.26042 473.55618 179.21355L474.68118 179.21355Z" fill-rule="nonzero"/><path stroke="#46bdc6" stroke-width="4.0" stroke-linecap="butt" d="M432.41556 202.41667L444.41556 202.41667" fill-rule="nonzero"/><path fill="#757575" d="M458.11868 203.15105L454.52493 203.15105L454.52493 206.91667L453.39993 206.91667L453.39993 198.38542L458.6968 198.38542L458.6968 199.3073L454.52493 199.3073L454.52493 202.22917L458.11868 202.22917L458.11868 203.15105ZM464.14993 206.29167Q463.52493 207.04167 462.29056 207.04167Q461.27493 207.04167 460.74368 206.44792Q460.21243 205.85417 460.21243 204.69792L460.21243 200.57292L461.29056 200.57292L461.29056 204.66667Q461.29056 206.1198 462.46243 206.1198Q463.71243 206.1198 464.11868 205.1823L464.11868 200.57292L465.21243 200.57292L465.21243 206.91667L464.18118 206.91667L464.14993 206.29167ZM468.41556 206.91667L467.33743 206.91667L467.33743 197.91667L468.41556 197.91667L468.41556 206.91667ZM471.41556 206.91667L470.33743 206.91667L470.33743 197.91667L471.41556 197.91667L471.41556 206.91667ZM476.39993 206.91667L476.39993 198.38542L478.8218 198.38542Q479.93118 198.38542 480.77493 198.88542Q481.6343 199.3698 482.10306 200.27605Q482.5718 201.1823 482.5718 202.3698L482.5718 202.90105Q482.5718 204.1198 482.10306 205.02605Q481.64993 205.9323 480.77493 206.41667Q479.91556 206.90105 478.77493 206.91667L476.39993 206.91667ZM477.52493 199.3073L477.52493 205.9948L478.71243 205.9948Q480.0093 205.9948 480.72806 205.19792Q481.46243 204.38542 481.46243 202.88542L481.46243 202.38542Q481.46243 200.9323 480.77493 200.13542Q480.10306 199.32292 478.83743 199.3073L477.52493 199.3073ZM485.41556 206.91667L484.33743 206.91667L484.33743 200.57292L485.41556 200.57292L485.41556 206.91667ZM484.24368 198.90105Q484.24368 198.63542 484.39993 198.44792Q484.5718 198.26042 484.8843 198.26042Q485.1968 198.26042 485.35306 198.44792Q485.52493 198.63542 485.52493 198.90105Q485.52493 199.15105 485.35306 199.33855Q485.1968 199.51042 484.8843 199.51042Q484.5718 199.51042 484.39993 199.33855Q484.24368 199.15105 484.24368 198.90105ZM490.93118 205.22917Q490.93118 204.79167 490.58743 204.5573Q490.2593 204.3073 489.43118 204.13542Q488.61868 203.96355 488.1343 203.71355Q487.64993 203.46355 487.41556 203.13542Q487.1968 202.79167 487.1968 202.32292Q487.1968 201.54167 487.85306 201.01042Q488.5093 200.46355 489.54056 200.46355Q490.61868 200.46355 491.27493 201.02605Q491.9468 201.57292 491.9468 202.4323L490.86868 202.4323Q490.86868 201.9948 490.47806 201.6823Q490.10306 201.35417 489.54056 201.35417Q488.9468 201.35417 488.60306 201.6198Q488.27493 201.8698 488.27493 202.27605Q488.27493 202.66667 488.58743 202.8698Q488.89993 203.07292 489.71243 203.26042Q490.52493 203.4323 491.02493 203.6823Q491.52493 203.9323 491.7593 204.29167Q492.0093 204.65105 492.0093 205.15105Q492.0093 206.01042 491.3218 206.52605Q490.64993 207.04167 489.5718 207.04167Q488.80618 207.04167 488.21243 206.77605Q487.6343 206.4948 487.30618 206.01042Q486.97806 205.52605 486.97806 204.96355L488.05618 204.96355Q488.08743 205.51042 488.49368 205.83855Q488.89993 206.15105 489.5718 206.15105Q490.18118 206.15105 490.55618 205.90105Q490.93118 205.65105 490.93118 205.22917ZM495.0093 203.97917L494.3218 204.6823L494.3218 206.91667L493.24368 206.91667L493.24368 197.91667L494.3218 197.91667L494.3218 203.35417L494.89993 202.66667L496.8843 200.57292L498.1968 200.57292L495.72806 203.22917L498.49368 206.91667L497.21243 206.91667L495.0093 203.97917ZM506.14993 206.91667Q506.05618 206.72917 505.99368 206.2448Q505.24368 207.04167 504.1968 207.04167Q503.2593 207.04167 502.64993 206.51042Q502.05618 205.97917 502.05618 205.15105Q502.05618 204.16667 502.80618 203.6198Q503.55618 203.07292 504.93118 203.07292L505.97806 203.07292L505.97806 202.57292Q505.97806 202.01042 505.6343 201.6823Q505.30618 201.33855 504.6343 201.33855Q504.05618 201.33855 503.66556 201.63542Q503.27493 201.91667 503.27493 202.33855L502.18118 202.33855Q502.18118 201.85417 502.5093 201.41667Q502.85306 200.97917 503.43118 200.72917Q504.0093 200.46355 504.6968 200.46355Q505.80618 200.46355 506.41556 201.01042Q507.04056 201.5573 507.0718 202.51042L507.0718 205.4323Q507.0718 206.3073 507.29056 206.82292L507.29056 206.91667L506.14993 206.91667ZM504.35306 206.08855Q504.86868 206.08855 505.3218 205.82292Q505.77493 205.5573 505.97806 205.13542L505.97806 203.83855L505.1343 203.83855Q503.1343 203.83855 503.1343 205.01042Q503.1343 205.51042 503.47806 205.8073Q503.8218 206.08855 504.35306 206.08855ZM510.2593 200.57292L510.29056 201.3698Q511.02493 200.46355 512.1968 200.46355Q514.2124 200.46355 514.228 202.72917L514.228 206.91667L513.1343 206.91667L513.1343 202.71355Q513.1343 202.04167 512.8218 201.71355Q512.5249 201.38542 511.86868 201.38542Q511.33743 201.38542 510.93118 201.66667Q510.54056 201.94792 510.3218 202.40105L510.3218 206.91667L509.24368 206.91667L509.24368 200.57292L510.2593 200.57292ZM515.978 203.69792Q515.978 202.22917 516.6655 201.35417Q517.353 200.46355 518.478 200.46355Q519.5874 200.46355 520.24365 201.21355L520.24365 197.91667L521.3218 197.91667L521.3218 206.91667L520.3218 206.91667L520.2749 206.22917Q519.61865 207.04167 518.4624 207.04167Q517.36865 207.04167 516.6655 206.13542Q515.978 205.22917 515.978 203.77605L515.978 203.69792ZM517.05615 203.82292Q517.05615 204.90105 517.49365 205.51042Q517.9468 206.1198 518.728 206.1198Q519.7593 206.1198 520.24365 205.1823L520.24365 202.27605Q519.7593 201.38542 518.74365 201.38542Q517.9468 201.38542 517.49365 201.9948Q517.05615 202.60417 517.05615 203.82292ZM532.9624 202.9323Q532.9624 204.1823 532.5405 205.1198Q532.11865 206.04167 531.3374 206.54167Q530.5718 207.04167 529.5405 207.04167Q528.5405 207.04167 527.7593 206.54167Q526.978 206.04167 526.5405 205.13542Q526.11865 204.21355 526.103 202.9948L526.103 202.38542Q526.103 201.15105 526.5249 200.21355Q526.9624 199.27605 527.74365 198.77605Q528.5249 198.26042 529.5405 198.26042Q530.55615 198.26042 531.3374 198.76042Q532.11865 199.26042 532.5405 200.19792Q532.9624 201.13542 532.9624 202.38542L532.9624 202.9323ZM531.853 202.3698Q531.853 200.85417 531.24365 200.04167Q530.6343 199.22917 529.5405 199.22917Q528.4624 199.22917 527.853 200.04167Q527.24365 200.85417 527.228 202.29167L527.228 202.9323Q527.228 204.40105 527.8374 205.2448Q528.4624 206.07292 529.5405 206.07292Q530.6343 206.07292 531.228 205.29167Q531.8374 204.4948 531.853 203.01042L531.853 202.3698ZM540.30615 199.3073L537.55615 199.3073L537.55615 206.91667L536.4468 206.91667L536.4468 199.3073L533.6968 199.3073L533.6968 198.38542L540.30615 198.38542L540.30615 199.3073ZM546.11865 203.15105L542.5249 203.15105L542.5249 206.91667L541.3999 206.91667L541.3999 198.38542L546.6968 198.38542L546.6968 199.3073L542.5249 199.3073L542.5249 202.22917L546.11865 202.22917L546.11865 203.15105ZM557.68115 204.21355Q557.5249 205.5573 556.68115 206.3073Q555.8374 207.04167 554.4468 207.04167Q552.93115 207.04167 552.0249 205.96355Q551.11865 204.8698 551.11865 203.04167L551.11865 202.22917Q551.11865 201.04167 551.5405 200.13542Q551.9624 199.22917 552.74365 198.7448Q553.5249 198.26042 554.5405 198.26042Q555.8999 198.26042 556.7124 199.02605Q557.5405 199.79167 557.68115 201.1198L556.55615 201.1198Q556.3999 200.10417 555.9155 199.65105Q555.43115 199.19792 554.5405 199.19792Q553.4624 199.19792 552.853 199.9948Q552.24365 200.79167 552.24365 202.26042L552.24365 203.08855Q552.24365 204.47917 552.8218 205.3073Q553.3999 206.1198 554.4468 206.1198Q555.3843 206.1198 555.8843 205.69792Q556.3843 205.26042 556.55615 204.21355L557.68115 204.21355ZM559.3999 206.91667L559.3999 198.38542L562.1968 198.38542Q563.5874 198.38542 564.2749 198.96355Q564.978 199.52605 564.978 200.65105Q564.978 201.26042 564.6343 201.72917Q564.30615 202.1823 563.7124 202.4323Q564.4155 202.6198 564.80615 203.16667Q565.2124 203.69792 565.2124 204.44792Q565.2124 205.60417 564.4624 206.26042Q563.728 206.91667 562.36865 206.91667L559.3999 206.91667ZM560.5249 202.9323L560.5249 205.9948L562.3843 205.9948Q563.18115 205.9948 563.6343 205.58855Q564.0874 205.1823 564.0874 204.46355Q564.0874 202.9323 562.3999 202.9323L560.5249 202.9323ZM560.5249 202.02605L562.228 202.02605Q562.9624 202.02605 563.3999 201.66667Q563.853 201.29167 563.853 200.65105Q563.853 199.94792 563.4468 199.63542Q563.0405 199.3073 562.1968 199.3073L560.5249 199.3073L560.5249 202.02605ZM572.68115 204.21355Q572.5249 205.5573 571.68115 206.3073Q570.8374 207.04167 569.4468 207.04167Q567.93115 207.04167 567.0249 205.96355Q566.11865 204.8698 566.11865 203.04167L566.11865 202.22917Q566.11865 201.04167 566.5405 200.13542Q566.9624 199.22917 567.74365 198.7448Q568.5249 198.26042 569.5405 198.26042Q570.8999 198.26042 571.7124 199.02605Q572.5405 199.79167 572.68115 201.1198L571.55615 201.1198Q571.3999 200.10417 570.9155 199.65105Q570.43115 199.19792 569.5405 199.19792Q568.4624 199.19792 567.853 199.9948Q567.24365 200.79167 567.24365 202.26042L567.24365 203.08855Q567.24365 204.47917 567.8218 205.3073Q568.3999 206.1198 569.4468 206.1198Q570.3843 206.1198 570.8843 205.69792Q571.3843 205.26042 571.55615 204.21355L572.68115 204.21355Z" fill-rule="nonzero"/><path fill="#757575" d="M24.39375 31.20625Q21.971874 30.51875 20.878124 29.51875Q19.784374 28.503124 19.784374 27.01875Q19.784374 25.33125 21.128124 24.2375Q22.471874 23.128124 24.6125 23.128124Q26.08125 23.128124 27.221874 23.70625Q28.378124 24.26875 29.003124 25.26875Q29.628124 26.253124 29.628124 27.440624L27.753124 27.440624Q27.753124 26.159374 26.925 25.425Q26.1125 24.675 24.6125 24.675Q23.221874 24.675 22.440624 25.284374Q21.675 25.89375 21.675 26.9875Q21.675 27.846874 22.409374 28.45625Q23.14375 29.05 24.909374 29.55Q26.690624 30.05 27.690624 30.659374Q28.690624 31.253124 29.175 32.05Q29.659374 32.846874 29.659374 33.940624Q29.659374 35.659374 28.315624 36.70625Q26.971874 37.753124 24.70625 37.753124Q23.253124 37.753124 21.971874 37.190624Q20.70625 36.628124 20.01875 35.659374Q19.33125 34.675 19.33125 33.425L21.221874 33.425Q21.221874 34.721874 22.175 35.471874Q23.128124 36.20625 24.70625 36.20625Q26.190624 36.20625 26.9875 35.6125Q27.784374 35.003124 27.784374 33.95625Q27.784374 32.909374 27.05 32.346874Q26.315624 31.76875 24.39375 31.20625ZM40.846874 32.378124Q40.846874 34.8 39.7375 36.284374Q38.64375 37.753124 36.753124 37.753124Q34.83125 37.753124 33.721874 36.51875L33.721874 41.6125L31.925 41.6125L31.925 26.9875L33.565624 26.9875L33.659374 28.159374Q34.753124 26.784374 36.721874 26.784374Q38.628124 26.784374 39.7375 28.221874Q40.846874 29.659374 40.846874 32.221874L40.846874 32.378124ZM39.034374 32.175Q39.034374 30.39375 38.26875 29.3625Q37.51875 28.315624 36.190624 28.315624Q34.55 28.315624 33.721874 29.76875L33.721874 34.83125Q34.534374 36.26875 36.20625 36.26875Q37.503124 36.26875 38.26875 35.2375Q39.034374 34.20625 39.034374 32.175ZM49.440624 37.55Q49.284374 37.2375 49.190624 36.440624Q47.925 37.753124 46.175 37.753124Q44.6125 37.753124 43.6125 36.8625Q42.6125 35.971874 42.6125 34.6125Q42.6125 32.971874 43.8625 32.065624Q45.128124 31.14375 47.39375 31.14375L49.159374 31.14375L49.159374 30.315624Q49.159374 29.3625 48.58125 28.8Q48.01875 28.2375 46.925 28.2375Q45.95625 28.2375 45.3 28.7375Q44.64375 29.221874 44.64375 29.909374L42.83125 29.909374Q42.83125 29.128124 43.39375 28.39375Q43.95625 27.64375 44.909374 27.221874Q45.878124 26.784374 47.034374 26.784374Q48.8625 26.784374 49.89375 27.70625Q50.925 28.6125 50.971874 30.221874L50.971874 35.08125Q50.971874 36.534374 51.33125 37.39375L51.33125 37.55L49.440624 37.55ZM46.440624 36.175Q47.3 36.175 48.05 35.7375Q48.815624 35.3 49.159374 34.596874L49.159374 32.425L47.7375 32.425Q44.425 32.425 44.425 34.3625Q44.425 35.221874 44.9875 35.70625Q45.55 36.175 46.440624 36.175ZM59.01875 28.596874Q58.6125 28.534374 58.14375 28.534374Q56.3625 28.534374 55.721874 30.05L55.721874 37.55L53.925 37.55L53.925 26.9875L55.675 26.9875L55.70625 28.20625Q56.596874 26.784374 58.221874 26.784374Q58.753124 26.784374 59.01875 26.925L59.01875 28.596874ZM67.06563 34.753124Q67.06563 34.01875 66.51875 33.6125Q65.97188 33.20625 64.59688 32.909374Q63.221874 32.6125 62.409374 32.20625Q61.6125 31.8 61.221874 31.2375Q60.846874 30.659374 60.846874 29.878124Q60.846874 28.58125 61.940624 27.690624Q63.034374 26.784374 64.75313 26.784374Q66.55 26.784374 67.65938 27.721874Q68.78438 28.64375 68.78438 30.08125L66.95625 30.08125Q66.95625 29.346874 66.33125 28.815624Q65.70625 28.26875 64.75313 28.26875Q63.753124 28.26875 63.190624 28.70625Q62.64375 29.128124 62.64375 29.83125Q62.64375 30.471874 63.159374 30.815624Q63.675 31.14375 65.03438 31.45625Q66.39375 31.753124 67.22188 32.175Q68.06563 32.58125 68.47188 33.175Q68.87813 33.76875 68.87813 34.6125Q68.87813 36.034374 67.7375 36.89375Q66.6125 37.753124 64.8 37.753124Q63.534374 37.753124 62.55 37.3Q61.58125 36.846874 61.01875 36.05Q60.471874 35.2375 60.471874 34.3L62.284374 34.3Q62.33125 35.20625 63.003124 35.7375Q63.690624 36.26875 64.8 36.26875Q65.83125 36.26875 66.44063 35.8625Q67.06563 35.440624 67.06563 34.753124ZM75.3 37.753124Q73.15938 37.753124 71.8 36.346874Q70.45625 34.925 70.45625 32.565624L70.45625 32.221874Q70.45625 30.659374 71.05 29.425Q71.65938 28.190624 72.7375 27.4875Q73.81563 26.784374 75.08125 26.784374Q77.14375 26.784374 78.28438 28.14375Q79.425 29.503124 79.425 32.034374L79.425 32.784374L72.26875 32.784374Q72.3 34.346874 73.175 35.315624Q74.05 36.26875 75.39375 36.26875Q76.3625 36.26875 77.01875 35.878124Q77.69063 35.4875 78.19063 34.846874L79.28438 35.70625Q77.95625 37.753124 75.3 37.753124ZM75.08125 28.26875Q73.9875 28.26875 73.2375 29.065624Q72.50313 29.8625 72.33125 31.3L77.6125 31.3L77.6125 31.159374Q77.53438 29.784374 76.8625 29.034374Q76.20625 28.26875 75.08125 28.26875ZM89.3625 29.565624L90.72188 29.565624Q92.00313 29.534374 92.72188 28.89375Q93.45625 28.2375 93.45625 27.1125Q93.45625 24.6125 90.97188 24.6125Q89.8 24.6125 89.09688 25.284374Q88.40938 25.95625 88.40938 27.065624L86.59688 27.065624Q86.59688 25.378124 87.83125 24.253124Q89.06563 23.128124 90.97188 23.128124Q92.9875 23.128124 94.12813 24.20625Q95.26875 25.26875 95.26875 27.159374Q95.26875 28.08125 94.65938 28.95625Q94.06563 29.83125 93.03438 30.253124Q94.20625 30.628124 94.84688 31.4875Q95.4875 32.346874 95.4875 33.58125Q95.4875 35.503124 94.2375 36.628124Q92.9875 37.753124 90.97188 37.753124Q88.97188 37.753124 87.72188 36.675Q86.47188 35.58125 86.47188 33.8L88.28438 33.8Q88.28438 34.925 89.01875 35.596874Q89.75313 36.26875 90.9875 36.26875Q92.28438 36.26875 92.97188 35.596874Q93.675 34.909374 93.675 33.628124Q93.675 32.378124 92.90938 31.721874Q92.15938 31.05 90.72188 31.034374L89.3625 31.034374L89.3625 29.565624ZM107.05 37.55L97.7375 37.55L97.7375 36.253124L102.65938 30.784374Q103.75313 29.534374 104.15938 28.76875Q104.58125 27.9875 104.58125 27.159374Q104.58125 26.05 103.90938 25.33125Q103.2375 24.6125 102.1125 24.6125Q100.75313 24.6125 100.00313 25.39375Q99.26875 26.159374 99.26875 27.51875L97.45625 27.51875Q97.45625 25.55 98.72188 24.346874Q99.9875 23.128124 102.1125 23.128124Q104.09688 23.128124 105.2375 24.175Q106.39375 25.221874 106.39375 26.940624Q106.39375 29.05 103.72188 31.940624L99.90938 36.08125L107.05 36.08125L107.05 37.55ZM111.62813 23.33125L116.26875 34.925L120.925 23.33125L123.34688 23.33125L123.34688 37.55L121.47188 37.55L121.47188 32.01875L121.65938 26.034374L116.9875 37.55L115.55 37.55L110.89375 26.065624L111.08125 32.01875L111.08125 37.55L109.20625 37.55L109.20625 23.33125L111.62813 23.33125ZM126.20625 37.55L126.20625 23.33125L130.84688 23.33125Q133.15938 23.33125 134.33125 24.284374Q135.50313 25.2375 135.50313 27.1125Q135.50313 28.1125 134.925 28.878124Q134.3625 29.64375 133.39375 30.065624Q134.53438 30.39375 135.20625 31.3Q135.87813 32.190624 135.87813 33.440624Q135.87813 35.3625 134.62813 36.45625Q133.39375 37.55 131.12813 37.55L126.20625 37.55ZM128.08125 30.89375L128.08125 36.01875L131.175 36.01875Q132.4875 36.01875 133.2375 35.346874Q133.9875 34.659374 133.9875 33.471874Q133.9875 30.89375 131.20625 30.89375L128.08125 30.89375ZM128.08125 29.39375L130.90938 29.39375Q132.14375 29.39375 132.87813 28.784374Q133.6125 28.159374 133.6125 27.1125Q133.6125 25.940624 132.925 25.409374Q132.25313 24.878124 130.84688 24.878124L128.08125 24.878124L128.08125 29.39375ZM151.05 31.26875L145.08125 31.26875L145.08125 37.55L143.20625 37.55L143.20625 23.33125L152.00313 23.33125L152.00313 24.878124L145.08125 24.878124L145.08125 29.7375L151.05 29.7375L151.05 31.26875ZM155.87813 37.55L154.08125 37.55L154.08125 26.9875L155.87813 26.9875L155.87813 37.55ZM153.925 24.175Q153.925 23.7375 154.19063 23.440624Q154.47188 23.128124 154.9875 23.128124Q155.51875 23.128124 155.78438 23.440624Q156.06563 23.7375 156.06563 24.175Q156.06563 24.6125 155.78438 24.909374Q155.51875 25.20625 154.9875 25.20625Q154.47188 25.20625 154.19063 24.909374Q153.925 24.6125 153.925 24.175ZM160.87813 37.55L159.08125 37.55L159.08125 22.55L160.87813 22.55L160.87813 37.55ZM168.3 37.753124Q166.15938 37.753124 164.8 36.346874Q163.45625 34.925 163.45625 32.565624L163.45625 32.221874Q163.45625 30.659374 164.05 29.425Q164.65938 28.190624 165.7375 27.4875Q166.81563 26.784374 168.08125 26.784374Q170.14375 26.784374 171.28438 28.14375Q172.425 29.503124 172.425 32.034374L172.425 32.784374L165.26875 32.784374Q165.3 34.346874 166.175 35.315624Q167.05 36.26875 168.39375 36.26875Q169.3625 36.26875 170.01875 35.878124Q170.69063 35.4875 171.19063 34.846874L172.28438 35.70625Q170.95625 37.753124 168.3 37.753124ZM168.08125 28.26875Q166.9875 28.26875 166.2375 29.065624Q165.50313 29.8625 165.33125 31.3L170.6125 31.3L170.6125 31.159374Q170.53438 29.784374 169.8625 29.034374Q169.20625 28.26875 168.08125 28.26875ZM181.06563 34.753124Q181.06563 34.01875 180.51875 33.6125Q179.97188 33.20625 178.59688 32.909374Q177.22188 32.6125 176.40938 32.20625Q175.6125 31.8 175.22188 31.2375Q174.84688 30.659374 174.84688 29.878124Q174.84688 28.58125 175.94063 27.690624Q177.03438 26.784374 178.75313 26.784374Q180.55 26.784374 181.65938 27.721874Q182.78438 28.64375 182.78438 30.08125L180.95625 30.08125Q180.95625 29.346874 180.33125 28.815624Q179.70625 28.26875 178.75313 28.26875Q177.75313 28.26875 177.19063 28.70625Q176.64375 29.128124 176.64375 29.83125Q176.64375 30.471874 177.15938 30.815624Q177.675 31.14375 179.03438 31.45625Q180.39375 31.753124 181.22188 32.175Q182.06563 32.58125 182.47188 33.175Q182.87813 33.76875 182.87813 34.6125Q182.87813 36.034374 181.7375 36.89375Q180.6125 37.753124 178.8 37.753124Q177.53438 37.753124 176.55 37.3Q175.58125 36.846874 175.01875 36.05Q174.47188 35.2375 174.47188 34.3L176.28438 34.3Q176.33125 35.20625 177.00313 35.7375Q177.69063 36.26875 178.8 36.26875Q179.83125 36.26875 180.44063 35.8625Q181.06563 35.440624 181.06563 34.753124ZM188.37813 34.909374L190.83125 26.9875L192.76875 26.9875L188.51875 39.175Q187.53438 41.815624 185.39375 41.815624L185.05 41.784374L184.37813 41.659374L184.37813 40.190624L184.8625 40.2375Q185.78438 40.2375 186.28438 39.8625Q186.8 39.4875 187.12813 38.503124L187.53438 37.425L183.76875 26.9875L185.7375 26.9875L188.37813 34.909374ZM200.06563 34.753124Q200.06563 34.01875 199.51875 33.6125Q198.97188 33.20625 197.59688 32.909374Q196.22188 32.6125 195.40938 32.20625Q194.6125 31.8 194.22188 31.2375Q193.84688 30.659374 193.84688 29.878124Q193.84688 28.58125 194.94063 27.690624Q196.03438 26.784374 197.75313 26.784374Q199.55 26.784374 200.65938 27.721874Q201.78438 28.64375 201.78438 30.08125L199.95625 30.08125Q199.95625 29.346874 199.33125 28.815624Q198.70625 28.26875 197.75313 28.26875Q196.75313 28.26875 196.19063 28.70625Q195.64375 29.128124 195.64375 29.83125Q195.64375 30.471874 196.15938 30.815624Q196.675 31.14375 198.03438 31.45625Q199.39375 31.753124 200.22188 32.175Q201.06563 32.58125 201.47188 33.175Q201.87813 33.76875 201.87813 34.6125Q201.87813 36.034374 200.7375 36.89375Q199.6125 37.753124 197.8 37.753124Q196.53438 37.753124 195.55 37.3Q194.58125 36.846874 194.01875 36.05Q193.47188 35.2375 193.47188 34.3L195.28438 34.3Q195.33125 35.20625 196.00313 35.7375Q196.69063 36.26875 197.8 36.26875Q198.83125 36.26875 199.44063 35.8625Q200.06563 35.440624 200.06563 34.753124ZM206.3625 24.425L206.3625 26.9875L208.34688 26.9875L208.34688 28.378124L206.3625 28.378124L206.3625 34.925Q206.3625 35.565624 206.62813 35.89375Q206.89375 36.20625 207.53438 36.20625Q207.84688 36.20625 208.39375 36.08125L208.39375 37.55Q207.675 37.753124 207.00313 37.753124Q205.8 37.753124 205.175 37.01875Q204.56563 36.284374 204.56563 34.925L204.56563 28.378124L202.64375 28.378124L202.64375 26.9875L204.56563 26.9875L204.56563 24.425L206.3625 24.425ZM215.3 37.753124Q213.15938 37.753124 211.8 36.346874Q210.45625 34.925 210.45625 32.565624L210.45625 32.221874Q210.45625 30.659374 211.05 29.425Q211.65938 28.190624 212.7375 27.4875Q213.81563 26.784374 215.08125 26.784374Q217.14375 26.784374 218.28438 28.14375Q219.425 29.503124 219.425 32.034374L219.425 32.784374L212.26875 32.784374Q212.3 34.346874 213.175 35.315624Q214.05 36.26875 215.39375 36.26875Q216.3625 36.26875 217.01875 35.878124Q217.69063 35.4875 218.19063 34.846874L219.28438 35.70625Q217.95625 37.753124 215.3 37.753124ZM215.08125 28.26875Q213.9875 28.26875 213.2375 29.065624Q212.50313 29.8625 212.33125 31.3L217.6125 31.3L217.6125 31.159374Q217.53438 29.784374 216.8625 29.034374Q216.20625 28.26875 215.08125 28.26875ZM223.6125 26.9875L223.65938 28.159374Q224.83125 26.784374 226.8 26.784374Q229.01875 26.784374 229.81563 28.4875Q230.34688 27.721874 231.19063 27.253124Q232.03438 26.784374 233.19063 26.784374Q236.65938 26.784374 236.72188 30.471874L236.72188 37.55L234.90938 37.55L234.90938 30.58125Q234.90938 29.440624 234.39375 28.878124Q233.87813 28.315624 232.65938 28.315624Q231.65938 28.315624 230.9875 28.925Q230.33125 29.51875 230.22188 30.534374L230.22188 37.55L228.40938 37.55L228.40938 30.628124Q228.40938 28.315624 226.14375 28.315624Q224.3625 28.315624 223.72188 29.83125L223.72188 37.55L221.90938 37.55L221.90938 26.9875L223.6125 26.9875Z" fill-rule="nonzero"/></svg>